<svg width="200" height="58" viewBox="0 0 200 58" fill="none" xmlns="http://www.w3.org/2000/svg">
<g clip-path="url(#clip0_1715_11052)">
<path d="M62.398 0H50.698C49.7149 0 48.918 0.796933 48.918 1.78V9.325C48.918 10.3081 49.7149 11.105 50.698 11.105H62.398C63.381 11.105 64.178 10.3081 64.178 9.325V1.78C64.178 0.796933 63.381 0 62.398 0Z" fill="#63CE0F"/>
<path d="M28.5 14.075C23.5 14.075 20.3075 16 18.27 18.9225C18.0729 19.2119 17.7885 19.4307 17.4584 19.547C17.1282 19.6634 16.7694 19.6712 16.4345 19.5693C16.0995 19.4674 15.8059 19.2612 15.5964 18.9807C15.3869 18.7002 15.2726 18.3601 15.27 18.01V0H4.6475C3.41491 0 2.2328 0.489646 1.36122 1.36122C0.489646 2.2328 0 3.41491 0 4.6475L0 57.5H15.2625V53.08C15.2625 51.7925 16.98 51.31 17.62 52.4275C19.4075 55.545 22.3975 57.65 27.64 57.65C37.64 57.65 43.835 50.19 43.835 35.8625C43.835 21.535 37.645 14.075 28.5 14.075ZM16.4 43.6425V43.57L16.4425 43.6425H16.4ZM31.9125 38.7775C30.7625 42.2054 30.2681 45.8192 30.455 49.43C30.4554 49.4714 30.4411 49.5117 30.4146 49.5435C30.3881 49.5754 30.3512 49.5968 30.3104 49.604C30.2696 49.6113 30.2276 49.6037 30.1918 49.5829C30.156 49.562 30.1288 49.5291 30.115 49.49C29.45 47.1666 28.9702 44.7942 28.68 42.395C28.32 39.4975 28.1 36.585 27.8175 33.6125L19.415 35.7925C19.3918 35.7988 19.3676 35.8001 19.3438 35.7965C19.3201 35.7928 19.2973 35.7842 19.2771 35.7713C19.2569 35.7583 19.2395 35.7413 19.2263 35.7213C19.213 35.7013 19.204 35.6787 19.2 35.655C18.81 32.9675 21.995 28.3225 25.39 26.5975C30 24.2625 35.25 25.5 38.0525 28.1425C38.0691 28.1588 38.0823 28.1782 38.0914 28.1997C38.1004 28.2212 38.105 28.2442 38.105 28.2675C38.105 28.2908 38.1004 28.3138 38.0914 28.3353C38.0823 28.3568 38.0691 28.3762 38.0525 28.3925C35.2925 31.3795 33.1995 34.9196 31.9125 38.7775Z" fill="#080708"/>
<path d="M27.6295 26.79C27.2289 26.7954 26.8455 26.9537 26.5578 27.2326C26.2701 27.5114 26.0999 27.8898 26.082 28.29C26.0981 28.69 26.2683 29.0683 26.557 29.3456C26.8457 29.6229 27.2305 29.7778 27.6308 29.7778C28.0311 29.7778 28.4159 29.6229 28.7046 29.3456C28.9933 29.0683 29.1635 28.69 29.1795 28.29C29.1635 27.8887 28.9935 27.509 28.7049 27.2297C28.4163 26.9504 28.0312 26.7929 27.6295 26.79Z" fill="#080708"/>
<path d="M48.918 55.7149V16.6999C48.918 15.7174 49.7155 13.8824 50.698 13.8824H62.4005C63.383 13.8824 64.178 15.7174 64.178 16.6999V55.7149C64.179 55.949 64.1337 56.1809 64.0448 56.3975C63.9559 56.614 63.8252 56.8108 63.66 56.9767C63.4949 57.1425 63.2986 57.2741 63.0824 57.3639C62.8663 57.4537 62.6345 57.5 62.4005 57.4999H50.698C50.4638 57.4999 50.2319 57.4537 50.0156 57.364C49.7994 57.2742 49.6029 57.1426 49.4376 56.9768C49.2722 56.811 49.1412 56.6142 49.052 56.3977C48.9629 56.1811 48.9173 55.9491 48.918 55.7149Z" fill="#080708"/>
<path d="M68.8828 55.1124V17.3024C68.8828 15.9874 69.9503 13.8824 71.2653 13.8824H81.7653C82.3972 13.8824 83.0032 14.1335 83.45 14.5803C83.8968 15.0271 84.1478 15.6331 84.1478 16.2649C84.1478 18.5149 86.9903 20.5624 88.3803 18.8024C90.6028 15.9899 93.7228 14.0724 97.9678 14.0724C105.258 14.0724 107.968 18.6524 107.968 25.6024C107.946 29.0926 107.203 32.5405 105.785 35.7299C105.597 36.1482 105.292 36.5032 104.906 36.752C104.521 37.0008 104.072 37.1329 103.613 37.1324H95.3903C94.9891 37.1317 94.5945 37.0297 94.2433 36.8358C93.892 36.6419 93.5954 36.3624 93.3809 36.0233C93.1665 35.6842 93.0412 35.2964 93.0166 34.8959C92.992 34.4954 93.069 34.0952 93.2403 33.7324C93.8753 32.3624 94.3178 30.8874 94.3178 29.5874C94.3178 27.2149 93.3003 25.6024 90.8403 25.6024C87.3653 25.6024 84.1428 28.9099 84.1428 35.6924V55.1124C84.1435 55.4266 84.082 55.7378 83.962 56.028C83.8419 56.3183 83.6656 56.582 83.4432 56.8039C83.2209 57.0258 82.9568 57.2015 82.6663 57.321C82.3757 57.4404 82.0645 57.5013 81.7503 57.4999H71.2503C70.6202 57.496 70.0173 57.2425 69.5736 56.7951C69.1299 56.3476 68.8815 55.7426 68.8828 55.1124Z" fill="#080708"/>
<path d="M112.522 35.8625C112.522 21.535 118.71 14.0725 127.867 14.0725C132.617 14.0725 135.722 15.8225 137.767 18.4925C138.85 19.9075 141.092 19.1875 141.092 17.4075V1.845C141.092 1.35568 141.287 0.886394 141.633 0.54039C141.979 0.194385 142.448 1.69853e-06 142.937 1.69853e-06H154.5C154.742 -0.000327401 154.982 0.0471703 155.206 0.139774C155.43 0.232377 155.634 0.368266 155.805 0.539656C155.977 0.711045 156.113 0.914567 156.205 1.13856C156.298 1.36256 156.345 1.60262 156.345 1.845V54.9575C156.345 55.9775 155.52 57.495 154.5 57.495H142.937C141.92 57.495 141.092 55.9775 141.092 54.9575C141.093 54.5753 140.975 54.2023 140.754 53.8903C140.533 53.5782 140.221 53.3426 139.86 53.216C139.5 53.0893 139.109 53.078 138.741 53.1836C138.374 53.2891 138.048 53.5063 137.81 53.805C135.962 56.15 133.142 57.65 128.715 57.65C118.71 57.65 112.522 50.19 112.522 35.8625ZM135.157 46.1125C138.38 46.1125 141.092 44.5025 141.092 37.72V34C141.092 27.2175 138.21 25.605 134.82 25.605C130.155 25.605 128.037 29.675 128.037 35.855C128.037 42.035 130.25 46.12 135.157 46.12V46.1125Z" fill="#080708"/>
<path d="M161.713 48.595L164.355 43.47C164.56 43.0723 164.842 42.7196 165.186 42.433C165.529 42.1463 165.927 41.9313 166.355 41.8008C166.782 41.6703 167.232 41.6269 167.677 41.6731C168.122 41.7193 168.553 41.8543 168.945 42.07C173.463 44.5575 178.98 46.46 183.045 46.46C185.333 46.46 186.435 45.96 186.435 44.765C186.435 43.4925 184.995 42.9 180.755 41.7975L175 40.27C166.438 37.9825 161.69 34.845 161.69 27.8075C161.69 19.16 168.895 14.1575 180.003 14.1575C187.215 14.1575 192.88 16.2775 196.59 18.375C197.333 18.7923 197.89 19.4765 198.147 20.2889C198.404 21.1013 198.343 21.9811 197.975 22.75L195.705 27.5C195.508 27.9157 195.226 28.2861 194.879 28.588C194.532 28.8899 194.126 29.1169 193.687 29.2547C193.248 29.3924 192.785 29.438 192.327 29.3886C191.87 29.3392 191.427 29.1958 191.028 28.9675C186.513 26.39 181.94 25.2625 178.55 25.2625C176.43 25.2625 175.415 25.94 175.415 26.9575C175.415 28.23 176.6 28.8225 182.028 30.4325L186.35 31.705C195.423 34.335 200 37.7275 200 44.5C200 52.385 193.388 57.64 182.62 57.64C174.745 57.64 167.655 55.5575 163.055 53.0425C162.297 52.6212 161.733 51.9212 161.482 51.0909C161.231 50.2606 161.314 49.3653 161.713 48.595Z" fill="#080708"/>
</g>
<defs>
<clipPath id="clip0_1715_11052">
<rect width="200" height="57.65" fill="white"/>
</clipPath>
</defs>
</svg>
