<svg width="300" height="224" viewBox="0 0 300 224" fill="none" xmlns="http://www.w3.org/2000/svg">
<g clip-path="url(#clip0_2791_3085)">
<path d="M218.606 212.603H212.649L209.814 189.627H218.606V212.603Z" fill="#9E616A"/>
<path d="M221.75 222.924H217.478L216.716 218.891L214.763 222.924H203.433C202.89 222.924 202.361 222.75 201.923 222.429C201.486 222.107 201.163 221.653 201.001 221.135C200.84 220.617 200.848 220.06 201.025 219.547C201.202 219.033 201.539 218.59 201.986 218.281L211.033 212.032V207.955L220.55 208.523L221.75 222.924Z" fill="#2F2E41"/>
<path d="M253.996 205.085L249.215 208.64L233.23 191.894L240.285 186.648L253.996 205.085Z" fill="#9E616A"/>
<path d="M262.678 211.491L259.25 214.04L256.231 211.259L257.071 215.661L247.979 222.422C247.543 222.746 247.015 222.922 246.472 222.925C245.929 222.927 245.399 222.757 244.96 222.437C244.521 222.117 244.196 221.666 244.031 221.148C243.867 220.63 243.873 220.074 244.047 219.56L247.579 209.146L245.146 205.874L253.122 200.651L262.678 211.491Z" fill="#2F2E41"/>
<path d="M225.541 94.0576C225.541 94.0576 236.843 103.822 231.629 131.659L225.262 158.934L246.025 193.378L239.405 201.432L212.413 164.149L202.632 141.206L199.888 100.372L225.541 94.0576Z" fill="#2F2E41"/>
<path d="M208.024 147.745L207.344 158.273L209.424 203.136L219.213 201.432L221.084 169.489L208.024 147.745Z" fill="#2F2E41"/>
<path d="M82.3996 218.005L87.7268 218.005L90.2608 197.458L82.3989 197.458L82.3996 218.005Z" fill="#9E616A"/>
<path d="M81.0405 216.266L82.5399 216.266L88.3939 213.885L91.5314 216.266H91.5318C93.3049 216.266 95.0053 216.97 96.2591 218.224C97.5129 219.478 98.2173 221.178 98.2174 222.951V223.168L81.0408 223.169L81.0405 216.266Z" fill="#2F2E41"/>
<path d="M103.043 214.648L108.239 215.821L115.237 196.337L107.568 194.605L103.043 214.648Z" fill="#9E616A"/>
<path d="M102.1 212.653L103.563 212.983L109.797 211.95L112.334 214.963L112.334 214.963C114.064 215.354 115.567 216.416 116.514 217.915C117.461 219.414 117.773 221.228 117.383 222.957L117.335 223.169L100.58 219.386L102.1 212.653Z" fill="#2F2E41"/>
<path d="M75.6527 92.3906C73.1551 99.9233 73.4192 108.1 76.253 116.875L77.4644 166.284C77.4644 166.284 75.6595 198.686 81.4836 210.087H89.9302L94.1123 163.325L94.6374 131.938L112.746 158.418L101.212 209.323L111.608 210.252L130.324 155.009L107.232 101.413L75.6527 92.3906Z" fill="#2F2E41"/>
<path d="M173.061 70.9347C179.522 65.1128 189.131 62.1855 197.192 65.45C188.924 70.0407 182.545 77.4082 179.186 86.2489C177.902 89.6631 176.831 93.5941 173.674 95.422C171.71 96.5594 169.267 96.615 167.065 96.0659C164.863 95.5168 162.844 94.4161 160.854 93.3264L160.287 93.3136C162.83 84.9969 166.6 76.7566 173.061 70.9347Z" fill="#E6E6E6"/>
<path d="M197.147 65.6269C190.008 66.5495 183.341 69.6981 178.093 74.6254C176.944 75.6661 175.967 76.8814 175.197 78.2264C174.489 79.5609 174.151 81.0606 174.219 82.5697C174.254 83.978 174.453 85.4145 174.145 86.8068C173.977 87.5172 173.66 88.1839 173.216 88.7634C172.772 89.3428 172.21 89.8218 171.568 90.1691C169.991 91.0758 168.182 91.3617 166.402 91.5797C164.427 91.8219 162.372 92.0421 160.662 93.15C160.455 93.2842 160.259 92.9549 160.465 92.8209C163.44 90.8933 167.204 91.5946 170.403 90.3082C171.896 89.7079 173.217 88.6541 173.684 87.061C174.093 85.6678 173.889 84.1863 173.841 82.7606C173.754 81.2894 174.028 79.8192 174.639 78.4782C175.338 77.0983 176.267 75.8475 177.386 74.7792C179.867 72.334 182.716 70.2941 185.83 68.7341C189.375 66.934 193.201 65.7534 197.143 65.2435C197.387 65.2121 197.389 65.5956 197.147 65.6269Z" fill="white"/>
<path d="M179.689 72.9393C178.982 71.9466 178.651 70.7349 178.755 69.5205C178.858 68.3061 179.39 67.1681 180.256 66.3098C180.431 66.1367 180.709 66.4016 180.533 66.5749C179.725 67.3727 179.23 68.4328 179.136 69.5638C179.041 70.6949 179.354 71.8224 180.018 72.7428C180.162 72.943 179.832 73.1384 179.689 72.9393Z" fill="white"/>
<path d="M174.108 81.858C176.561 82.2927 179.088 81.7867 181.185 80.4409C181.392 80.3074 181.589 80.6367 181.381 80.77C179.197 82.1664 176.566 82.6876 174.014 82.2296C173.771 82.1858 173.866 81.8144 174.108 81.858Z" fill="white"/>
<path d="M189.406 67.4412C189.599 67.8823 189.899 68.2684 190.279 68.5649C190.659 68.8613 191.106 69.0588 191.581 69.1397C191.825 69.1804 191.729 69.5518 191.487 69.5113C190.963 69.4196 190.469 69.2009 190.049 68.8743C189.629 68.5476 189.295 68.1231 189.077 67.6377C189.052 67.5937 189.045 67.542 189.058 67.4932C189.07 67.4444 189.101 67.4021 189.143 67.3749C189.187 67.3491 189.239 67.3416 189.288 67.354C189.337 67.3664 189.379 67.3977 189.406 67.4412Z" fill="white"/>
<path d="M206.068 93.5261C205.915 93.505 205.763 93.4839 205.607 93.4651C203.551 93.1922 201.476 93.0868 199.402 93.1499C199.242 93.1523 199.079 93.157 198.919 93.164C193.925 93.3694 189.012 94.5002 184.431 96.4989C182.608 97.296 180.849 98.2305 179.169 99.2944C176.848 100.764 174.448 102.542 171.854 103.141C171.584 103.207 171.31 103.255 171.034 103.287L160.315 94.0057C160.301 93.9724 160.285 93.9414 160.272 93.908L159.827 93.557C159.91 93.4961 159.997 93.4347 160.08 93.3737C160.127 93.3382 160.178 93.3047 160.226 93.2692C160.258 93.2461 160.291 93.2232 160.319 93.2005C160.33 93.1928 160.341 93.1852 160.35 93.1799C160.378 93.1573 160.407 93.1392 160.433 93.119C160.919 92.7744 161.409 92.4326 161.902 92.0937C161.905 92.0913 161.905 92.0913 161.909 92.0909C165.642 89.4721 169.673 87.3055 173.917 85.6364C174.044 85.5883 174.173 85.5377 174.305 85.4938C176.216 84.7832 178.182 84.23 180.184 83.8397C181.28 83.6295 182.387 83.475 183.499 83.3767C186.373 83.1282 189.268 83.3333 192.078 83.9845C197.681 85.2835 202.805 88.3597 205.84 93.1573C205.918 93.28 205.993 93.4009 206.068 93.5261Z" fill="#E6E6E6"/>
<path d="M205.926 93.6411C199.671 90.0794 192.452 88.5794 185.295 89.3541C183.752 89.4936 182.24 89.8754 180.815 90.4857C179.446 91.125 178.274 92.1192 177.419 93.3649C176.599 94.5104 175.893 95.7771 174.809 96.7033C174.247 97.1691 173.592 97.5109 172.889 97.7062C172.186 97.9015 171.449 97.946 170.727 97.8366C168.922 97.6108 167.305 96.7497 165.753 95.8527C164.03 94.8568 162.257 93.7951 160.224 93.6502C159.978 93.6327 160.02 93.2516 160.266 93.2691C163.801 93.5211 166.385 96.3475 169.713 97.2462C171.266 97.6655 172.955 97.6193 174.288 96.6287C175.453 95.7625 176.182 94.4569 177.003 93.2899C177.818 92.0625 178.922 91.0534 180.218 90.351C181.607 89.6702 183.102 89.2307 184.638 89.0514C188.091 88.5925 191.594 88.6793 195.02 89.3087C198.934 90.0053 202.7 91.3664 206.154 93.3329C206.368 93.4547 206.139 93.7621 205.926 93.6411Z" fill="white"/>
<path d="M187.585 88.9694C187.618 87.751 188.083 86.584 188.897 85.6768C189.711 84.7697 190.821 84.1814 192.029 84.0171C192.273 83.9847 192.335 84.3631 192.09 84.3955C190.965 84.5465 189.932 85.0946 189.175 85.9408C188.419 86.7871 187.99 87.8759 187.966 89.0106C187.961 89.2572 187.58 89.2145 187.585 88.9694Z" fill="white"/>
<path d="M177.758 92.7296C179.455 94.5537 181.778 95.6712 184.262 95.8591C184.508 95.8775 184.467 96.2586 184.221 96.2402C181.636 96.0398 179.222 94.872 177.46 92.9699C177.292 92.7885 177.591 92.5492 177.758 92.7296Z" fill="white"/>
<path d="M198.653 90.429C198.542 90.8978 198.549 91.3868 198.674 91.8521C198.799 92.3174 199.037 92.7444 199.367 93.0949C199.537 93.2741 199.238 93.5132 199.069 93.3352C198.705 92.9463 198.443 92.4743 198.304 91.9605C198.165 91.4467 198.154 90.9068 198.272 90.3878C198.279 90.3379 198.305 90.2926 198.344 90.261C198.383 90.2295 198.433 90.214 198.483 90.2179C198.534 90.2236 198.58 90.249 198.611 90.2885C198.643 90.328 198.658 90.3785 198.653 90.429Z" fill="white"/>
<path d="M17.7931 217.632C17.2899 219.52 15.9678 221.092 14.3714 222.237C14.1112 222.424 13.844 222.598 13.5733 222.761C13.49 222.81 13.4067 222.862 13.32 222.907C13.2263 222.962 13.1326 223.014 13.0389 223.063H5.5327C5.39736 222.789 5.26549 222.511 5.13362 222.237C1.9167 215.477 -0.342439 208.182 0.0427592 200.753C0.195581 197.871 0.801029 195.031 1.83688 192.337C3.89821 186.969 7.65997 182.322 12.8341 179.983C12.9625 179.924 13.0979 179.865 13.2297 179.81C13.1881 179.959 13.1464 180.105 13.1048 180.254C12.5497 182.254 12.1574 184.295 11.9318 186.358C11.911 186.518 11.8937 186.677 11.8798 186.84C11.3868 191.816 11.8246 196.84 13.1707 201.655C13.1742 201.665 13.1777 201.679 13.1811 201.69C13.4761 202.755 13.8185 203.804 14.2083 204.837C14.5137 205.653 14.8434 206.458 15.2043 207.249C16.7104 210.57 18.7301 214.11 17.7931 217.632Z" fill="#E6E6E6"/>
<path d="M13.3233 179.966C13.2504 180.063 13.1775 180.157 13.1046 180.254C11.5804 182.274 10.2861 184.458 9.24571 186.764C9.19019 186.879 9.13813 186.993 9.09302 187.111C7.66743 190.332 6.75189 193.756 6.37928 197.258C6.37524 197.283 6.37293 197.307 6.37234 197.331C6.28558 198.15 6.23353 198.976 6.21271 199.802C6.13554 201.35 6.30301 202.901 6.70895 204.397C7.07909 205.618 7.7277 206.737 8.60371 207.666C8.69047 207.759 8.77722 207.853 8.87092 207.943C8.94033 208.016 9.01667 208.089 9.08954 208.159C9.79054 208.828 10.5575 209.449 11.2168 210.168C11.519 210.49 11.7919 210.838 12.0323 211.209C12.416 211.83 12.6638 212.525 12.7595 213.249C12.8552 213.973 12.7966 214.708 12.5876 215.408C12.1156 217.164 11.0364 218.646 9.93282 220.058C9.38105 220.766 8.81192 221.481 8.31915 222.237C8.13871 222.508 7.97213 222.782 7.81946 223.063H7.3822C7.52795 222.782 7.68758 222.508 7.8611 222.237C9.12774 220.242 10.9288 218.528 11.8623 216.331C12.4939 214.849 12.6848 213.17 11.8866 211.716C11.6527 211.293 11.3696 210.899 11.0433 210.543C10.4083 209.824 9.64828 209.21 8.9577 208.561C8.78419 208.398 8.61414 208.231 8.45104 208.058C7.58632 207.179 6.91905 206.126 6.49382 204.969C6.01224 203.5 5.78458 201.959 5.82059 200.413C5.82059 199.427 5.87264 198.435 5.96981 197.449C5.98022 197.324 5.9941 197.196 6.00798 197.068C6.71766 190.866 9.07456 184.967 12.834 179.984C12.9034 179.886 12.9763 179.793 13.0491 179.699C13.1983 179.505 13.4725 179.775 13.3233 179.966Z" fill="white"/>
<path d="M6.14811 197.482C4.94612 197.28 3.85502 196.658 3.06969 195.726C2.28435 194.794 1.85592 193.613 1.86088 192.394C1.86155 192.344 1.88148 192.297 1.91647 192.261C1.95147 192.226 1.9988 192.206 2.04849 192.205C2.09818 192.204 2.14636 192.222 2.18286 192.256C2.21937 192.289 2.24135 192.336 2.24419 192.385C2.23747 193.52 2.63667 194.62 3.36975 195.487C4.10282 196.353 5.12148 196.929 6.24187 197.111C6.4853 197.15 6.39014 197.522 6.14811 197.482Z" fill="white"/>
<path d="M8.50778 207.735C10.5499 206.308 11.979 204.163 12.5101 201.729C12.5625 201.488 12.9341 201.582 12.8817 201.823C12.3243 204.355 10.8326 206.584 8.70429 208.064C8.50133 208.205 8.30592 207.876 8.50778 207.735Z" fill="white"/>
<path d="M9.13084 186.724C9.57964 186.899 10.0649 186.959 10.543 186.901C11.0211 186.842 11.4771 186.665 11.8701 186.386C12.0711 186.243 12.2663 186.573 12.0666 186.716C11.631 187.021 11.1271 187.216 10.599 187.282C10.0709 187.348 9.53466 187.284 9.03707 187.095C8.98867 187.081 8.94737 187.05 8.92156 187.006C8.89576 186.963 8.88737 186.912 8.89812 186.863C8.91079 186.813 8.94234 186.771 8.98591 186.745C9.02949 186.719 9.08157 186.711 9.13084 186.724Z" fill="white"/>
<path d="M39.3572 193.385C39.2358 193.479 39.1108 193.573 38.9894 193.67C37.3418 194.931 35.7994 196.323 34.3774 197.834C34.2663 197.949 34.1553 198.067 34.0477 198.185L34.0443 198.188C30.6726 201.848 28.0066 206.1 26.1807 210.73L26.1702 210.761C26.1668 210.771 26.1633 210.778 26.1598 210.789C25.4361 212.642 24.8526 214.546 24.4143 216.487C23.9909 218.381 23.6439 220.412 22.9811 222.237C22.8804 222.518 22.7694 222.796 22.6514 223.063H7.22266C7.27471 222.789 7.33023 222.511 7.38576 222.237C8.17061 218.216 9.39726 214.294 11.0434 210.542C11.0989 210.417 11.1545 210.292 11.2169 210.167C12.0667 208.314 13.066 206.532 14.2048 204.841L14.2051 204.839L14.2058 204.838L14.2069 204.837L14.2083 204.837C14.8336 203.914 15.5054 203.023 16.221 202.168C18.077 199.96 20.2693 198.058 22.7173 196.533C22.7312 196.522 22.7486 196.515 22.7625 196.505C27.6347 193.482 33.4092 192.042 38.9304 193.288H38.9338C39.0761 193.319 39.2149 193.351 39.3572 193.385Z" fill="#E6E6E6"/>
<path d="M39.3398 193.569C39.2218 193.601 39.1038 193.635 38.9893 193.67C36.5572 194.365 34.2097 195.327 31.9898 196.54C31.8787 196.599 31.7677 196.661 31.6566 196.724C28.5888 198.436 25.804 200.612 23.4009 203.175C23.399 203.177 23.3978 203.179 23.3974 203.182C23.3696 203.21 23.3384 203.241 23.3141 203.269C22.7589 203.866 22.2245 204.487 21.7178 205.125C20.7267 206.316 19.9282 207.654 19.3511 209.092C18.9101 210.29 18.7545 211.574 18.8965 212.843C18.9069 212.972 18.9242 213.096 18.9416 213.225C18.9555 213.326 18.9694 213.426 18.9867 213.53C19.2157 214.922 19.6114 216.317 19.5003 217.736C19.4327 218.463 19.212 219.168 18.8525 219.804C18.493 220.44 18.003 220.992 17.4147 221.425C17.0148 221.734 16.5873 222.006 16.1376 222.237C15.4947 222.569 14.8249 222.845 14.1353 223.063H12.7715C12.9554 223.011 13.1359 222.959 13.3198 222.907C13.9725 222.723 14.6133 222.499 15.2388 222.237C15.5962 222.088 15.9439 221.916 16.2799 221.724C17.675 220.922 18.8375 219.693 19.0804 218.052C19.2921 216.615 18.8826 215.179 18.6397 213.773C18.598 213.53 18.5599 213.291 18.5391 213.051C18.3734 211.834 18.474 210.596 18.834 209.421C19.3333 207.957 20.0798 206.588 21.0411 205.375C21.6357 204.585 22.2705 203.827 22.9428 203.102C23.0261 203.008 23.1128 202.915 23.2031 202.821C25.6567 200.24 28.4898 198.048 31.6046 196.321H31.608C33.924 195.032 36.381 194.014 38.9303 193.288H38.9337C39.0483 193.254 39.1662 193.219 39.2808 193.188C39.5202 193.125 39.5757 193.503 39.3398 193.569Z" fill="white"/>
<path d="M23.0661 203.234C22.2279 202.349 21.7316 201.195 21.6657 199.978C21.5999 198.761 21.9687 197.56 22.7065 196.59C22.8565 196.394 23.1678 196.618 23.0176 196.814C22.3289 197.716 21.9854 198.835 22.0491 199.968C22.1127 201.101 22.5793 202.174 23.3647 202.993C23.5352 203.172 23.2356 203.411 23.0661 203.234Z" fill="white"/>
<path d="M18.7765 212.841C21.2664 212.931 23.6987 212.079 25.5883 210.455C25.7754 210.294 26.0155 210.593 25.8286 210.754C23.859 212.44 21.3261 213.321 18.7352 213.222C18.4883 213.212 18.5309 212.831 18.7765 212.841Z" fill="white"/>
<path d="M31.9249 196.44C32.1779 196.85 32.5287 197.19 32.9459 197.431C33.3631 197.672 33.8335 197.806 34.3151 197.82C34.562 197.826 34.5191 198.207 34.2738 198.201C33.7419 198.183 33.2225 198.035 32.761 197.77C32.2995 197.505 31.9099 197.13 31.6263 196.68C31.596 196.64 31.5822 196.59 31.5876 196.54C31.593 196.49 31.6173 196.443 31.6555 196.411C31.6952 196.379 31.7457 196.364 31.7962 196.37C31.8467 196.375 31.8929 196.4 31.9249 196.44Z" fill="white"/>
<path d="M158.376 60.0803C158.02 60.5487 157.566 60.9334 157.045 61.2072C156.524 61.481 155.949 61.6373 155.362 61.665C154.774 61.6927 154.187 61.5912 153.643 61.3676C153.098 61.144 152.61 60.8038 152.211 60.3709L139.093 66.0761L140.371 58.7533L152.632 54.4582C153.404 53.8368 154.376 53.5199 155.366 53.5677C156.356 53.6155 157.293 54.0247 158.001 54.7177C158.709 55.4107 159.139 56.3393 159.208 57.3277C159.277 58.3161 158.981 59.2954 158.376 60.0803Z" fill="#9E616A"/>
<path d="M149.622 62.3666L119.154 75.9382L119.089 75.9148L84.3632 63.5403C81.7766 62.1884 79.8046 59.899 78.851 57.1406C77.8973 54.3823 78.0342 51.3637 79.2336 48.703C79.8984 47.2329 80.867 45.9203 82.0757 44.8515C83.2844 43.7828 84.7057 42.9822 86.2461 42.5023C87.7865 42.0225 89.411 41.8744 91.0128 42.0676C92.6146 42.2609 94.1573 42.7912 95.5393 43.6237L121.382 59.191L146.441 55.9432L149.622 62.3666Z" fill="#E6E6E6"/>
<path d="M299.38 223.344C299.38 223.398 299.37 223.452 299.349 223.502C299.328 223.553 299.298 223.598 299.26 223.636C299.221 223.675 299.176 223.705 299.125 223.726C299.075 223.747 299.022 223.757 298.967 223.757H0.424675C0.315151 223.757 0.210117 223.714 0.132671 223.636C0.0552264 223.559 0.0117188 223.454 0.0117188 223.344C0.0117188 223.235 0.0552264 223.13 0.132671 223.052C0.210117 222.975 0.315151 222.931 0.424675 222.931H298.967C299.022 222.931 299.075 222.942 299.125 222.962C299.176 222.983 299.221 223.013 299.26 223.052C299.298 223.09 299.328 223.136 299.349 223.186C299.37 223.236 299.38 223.29 299.38 223.344Z" fill="#CCCCCC"/>
<path d="M108.738 102.996L78.0244 98.083C77.2189 97.825 76.4787 97.3957 75.8548 96.8247C75.2308 96.2536 74.7378 95.5543 74.4096 94.7748C74.0813 93.9952 73.9257 93.1538 73.9533 92.3085C73.9809 91.4631 74.1912 90.6337 74.5696 89.8772L75.9624 87.0912L75.4214 57.8207C75.3562 54.0133 76.2948 50.2559 78.1429 46.9265C79.9909 43.597 82.6832 40.813 85.9489 38.8545L88.944 37.0636L90.4577 33.2197L104.415 33.5602L104.456 38.6015L109.454 46.5721L109.454 46.6051L109.14 89.9881L107.763 94.4652L109.846 99.6726L108.738 102.996Z" fill="#E6E6E6"/>
<path d="M98.7145 28.4401C105.718 28.4401 111.396 22.7623 111.396 15.7584C111.396 8.75447 105.718 3.07666 98.7145 3.07666C91.7105 3.07666 86.0327 8.75447 86.0327 15.7584C86.0327 22.7623 91.7105 28.4401 98.7145 28.4401Z" fill="#9E616A"/>
<path d="M85.5091 18.5231C85.1309 16.9296 85.3045 14.6873 85.5183 13.0828C86.0787 8.87638 88.4147 4.87746 91.9637 2.50875C92.6366 1.99764 93.4363 1.67986 94.2765 1.58967C95.1161 1.55462 96.0261 2.00408 96.2839 2.80391C96.4954 2.27602 96.8129 1.79708 97.2167 1.39664C97.6205 0.996212 98.1021 0.682786 98.6317 0.475716C99.6956 0.0680843 100.84 -0.0860722 101.974 0.0254657C104.172 0.206627 106.279 0.979425 108.073 2.26185C109.867 3.54427 111.281 5.28847 112.164 7.30935C112.502 8.11403 113.448 5.14175 113.878 5.90206C114.272 6.69236 114.96 7.2969 115.794 7.58632C116.635 7.82098 116.977 11.2857 117.308 10.4778C117.565 11.0749 117.666 11.7272 117.603 12.3741C117.54 13.0209 117.314 13.6413 116.946 14.1773C116.579 14.7134 116.082 15.1477 115.501 15.4398C114.92 15.732 114.275 15.8724 113.626 15.8481C112.77 15.8161 111.951 15.5013 111.106 15.3658C108.081 14.8812 104.873 17.0742 104.227 20.0681C103.995 19.2023 103.625 18.3796 103.131 17.6317C102.881 17.2597 102.545 16.9529 102.152 16.7369C101.759 16.5209 101.32 16.4019 100.871 16.3898C100.011 16.422 99.2544 16.9846 98.6961 17.6401C98.1378 18.2957 97.7185 19.0605 97.1561 19.7125C95.5058 21.6257 93.2737 26.0873 90.9219 25.7618C89.066 25.5051 86.0256 20.6988 85.5091 18.5231Z" fill="#2F2E41"/>
<path d="M175.374 74.4509C175.463 73.8727 175.344 73.2818 175.039 72.7829C174.733 72.284 174.261 71.9094 173.706 71.7255L139.554 60.351C139.227 60.2415 138.88 60.2017 138.536 60.2341L129.976 61.0436L125.064 61.5095L116.001 62.3661C115.453 62.4184 114.939 62.6509 114.538 63.0271C114.137 63.4033 113.872 63.9018 113.785 64.4447L109.183 93.1914C109.096 93.7521 109.203 94.3258 109.486 94.8176C109.769 95.3095 110.211 95.6902 110.74 95.8968L145.248 109.217C145.41 109.28 145.578 109.325 145.75 109.352C146 109.392 146.254 109.394 146.505 109.358L168.803 106.053C169.329 105.977 169.816 105.733 170.193 105.358C170.569 104.983 170.815 104.497 170.893 103.971L175.374 74.4509Z" fill="white"/>
<path d="M111.522 93.8715L146.03 107.191C146.08 107.211 146.135 107.217 146.189 107.21L168.484 103.905C168.55 103.896 168.611 103.866 168.659 103.819C168.706 103.772 168.737 103.711 168.746 103.645L173.229 74.1242C173.24 74.0521 173.225 73.9787 173.187 73.9166C173.149 73.8544 173.09 73.8074 173.021 73.7836L172.792 73.7059L138.867 62.4116C138.852 62.4061 138.836 62.4023 138.82 62.4001C138.793 62.3953 138.767 62.3939 138.74 62.396L117.861 64.3716L116.205 64.5271C116.137 64.5344 116.073 64.5636 116.023 64.6105C115.973 64.6573 115.94 64.7192 115.929 64.7866L111.328 93.5322C111.316 93.6025 111.33 93.6744 111.365 93.7362C111.4 93.7979 111.456 93.8456 111.522 93.8715Z" fill="#97DF5F"/>
<path d="M117.861 64.3716L138.74 62.396C138.767 62.3939 138.793 62.3953 138.82 62.4001C138.836 62.4023 138.852 62.4061 138.867 62.4116L172.792 73.7059L163.843 74.6531L160.494 75.0059L150.965 76.0127C150.937 76.0141 150.909 76.0138 150.881 76.0117C150.864 76.0066 150.847 76.0015 150.827 75.9961L117.861 64.3716Z" fill="#2F2E41"/>
<path d="M110.739 95.8988L145.247 109.218C145.409 109.281 145.578 109.325 145.75 109.35C146 109.392 146.255 109.395 146.506 109.36L168.801 106.055C169.328 105.979 169.815 105.735 170.192 105.359C170.569 104.984 170.815 104.498 170.893 103.972L175.373 74.451C175.44 74.0158 175.39 73.5708 175.228 73.1612C175.206 73.1068 175.183 73.0523 175.156 73.001C174.979 72.627 174.708 72.3048 174.371 72.0649C174.168 71.919 173.943 71.8047 173.706 71.726L173.666 71.7116L139.556 60.3509C139.416 60.3064 139.274 60.2719 139.13 60.2474C138.933 60.2195 138.733 60.2156 138.535 60.2359L129.976 61.0426L125.065 61.5111L116 62.367C115.629 62.4017 115.271 62.52 114.952 62.7132C114.927 62.7251 114.904 62.7392 114.882 62.7553C114.866 62.7656 114.851 62.7769 114.837 62.7893C114.559 62.9791 114.322 63.2236 114.141 63.5078C113.961 63.792 113.84 64.11 113.786 64.4424L109.181 93.1912C109.094 93.7524 109.201 94.3264 109.484 94.8187C109.768 95.3109 110.21 95.6919 110.739 95.8988ZM114.397 64.5426C114.453 64.1981 114.606 63.8765 114.838 63.6156C114.908 63.5317 114.987 63.4551 115.072 63.387C115.307 63.1977 115.583 63.0686 115.879 63.0109C115.937 62.9988 115.996 62.9905 116.055 62.9859L131.319 61.544L138.595 60.8517C138.644 60.8459 138.689 60.8467 138.735 60.8441C138.845 60.8418 138.955 60.85 139.064 60.8686C139.163 60.8815 139.262 60.9049 139.357 60.9384L173.507 72.3135C173.534 72.323 173.557 72.3323 173.584 72.3418C173.895 72.4573 174.168 72.6558 174.373 72.9157C174.536 73.1146 174.654 73.3456 174.721 73.5935C174.788 73.8414 174.802 74.1006 174.762 74.3543L170.278 103.878C170.22 104.272 170.036 104.636 169.754 104.917C169.472 105.199 169.108 105.382 168.714 105.44L146.415 108.744C146.096 108.79 145.771 108.753 145.47 108.637L110.961 95.3204C110.566 95.1646 110.235 94.8789 110.023 94.5103C109.811 94.1416 109.731 93.712 109.796 93.2917L114.397 64.5426Z" fill="#3F3D56"/>
<path d="M114.763 62.946C114.781 62.8937 114.813 62.8473 114.856 62.812C114.87 62.8007 114.885 62.7904 114.9 62.7814C114.915 62.7758 114.93 62.7667 114.944 62.7611C115.014 62.7333 115.091 62.732 115.161 62.7574L115.879 63.0108L150.969 75.389L159.181 74.5213L163.777 74.0366L173.504 73.0069L174.373 72.9156L174.543 72.897C174.615 72.8903 174.688 72.9093 174.749 72.9507C174.809 72.9921 174.853 73.0533 174.873 73.1237C174.878 73.14 174.881 73.1566 174.882 73.1734C174.889 73.2402 174.875 73.3076 174.84 73.3653C174.806 73.423 174.754 73.4679 174.691 73.4933C174.664 73.5047 174.635 73.5125 174.605 73.5165L173.422 73.6405L163.843 74.653L160.494 75.0059L150.965 76.0127C150.937 76.0141 150.909 76.0137 150.881 76.0116C150.864 76.0065 150.848 76.0014 150.827 75.996L115.073 63.387L114.951 63.344C114.923 63.3349 114.898 63.3206 114.875 63.3019C114.821 63.2622 114.781 63.2063 114.761 63.1423C114.741 63.0783 114.741 63.0096 114.763 62.946Z" fill="#3F3D56"/>
<path d="M145.845 109.44C145.764 109.427 145.692 109.383 145.643 109.317C145.595 109.251 145.575 109.169 145.587 109.088L150.625 75.6575C150.637 75.5761 150.681 75.503 150.747 75.4542C150.813 75.4053 150.896 75.3848 150.978 75.397L150.98 75.3975C151.061 75.4104 151.134 75.4547 151.182 75.5207C151.23 75.5867 151.25 75.6691 151.238 75.7499L146.2 109.18C146.188 109.262 146.144 109.335 146.078 109.384C146.012 109.432 145.929 109.453 145.847 109.441L145.845 109.44Z" fill="#3F3D56"/>
<path d="M158.614 107.32L155.264 107.674L159.183 74.5207C159.183 74.5207 163.657 73.7105 163.777 74.0354C163.851 74.2293 158.646 107.107 158.614 107.32Z" fill="#3F3D56"/>
<path d="M114.952 63.3438L114.862 78.4626L141.627 88.661L151.238 75.7503L114.952 63.3438Z" fill="#3F3D56"/>
<path d="M174.374 72.916C174.151 72.6348 173.849 72.4253 173.508 72.3134L139.359 60.9387C139.263 60.9064 139.164 60.8824 139.064 60.867C138.955 60.8483 138.845 60.84 138.734 60.8423L138.79 60.4962L139.132 60.2487L147.241 54.3774L174.323 62.6773L174.37 72.0648L174.374 72.916Z" fill="#3F3D56"/>
<path d="M116.316 87.6146C116.355 87.6183 116.393 87.6263 116.429 87.6384L126.907 91.0798C127.038 91.1228 127.147 91.2162 127.21 91.3394C127.272 91.4626 127.283 91.6055 127.24 91.7367C127.197 91.8679 127.103 91.9766 126.98 92.0389C126.857 92.1013 126.714 92.1121 126.583 92.069L116.105 88.6276C115.983 88.5876 115.88 88.5043 115.816 88.3934C115.752 88.2825 115.731 88.1519 115.758 88.0266C115.784 87.9012 115.855 87.7899 115.958 87.7139C116.061 87.6379 116.189 87.6026 116.316 87.6146Z" fill="white"/>
<path d="M158.592 151.038C160.891 151.038 162.756 149.174 162.756 146.874C162.756 144.574 160.891 142.709 158.592 142.709C156.292 142.709 154.427 144.574 154.427 146.874C154.427 149.174 156.292 151.038 158.592 151.038Z" fill="#F2F2F2"/>
<path d="M52.4021 166.307C54.702 166.307 56.5664 164.443 56.5664 162.143C56.5664 159.843 54.702 157.979 52.4021 157.979C50.1022 157.979 48.2378 159.843 48.2378 162.143C48.2378 164.443 50.1022 166.307 52.4021 166.307Z" fill="#F2F2F2"/>
<path d="M139.158 28.5381C141.458 28.5381 143.323 26.6737 143.323 24.3738C143.323 22.0739 141.458 20.2095 139.158 20.2095C136.859 20.2095 134.994 22.0739 134.994 24.3738C134.994 26.6737 136.859 28.5381 139.158 28.5381Z" fill="#F2F2F2"/>
<path d="M145.991 93.7389C145.451 93.9734 144.866 94.0867 144.278 94.0708C143.69 94.0549 143.112 93.9102 142.586 93.647C142.06 93.3837 141.597 93.0082 141.232 92.547C140.866 92.0858 140.607 91.5501 140.47 90.9775L126.238 89.5397L130.934 83.7769L143.729 86.0258C144.706 85.861 145.709 86.0603 146.549 86.5859C147.389 87.1115 148.007 87.927 148.286 88.8777C148.564 89.8285 148.485 90.8484 148.062 91.7444C147.639 92.6403 146.902 93.35 145.991 93.7389Z" fill="#9E616A"/>
<path d="M137.237 91.453L104.024 88.3928L103.978 88.3404L79.7382 60.5657C78.143 58.1217 77.5424 55.1603 78.0593 52.2879C78.5763 49.4155 80.1717 46.8494 82.519 45.115C83.8178 44.1577 85.3045 43.4864 86.8814 43.1452C88.4584 42.8039 90.0897 42.8006 91.668 43.1353C93.2463 43.4699 94.7358 44.1351 96.0385 45.0869C97.3412 46.0388 98.4276 47.2558 99.2261 48.6577L114.156 74.8736L137.603 84.2943L137.237 91.453Z" fill="#E6E6E6"/>
<path d="M220.601 38.0399C219.776 31.9899 218.741 25.4943 214.474 21.1269C213.12 19.7412 211.5 18.6439 209.71 17.9014C207.921 17.1589 205.999 16.7864 204.062 16.8064C202.125 16.8265 200.211 17.2386 198.438 18.0181C196.664 18.7975 195.066 19.928 193.741 21.3415C190.635 24.6552 189.264 29.3081 189.138 33.8482C189.012 38.3884 190.024 42.8781 191.145 47.2793C197.082 47.3979 202.974 46.2381 208.422 43.8787C209.785 43.2873 211.125 42.6188 212.565 42.2524C214.004 41.8861 215.03 42.808 216.369 43.4508L217.104 42.0435C217.706 43.1632 219.569 42.8313 220.245 41.7547C220.92 40.6781 220.772 39.2993 220.601 38.0399Z" fill="#2F2E41"/>
<path d="M197.07 71.8085L172.821 72.3271C172.449 71.6834 171.898 71.1618 171.234 70.8257C170.571 70.4897 169.824 70.3537 169.085 70.4343C168.346 70.515 167.646 70.8087 167.07 71.2799C166.495 71.751 166.069 72.3793 165.844 73.0881C165.619 73.797 165.605 74.5559 165.804 75.2725C166.003 75.9891 166.405 76.6326 166.963 77.1246C167.52 77.6166 168.209 77.9359 168.945 78.0437C169.681 78.1514 170.432 78.043 171.107 77.7316C174.323 77.9144 199.484 81.4855 200.985 79.1841C202.509 76.8482 210.641 68.6046 210.641 68.6046L204.39 59.7056L197.07 71.8085Z" fill="#9E616A"/>
<path d="M202.979 44.0255C209.271 44.0255 214.372 38.9247 214.372 32.6326C214.372 26.3405 209.271 21.2397 202.979 21.2397C196.687 21.2397 191.586 26.3405 191.586 32.6326C191.586 38.9247 196.687 44.0255 202.979 44.0255Z" fill="#9E616A"/>
<path d="M221.226 54.5539C219.884 51.8819 219.231 48.5809 216.369 47.7146C214.436 47.1297 206.619 48.0063 204.857 48.9937C201.927 50.6363 204.582 53.7141 202.854 56.5943C200.975 59.7254 195.867 66.0091 193.988 69.1401C192.696 71.2927 197.048 77.6108 196.349 80.0222C195.651 82.4335 195.617 85.1399 196.807 87.3504C197.872 89.3289 196.331 91.0792 197.403 93.0544C198.516 95.1087 199.883 102.789 198.847 104.884L198.153 106.966C205.04 107.371 210.831 99.1425 217.676 98.2758C219.376 98.0605 221.141 97.7793 222.542 96.7925C224.605 95.3389 225.421 92.7013 225.931 90.2292C228.385 78.1455 226.729 65.5884 221.226 54.5539Z" fill="#3F3D56"/>
<path d="M231.553 82.7673C230.593 80.1488 228.857 68.7001 228.857 68.7001L217.986 68.3813L223.301 81.4892L208.798 101.791C208.798 101.791 208.825 101.836 208.874 101.915C208.112 101.793 207.33 101.904 206.631 102.233C205.933 102.562 205.35 103.094 204.959 103.76C204.568 104.426 204.387 105.195 204.44 105.965C204.493 106.736 204.777 107.472 205.256 108.078C205.734 108.685 206.385 109.132 207.122 109.363C207.859 109.593 208.648 109.596 209.387 109.37C210.125 109.145 210.778 108.702 211.261 108.099C211.743 107.496 212.033 106.761 212.091 105.991C212.144 106.022 212.207 106.033 212.267 106.022C212.328 106.012 212.383 105.981 212.423 105.934C214.037 103.909 232.512 85.3859 231.553 82.7673Z" fill="#9E616A"/>
<path d="M232.658 75.5373C231.66 71.3262 230.655 67.0923 228.973 63.1049C227.291 59.1175 224.883 55.3513 221.496 52.6575C220.413 51.7963 219.202 51.0361 217.845 50.7684C216.487 50.5006 214.958 50.8003 214.004 51.803C212.479 53.4075 212.938 55.9829 213.497 58.125C215.147 64.441 216.797 70.757 218.447 77.073C223.211 76.568 227.976 76.063 232.74 75.558L232.658 75.5373Z" fill="#3F3D56"/>
<path d="M216.939 34.2126C216.519 31.4565 216.081 28.6774 215.096 26.0823C214.11 23.4872 212.521 21.0565 210.242 19.5864C206.633 17.2589 201.961 17.7078 197.915 19.0466C194.786 20.082 191.732 21.6558 189.526 24.1858C187.319 26.7159 186.08 30.326 186.901 33.6342C191.216 32.6145 195.532 31.5949 199.848 30.5752L199.375 30.909C200.792 31.6156 202.03 32.6358 202.994 33.892C203.958 35.1483 204.623 36.6077 204.938 38.1593C205.247 39.7299 205.203 41.3494 204.809 42.9007C204.415 44.452 203.681 45.8963 202.66 47.1292C205.603 46.085 208.547 45.0409 211.49 43.9968C213.307 43.3523 215.251 42.6097 216.329 40.9567C217.578 39.0401 217.287 36.4998 216.939 34.2126Z" fill="#2F2E41"/>
</g>
<defs>
<clipPath id="clip0_2791_3085">
<rect width="299.38" height="223.757" fill="white"/>
</clipPath>
</defs>
</svg>
