<svg width="20" height="20" viewBox="0 0 20 20" fill="none" xmlns="http://www.w3.org/2000/svg">
<path d="M4.08118 15.2923C4.93118 14.6615 5.85714 14.1635 6.85906 13.7981C7.86097 13.4327 8.92731 13.25 10.0581 13.25C11.1888 13.25 12.2552 13.4327 13.2571 13.7981C14.259 14.1635 15.185 14.6615 16.035 15.2923C16.6568 14.609 17.1494 13.8179 17.5129 12.9192C17.8763 12.0205 18.0581 11.0474 18.0581 9.99998C18.0581 7.78331 17.2789 5.89581 15.7206 4.33748C14.1622 2.77914 12.2747 1.99997 10.0581 1.99997C7.84141 1.99997 5.95391 2.77914 4.39558 4.33748C2.83725 5.89581 2.05808 7.78331 2.05808 9.99998C2.05808 11.0474 2.23981 12.0205 2.60328 12.9192C2.96675 13.8179 3.45938 14.609 4.08118 15.2923ZM10.0581 10.75C9.14526 10.75 8.3754 10.4365 7.74848 9.80958C7.12156 9.18266 6.80811 8.41279 6.80811 7.49998C6.80811 6.58716 7.12156 5.81729 7.74848 5.19038C8.3754 4.56346 9.14526 4.25 10.0581 4.25C10.9709 4.25 11.7408 4.56346 12.3677 5.19038C12.9946 5.81729 13.3081 6.58716 13.3081 7.49998C13.3081 8.41279 12.9946 9.18266 12.3677 9.80958C11.7408 10.4365 10.9709 10.75 10.0581 10.75ZM10.0581 19.5C8.73885 19.5 7.50136 19.2519 6.34561 18.7557C5.18984 18.2596 4.18439 17.5839 3.32926 16.7288C2.47414 15.8737 1.79851 14.8682 1.30236 13.7125C0.806189 12.5567 0.558105 11.3192 0.558105 9.99998C0.558105 8.68074 0.806189 7.44325 1.30236 6.2875C1.79851 5.13173 2.47414 4.12628 3.32926 3.27115C4.18439 2.41603 5.18984 1.7404 6.34561 1.24425C7.50136 0.748083 8.73885 0.5 10.0581 0.5C11.3773 0.5 12.6148 0.748083 13.7706 1.24425C14.9263 1.7404 15.9318 2.41603 16.7869 3.27115C17.642 4.12628 18.3177 5.13173 18.8138 6.2875C19.31 7.44325 19.5581 8.68074 19.5581 9.99998C19.5581 11.3192 19.31 12.5567 18.8138 13.7125C18.3177 14.8682 17.642 15.8737 16.7869 16.7288C15.9318 17.5839 14.9263 18.2596 13.7706 18.7557C12.6148 19.2519 11.3773 19.5 10.0581 19.5Z" fill="#030203"/>
</svg>
