<svg width="20" height="20" viewBox="0 0 20 20" fill="none" xmlns="http://www.w3.org/2000/svg">
<path d="M4.02308 15.2923C4.87308 14.6616 5.79903 14.1635 6.80095 13.7981C7.80287 13.4327 8.86921 13.25 9.99998 13.25C11.1307 13.25 12.1971 13.4327 13.199 13.7981C14.2009 14.1635 15.1269 14.6616 15.9769 15.2923C16.5987 14.609 17.0913 13.818 17.4548 12.9193C17.8182 12.0205 18 11.0474 18 10C18 7.78334 17.2208 5.89583 15.6625 4.3375C14.1041 2.77917 12.2166 2 9.99998 2C7.78331 2 5.89581 2.77917 4.33748 4.3375C2.77914 5.89583 1.99998 7.78334 1.99998 10C1.99998 11.0474 2.18171 12.0205 2.54518 12.9193C2.90864 13.818 3.40128 14.609 4.02308 15.2923ZM10.0003 10.75C9.08726 10.75 8.31729 10.4366 7.69038 9.8099C7.06346 9.18317 6.75 8.4133 6.75 7.5003C6.75 6.58729 7.06336 5.81732 7.69008 5.1904C8.31681 4.56349 9.08668 4.25003 9.99968 4.25003C10.9127 4.25003 11.6827 4.56339 12.3096 5.1901C12.9365 5.81684 13.25 6.5867 13.25 7.4997C13.25 8.41272 12.9366 9.18268 12.3099 9.8096C11.6831 10.4365 10.9133 10.75 10.0003 10.75ZM9.99998 19.5C8.68074 19.5 7.44325 19.2519 6.2875 18.7557C5.13173 18.2596 4.12628 17.5839 3.27115 16.7288C2.41603 15.8737 1.7404 14.8682 1.24425 13.7125C0.748083 12.5567 0.5 11.3192 0.5 10C0.5 8.68077 0.748083 7.44328 1.24425 6.28753C1.7404 5.13176 2.41603 4.12631 3.27115 3.27118C4.12628 2.41606 5.13173 1.74043 6.2875 1.24428C7.44325 0.74811 8.68074 0.500027 9.99998 0.500027C11.3192 0.500027 12.5567 0.74811 13.7125 1.24428C14.8682 1.74043 15.8737 2.41606 16.7288 3.27118C17.5839 4.12631 18.2596 5.13176 18.7557 6.28753C19.2519 7.44328 19.5 8.68077 19.5 10C19.5 11.3192 19.2519 12.5567 18.7557 13.7125C18.2596 14.8682 17.5839 15.8737 16.7288 16.7288C15.8737 17.5839 14.8682 18.2596 13.7125 18.7557C12.5567 19.2519 11.3192 19.5 9.99998 19.5ZM9.99998 18C10.9025 18 11.7727 17.8548 12.6105 17.5644C13.4484 17.274 14.1923 16.868 14.8423 16.3462C14.1923 15.8436 13.458 15.4519 12.6394 15.1712C11.8208 14.8904 10.941 14.75 9.99998 14.75C9.05894 14.75 8.17753 14.8888 7.35573 15.1663C6.53393 15.4439 5.80123 15.8372 5.15765 16.3462C5.80765 16.868 6.55157 17.274 7.3894 17.5644C8.22722 17.8548 9.09741 18 9.99998 18ZM9.99998 9.25003C10.4974 9.25003 10.9134 9.08272 11.2481 8.7481C11.5827 8.41347 11.75 7.99744 11.75 7.5C11.75 7.00257 11.5827 6.58653 11.2481 6.2519C10.9134 5.91728 10.4974 5.74998 9.99998 5.74998C9.50254 5.74998 9.08651 5.91728 8.75187 6.2519C8.41726 6.58653 8.24995 7.00257 8.24995 7.5C8.24995 7.99744 8.41726 8.41347 8.75187 8.7481C9.08651 9.08272 9.50254 9.25003 9.99998 9.25003Z" fill="#1C1B1F"/>
</svg>
