<svg width="22" height="18" viewBox="0 0 22 18" fill="none" xmlns="http://www.w3.org/2000/svg">
<path d="M2.3077 15.5C1.80257 15.5 1.375 15.325 1.025 14.975C0.675 14.625 0.5 14.1974 0.5 13.6922V2.3077C0.5 1.80257 0.675 1.375 1.025 1.025C1.375 0.675 1.80257 0.5 2.3077 0.5H17.6923C18.1974 0.5 18.625 0.675 18.975 1.025C19.325 1.375 19.5 1.80257 19.5 2.3077V7.5961H1.99998V13.6922C1.99998 13.7692 2.03202 13.8397 2.09613 13.9038C2.16024 13.9679 2.23077 14 2.3077 14H11.5961V15.5H2.3077ZM1.99998 4.40385H18V2.3077C18 2.23077 17.9679 2.16024 17.9038 2.09613C17.8397 2.03203 17.7692 1.99997 17.6923 1.99997H2.3077C2.23077 1.99997 2.16024 2.03203 2.09613 2.09613C2.03202 2.16024 1.99998 2.23077 1.99998 2.3077V4.40385ZM17.25 17.75V14.75H14.25V13.25H17.25V10.25H18.75V13.25H21.75V14.75H18.75V17.75H17.25Z" fill="#1C1B1F"/>
</svg>
