<svg width="34" height="40" viewBox="0 0 34 40" fill="none" xmlns="http://www.w3.org/2000/svg">
<g clip-path="url(#clip0_331_260)">
<path d="M8.80807 38.9262C8.00231 38.6577 7.19655 38.1208 6.65938 37.047C6.12221 36.5101 5.58504 35.7047 4.77928 34.6309C3.70493 33.0201 2.63059 30.8725 1.82483 28.7248C1.01907 26.3087 0.750488 23.8926 0.750488 21.4765C0.750488 18.7919 1.28766 16.6443 2.362 14.7651C3.16776 13.1544 4.51069 12.0805 5.85362 11.0067C7.19655 10.2013 8.80807 9.66443 10.4196 9.66443C10.9568 9.66443 11.4939 9.66443 12.2997 9.93289C12.8369 9.93289 13.374 10.2013 14.1798 10.4698C14.9855 10.7383 15.5227 11.0067 15.7913 11.0067C16.3285 11.2752 16.8656 11.2752 17.1342 11.2752C17.4028 11.2752 17.6714 11.2752 18.2086 11.0067C18.4772 11.0067 19.0143 10.7383 19.5515 10.4698C20.0887 10.2013 20.6258 9.93289 21.163 9.93289C21.7002 9.93289 22.2374 9.66443 22.7745 9.66443C23.3117 9.66443 24.1175 9.39597 24.6546 9.66443C25.729 9.66443 26.8033 9.93289 27.8777 10.4698C29.4892 11.0067 30.8321 12.349 31.9065 13.6913C31.6379 13.6913 31.1007 13.9597 30.8321 14.4966C30.0264 15.302 29.2206 16.1074 28.6834 16.9128C28.1463 18.255 27.6091 19.5973 27.6091 21.2081C27.6091 23.0872 28.1463 24.698 28.952 26.0403C29.4892 27.1141 30.5635 27.9195 31.3693 28.4564C32.175 28.7248 32.7122 28.9933 32.9808 29.2617C32.9808 29.7987 32.7122 30.604 32.4436 30.8725C31.9065 32.4832 31.1007 33.557 30.2949 34.8993C29.4892 35.9732 28.952 36.7785 28.6834 37.047C27.8777 37.8524 27.3405 38.6577 26.5347 38.9262C25.9976 39.4631 25.1918 39.7315 24.1175 39.7315C23.5803 39.7315 23.0431 39.7315 22.506 39.4631C22.2374 39.4631 21.7002 39.1946 21.163 38.9262C20.3573 38.6577 20.0887 38.3893 19.5515 38.3893C19.0143 38.1208 18.2086 38.1208 17.6714 38.1208C17.1342 38.1208 16.3285 38.1208 15.7913 38.3893C15.2541 38.3893 14.717 38.6577 14.1798 38.9262C13.374 39.1946 13.1054 39.4631 12.8369 39.4631C12.2997 39.7315 11.7625 39.7315 11.2253 39.7315C10.4196 39.7315 9.61382 39.4631 8.80807 38.9262ZM20.0887 8.32215C19.0143 8.85906 17.94 9.12752 16.8656 9.12752C16.5971 8.05369 16.8656 6.97987 17.4028 5.63758C17.94 4.56376 18.2086 3.75839 19.0143 2.95302C19.8201 2.14765 20.6258 1.34228 21.7002 0.80537C22.7745 0.268457 23.8489 0 24.9232 0C24.9232 1.07383 24.6546 2.14765 24.3861 3.48993C24.1175 4.56376 23.3117 5.36913 22.7745 6.1745C21.9688 7.24832 21.163 7.78523 20.0887 8.32215Z" fill="#555555"/>
</g>
<defs>
<clipPath id="clip0_331_260">
<rect width="32.4989" height="40" fill="white" transform="translate(0.750488)"/>
</clipPath>
</defs>
</svg>
