<svg width="390" height="140" viewBox="0 0 390 140" fill="none" xmlns="http://www.w3.org/2000/svg">
<path opacity="0.7" fill-rule="evenodd" clip-rule="evenodd" d="M94.657 36.0895C113.87 8.69303 152.598 -2.08686 183.488 0.786585C188.34 1.23798 195.291 2.4066 201.393 5.04492C207.382 7.634 213.539 12.0952 214.849 19.6293C215.978 26.1187 213.801 31.5631 210.625 35.9967C207.584 40.2398 203.427 43.8296 200.015 46.7751L199.811 46.9512C180.419 63.6987 153.521 74.5681 129.515 80.9495C125.702 81.963 121.895 82.9836 118.092 84.0035C112.467 85.5118 106.848 87.0184 101.223 88.4981C108.329 100.971 120.011 109.76 134.058 115.507C160.423 126.292 191.299 133.289 219.517 132.093C260.862 130.341 303.162 114.075 341.742 98.3037C372.13 85.8816 402.16 70.9526 431.835 56.2004C434.597 54.8272 437.356 53.4557 440.112 52.0878C444.445 49.9371 448.818 47.5876 453.255 45.2046C463.747 39.5685 474.589 33.7445 486.069 29.9177C488.031 29.2635 490.153 30.3241 490.807 32.2867C491.461 34.2492 490.401 36.3705 488.438 37.0247C477.589 40.6409 467.679 45.9683 457.455 51.4638C452.884 53.921 448.25 56.4117 443.442 58.7981C440.68 60.1693 437.911 61.5457 435.137 62.9249C405.508 77.6553 375.233 92.7063 344.577 105.238C306.118 120.959 262.668 137.763 219.834 139.578C190.278 140.83 158.314 133.524 131.222 122.44C115.416 115.974 101.751 105.652 93.7464 90.4457C74.4317 95.4211 54.9853 99.9478 34.9277 103.004C7.25133 107.222 -21.1564 106.713 -48.7497 106.22C-50.7926 106.183 -52.8311 106.147 -54.8644 106.112C-82.1296 105.65 -108.124 102.048 -134.049 92.9572C-134.469 92.8095 -134.894 92.6608 -135.322 92.5108C-148.349 87.9461 -164.506 82.2846 -178.928 74.2781C-193.792 66.0264 -207.374 54.9861 -213.69 39.4832C-214.47 37.5674 -213.55 35.3816 -211.634 34.601C-209.719 33.8205 -207.533 34.7409 -206.752 36.6567C-201.383 49.8351 -189.562 59.8064 -175.292 67.7283C-161.439 75.419 -145.807 80.8978 -132.659 85.5059C-132.294 85.6339 -131.931 85.7611 -131.57 85.8877C-106.573 94.6528 -81.4059 98.1698 -54.7375 98.6218C-52.7424 98.6556 -50.7466 98.6912 -48.7505 98.7267C-21.0199 99.2206 6.7785 99.7157 33.7991 95.5982C53.1223 92.6537 71.8668 88.3246 90.629 83.5114C90.4477 83.0313 90.2715 82.547 90.1005 82.0585C87.8383 75.595 87.0327 66.9914 87.6868 58.7367C88.3372 50.528 90.4799 42.0457 94.657 36.0895ZM97.9281 81.6171C103.98 80.0301 110.042 78.405 116.134 76.7719C119.939 75.7518 123.756 74.7285 127.59 73.7095C151.092 67.4621 176.749 56.97 194.915 41.2816C198.507 38.1792 202.046 35.1068 204.535 31.6332C206.948 28.2653 208.15 24.8274 207.469 20.9129C206.815 17.1522 203.621 14.1693 198.421 11.9213C193.335 9.72251 187.258 8.66107 182.794 8.24581C153.518 5.52248 117.931 15.9499 100.79 40.3909C97.7013 44.7959 95.7545 51.7594 95.1548 59.3285C94.5587 66.8516 95.3423 74.3579 97.1714 79.5837C97.4117 80.2705 97.6641 80.9483 97.9281 81.6171Z" fill="black" fill-opacity="0.1"/>
</svg>
