<svg width="24" height="24" viewBox="0 0 24 24" fill="none" xmlns="http://www.w3.org/2000/svg">
<g id="cycle">
<mask id="mask0_2791_3327" style="mask-type:alpha" maskUnits="userSpaceOnUse" x="0" y="0" width="24" height="24">
<rect id="Bounding box" width="24" height="24" fill="#D9D9D9"/>
</mask>
<g mask="url(#mask0_2791_3327)">
<path id="cycle_2" d="M8.53254 18.8267C6.76714 18.1357 5.31938 16.9994 4.18927 15.418C3.05913 13.8366 2.49407 12.0357 2.49407 10.0151C2.49407 9.53694 2.52868 9.06547 2.59792 8.60072C2.66715 8.13597 2.7742 7.68116 2.91907 7.23629L1.25942 8.19977L0.519043 6.90749L4.85172 4.40752L7.35169 8.72479L6.04404 9.48439L4.61712 7.00937C4.41455 7.4786 4.26423 7.9661 4.16614 8.47187C4.06806 8.97765 4.01902 9.49529 4.01902 10.0248C4.01902 11.7312 4.50717 13.2645 5.48347 14.6248C6.45975 15.985 7.72931 16.9466 9.29214 17.5094L8.53254 18.8267ZM15.3555 6.49974V4.99977H18.2056C17.4453 4.04977 16.5235 3.31548 15.4402 2.79689C14.3568 2.27829 13.21 2.01899 11.9998 2.01899C11.0126 2.01899 10.085 2.1847 9.21709 2.51612C8.34914 2.84753 7.56708 3.31004 6.87092 3.90364L6.11132 2.57674C6.92542 1.93571 7.82639 1.4325 8.81422 1.06712C9.80204 0.701734 10.8556 0.519043 11.9748 0.519043C13.285 0.519043 14.5331 0.772885 15.719 1.28057C16.9049 1.78827 17.9504 2.52161 18.8555 3.48059V1.49977H20.3555V6.49974H15.3555ZM15.0998 21.4516L10.7671 18.942L13.2671 14.6344L14.5594 15.3844L13.0671 17.9401C15.0402 17.6696 16.6857 16.787 18.0036 15.2921C19.3216 13.7972 19.9806 12.0414 19.9806 10.0248C19.9806 9.7581 19.9668 9.49816 19.9392 9.24494C19.9117 8.99173 19.8652 8.74333 19.7998 8.49974H21.3344C21.3831 8.74333 21.4196 8.98756 21.444 9.23244C21.4683 9.47733 21.4805 9.7331 21.4805 9.99977C21.4805 12.2113 20.8033 14.1725 19.4488 15.8834C18.0943 17.5943 16.3517 18.7036 14.2209 19.2113L15.8498 20.1594L15.0998 21.4516Z" fill="#1C1B1F"/>
</g>
</g>
</svg>
