<svg width="19" height="20" viewBox="0 0 19 20" fill="none" xmlns="http://www.w3.org/2000/svg">
<path d="M5.82079 19.5576C5.33491 19.5576 4.92178 19.3874 4.58139 19.0471C4.24101 18.7067 4.07082 18.2936 4.07082 17.8077C4.07082 17.3218 4.24101 16.9086 4.58139 16.5683C4.92178 16.2279 5.33491 16.0577 5.82079 16.0577C6.30669 16.0577 6.71983 16.2279 7.06022 16.5683C7.4006 16.9086 7.57079 17.3218 7.57079 17.8077C7.57079 18.2936 7.4006 18.7067 7.06022 19.0471C6.71983 19.3874 6.30669 19.5576 5.82079 19.5576ZM15.5131 19.5576C15.0272 19.5576 14.614 19.3874 14.2737 19.0471C13.9333 18.7067 13.7631 18.2936 13.7631 17.8077C13.7631 17.3218 13.9333 16.9086 14.2737 16.5683C14.614 16.2279 15.0272 16.0577 15.5131 16.0577C15.999 16.0577 16.4121 16.2279 16.7525 16.5683C17.0929 16.9086 17.2631 17.3218 17.2631 17.8077C17.2631 18.2936 17.0929 18.7067 16.7525 19.0471C16.4121 19.3874 15.999 19.5576 15.5131 19.5576ZM4.68232 3.74995L7.21694 9.05767H14.2169L16.9862 4.0192C17.0246 3.94868 17.0278 3.88618 16.9958 3.8317C16.9637 3.7772 16.9093 3.74995 16.8323 3.74995H4.68232ZM5.82079 14.5576C5.15414 14.5576 4.65318 14.2701 4.31792 13.6952C3.98267 13.1202 3.97081 12.5461 4.28234 11.973L5.70929 9.40765L2.07082 1.74995H0.891967C0.685551 1.74995 0.513117 1.67816 0.374667 1.53457C0.236217 1.39099 0.166992 1.21279 0.166992 0.999975C0.166992 0.787158 0.238784 0.608958 0.382367 0.465375C0.52595 0.321791 0.704142 0.25 0.916942 0.25H2.44577C2.61628 0.25 2.77526 0.295191 2.92269 0.385575C3.07013 0.475958 3.18231 0.6032 3.25924 0.7673L3.96307 2.25H17.8476C18.3105 2.25 18.6364 2.41987 18.8255 2.7596C19.0146 3.09935 19.0079 3.45897 18.8053 3.83845L15.6015 9.64225C15.4374 9.93713 15.223 10.1634 14.9583 10.3211C14.6935 10.4788 14.3951 10.5576 14.0631 10.5576H6.76694L5.60924 12.673C5.55796 12.75 5.55636 12.8333 5.60444 12.923C5.65253 13.0128 5.72464 13.0577 5.82079 13.0577H16.5381C16.7445 13.0577 16.9169 13.1295 17.0554 13.2731C17.1938 13.4166 17.2631 13.5948 17.2631 13.8077C17.2631 14.0205 17.1913 14.1987 17.0477 14.3422C16.9041 14.4858 16.7259 14.5576 16.5131 14.5576H5.82079Z" fill="#1C1B1F"/>
</svg>
