<svg width="19" height="20" viewBox="0 0 19 20" fill="none" xmlns="http://www.w3.org/2000/svg">
<path d="M5.6538 19.5576C5.16792 19.5576 4.75478 19.3874 4.4144 19.0471C4.07402 18.7067 3.90383 18.2936 3.90383 17.8077C3.90383 17.3218 4.07402 16.9086 4.4144 16.5683C4.75478 16.2279 5.16792 16.0577 5.6538 16.0577C6.1397 16.0577 6.55284 16.2279 6.89323 16.5683C7.23361 16.9086 7.4038 17.3218 7.4038 17.8077C7.4038 18.2936 7.23361 18.7067 6.89323 19.0471C6.55284 19.3874 6.1397 19.5576 5.6538 19.5576ZM15.3461 19.5576C14.8602 19.5576 14.4471 19.3874 14.1067 19.0471C13.7663 18.7067 13.5961 18.2936 13.5961 17.8077C13.5961 17.3218 13.7663 16.9086 14.1067 16.5683C14.4471 16.2279 14.8602 16.0577 15.3461 16.0577C15.832 16.0577 16.2451 16.2279 16.5855 16.5683C16.9259 16.9086 17.0961 17.3218 17.0961 17.8077C17.0961 18.2936 16.9259 18.7067 16.5855 19.0471C16.2451 19.3874 15.832 19.5576 15.3461 19.5576ZM5.6538 14.5576C4.98715 14.5576 4.48619 14.2701 4.15093 13.6952C3.81568 13.1202 3.80382 12.5461 4.11535 11.973L5.5423 9.40765L1.90383 1.74995H0.724975C0.518558 1.74995 0.346125 1.67816 0.207675 1.53457C0.069225 1.39099 0 1.21279 0 0.999975C0 0.787158 0.0717916 0.608958 0.215375 0.465375C0.358958 0.321791 0.53715 0.25 0.74995 0.25H2.27877C2.44929 0.25 2.60827 0.295191 2.7557 0.385575C2.90313 0.475958 3.01532 0.6032 3.09225 0.7673L3.79608 2.25H17.6807C18.1435 2.25 18.4694 2.41987 18.6585 2.7596C18.8476 3.09935 18.8409 3.45897 18.6383 3.83845L15.4345 9.64225C15.2704 9.93713 15.056 10.1634 14.7913 10.3211C14.5265 10.4788 14.2282 10.5576 13.8961 10.5576H6.59995L5.44225 12.673C5.39097 12.75 5.38937 12.8333 5.43745 12.923C5.48553 13.0128 5.55765 13.0577 5.6538 13.0577H16.3711C16.5775 13.0577 16.7499 13.1295 16.8884 13.2731C17.0268 13.4166 17.0961 13.5948 17.0961 13.8077C17.0961 14.0205 17.0243 14.1987 16.8807 14.3422C16.7371 14.4858 16.5589 14.5576 16.3461 14.5576H5.6538Z" fill="#030203"/>
</svg>
