<svg width="20" height="18" viewBox="0 0 20 18" fill="none" xmlns="http://www.w3.org/2000/svg">
<path d="M5.47498 17.5002C4.09934 17.5002 2.92628 17.0149 1.95578 16.0444C0.985258 15.0739 0.5 13.9008 0.5 12.5252C0.5 11.2009 0.951925 10.0611 1.85577 9.10601C2.75962 8.15087 3.87373 7.63741 5.19808 7.56563C5.26218 7.56563 5.32628 7.57044 5.39038 7.58006C5.45449 7.58967 5.5186 7.60089 5.5827 7.61371L1.92313 0.269531H7.80765L9.99998 4.65418L12.1923 0.269531H18.0768L14.4423 7.55408C14.4999 7.54127 14.5592 7.53165 14.6202 7.52523C14.6811 7.51883 14.7436 7.51563 14.8077 7.51563C16.1282 7.59768 17.2403 8.11626 18.1442 9.07138C19.048 10.0265 19.5 11.1694 19.5 12.5002C19.5 13.8925 19.0147 15.0739 18.0442 16.0444C17.0737 17.0149 15.8923 17.5002 14.5 17.5002C14.3307 17.5002 14.1573 17.4928 13.9798 17.4781C13.8022 17.4633 13.632 17.4329 13.4692 17.3867C14.3218 16.9149 14.9567 16.2335 15.374 15.3425C15.7913 14.4515 16 13.504 16 12.5002C16 10.8246 15.4189 9.40567 14.2567 8.24351C13.0945 7.08132 11.6756 6.50023 9.99998 6.50023C8.32434 6.50023 6.90544 7.08132 5.74328 8.24351C4.58109 9.40567 4 10.8246 4 12.5002C4 13.5246 4.19007 14.4983 4.5702 15.4213C4.95032 16.3444 5.59871 16.9995 6.51538 17.3867C6.34614 17.4329 6.17434 17.4633 5.99998 17.4781C5.82563 17.4928 5.65063 17.5002 5.47498 17.5002ZM9.99998 17.0002C8.74998 17.0002 7.68748 16.5627 6.81248 15.6877C5.93748 14.8127 5.49998 13.7502 5.49998 12.5002C5.49998 11.2502 5.93748 10.1877 6.81248 9.31271C7.68748 8.43771 8.74998 8.00021 9.99998 8.00021C11.25 8.00021 12.3125 8.43771 13.1875 9.31271C14.0625 10.1877 14.5 11.2502 14.5 12.5002C14.5 13.7502 14.0625 14.8127 13.1875 15.6877C12.3125 16.5627 11.25 17.0002 9.99998 17.0002ZM9.99998 15.0002L10.775 13.2752L12.5 12.5002L10.775 11.7252L9.99998 10.0002L9.22498 11.7252L7.49998 12.5002L9.22498 13.2752L9.99998 15.0002Z" fill="#428A0A"/>
</svg>
