<svg width="340" height="254" viewBox="0 0 340 254" fill="none" xmlns="http://www.w3.org/2000/svg">
<g clip-path="url(#clip0_859_13909)">
<path d="M247.624 240.824H240.876L237.665 214.798H247.624V240.824Z" fill="#9E616A"/>
<path d="M251.186 252.515H246.347L245.483 247.947L243.271 252.515H230.437C229.822 252.515 229.223 252.319 228.727 251.954C228.232 251.589 227.866 251.076 227.682 250.489C227.499 249.901 227.509 249.271 227.709 248.689C227.91 248.108 228.291 247.606 228.798 247.256L239.046 240.178V235.559L249.826 236.203L251.186 252.515Z" fill="#2F2E41"/>
<path d="M287.711 232.309L282.296 236.335L264.189 217.367L272.181 211.424L287.711 232.309Z" fill="#9E616A"/>
<path d="M297.546 239.565L293.663 242.452L290.243 239.302L291.194 244.288L280.896 251.946C280.402 252.313 279.804 252.513 279.189 252.516C278.574 252.519 277.974 252.326 277.476 251.964C276.979 251.602 276.61 251.09 276.424 250.504C276.238 249.917 276.244 249.287 276.442 248.704L280.443 236.909L277.687 233.202L286.721 227.286L297.546 239.565Z" fill="#2F2E41"/>
<path d="M255.48 106.543C255.48 106.543 268.282 117.604 262.375 149.135L255.164 180.031L278.682 219.047L271.183 228.17L240.609 185.939L229.53 159.951L226.421 113.696L255.48 106.543Z" fill="#2F2E41"/>
<path d="M235.636 167.356L234.866 179.282L237.223 230.101L248.311 228.17L250.431 191.987L235.636 167.356Z" fill="#2F2E41"/>
<path d="M93.3377 246.943L99.372 246.943L102.242 223.668L93.3369 223.669L93.3377 246.943Z" fill="#9E616A"/>
<path d="M91.7979 244.973L93.4963 244.973L100.127 242.277L103.681 244.973H103.682C105.69 244.973 107.616 245.771 109.037 247.191C110.457 248.611 111.255 250.537 111.255 252.546V252.792L91.7982 252.793L91.7979 244.973Z" fill="#2F2E41"/>
<path d="M116.721 243.141L122.606 244.47L130.533 222.399L121.847 220.438L116.721 243.141Z" fill="#9E616A"/>
<path d="M115.654 240.88L117.31 241.254L124.373 240.084L127.245 243.497L127.246 243.497C129.205 243.94 130.908 245.143 131.98 246.841C133.053 248.539 133.407 250.593 132.965 252.553L132.911 252.793L113.932 248.507L115.654 240.88Z" fill="#2F2E41"/>
<path d="M85.6944 104.655C82.8653 113.187 83.1644 122.449 86.3744 132.39L87.7466 188.357C87.7466 188.357 85.7021 225.059 92.2994 237.975H101.867L106.604 185.005L107.199 149.452L127.712 179.447L114.647 237.109L126.422 238.161L147.623 175.585L121.466 114.875L85.6944 104.655Z" fill="#2F2E41"/>
<path d="M196.033 80.3507C203.351 73.756 214.237 70.4401 223.367 74.1379C214.001 79.338 206.776 87.6834 202.971 97.6977C201.517 101.565 200.303 106.018 196.728 108.088C194.503 109.377 191.735 109.44 189.241 108.818C186.747 108.196 184.46 106.949 182.205 105.715L181.563 105.7C184.444 96.2795 188.715 86.9454 196.033 80.3507Z" fill="#E6E6E6"/>
<path d="M223.316 74.3382C215.229 75.3832 207.678 78.9497 201.733 84.5312C200.432 85.71 199.325 87.0866 198.453 88.6102C197.651 90.1218 197.268 91.8205 197.345 93.53C197.385 95.1252 197.61 96.7525 197.261 98.3296C197.07 99.1342 196.712 99.8895 196.209 100.546C195.706 101.202 195.07 101.745 194.342 102.138C192.555 103.165 190.506 103.489 188.491 103.736C186.253 104.01 183.925 104.26 181.988 105.515C181.754 105.667 181.531 105.294 181.766 105.142C185.135 102.958 189.399 103.753 193.023 102.296C194.713 101.616 196.209 100.422 196.739 98.6175C197.202 97.0394 196.971 95.3612 196.917 93.7463C196.818 92.0798 197.128 90.4143 197.821 88.8954C198.613 87.3323 199.665 85.9154 200.932 84.7054C203.742 81.9356 206.97 79.6249 210.498 77.8578C214.512 75.8188 218.846 74.4815 223.312 73.9039C223.589 73.8683 223.591 74.3028 223.316 74.3382Z" fill="white"/>
<path d="M203.542 82.6212C202.741 81.4968 202.366 80.1242 202.483 78.7486C202.601 77.373 203.203 76.0839 204.184 75.1117C204.383 74.9156 204.697 75.2157 204.497 75.412C203.583 76.3157 203.021 77.5165 202.915 78.7977C202.808 80.0788 203.162 81.356 203.915 82.3987C204.078 82.6255 203.704 82.8467 203.542 82.6212Z" fill="white"/>
<path d="M197.219 92.7238C199.998 93.2162 202.86 92.643 205.236 91.1187C205.471 90.9674 205.693 91.3404 205.458 91.4914C202.983 93.0731 200.003 93.6635 197.113 93.1448C196.837 93.0952 196.945 92.6745 197.219 92.7238Z" fill="white"/>
<path d="M214.547 76.3935C214.767 76.8931 215.107 77.3305 215.537 77.6663C215.967 78.0021 216.474 78.2259 217.012 78.3174C217.288 78.3635 217.18 78.7842 216.905 78.7384C216.311 78.6345 215.752 78.3867 215.276 78.0168C214.8 77.6468 214.422 77.1659 214.175 76.6161C214.147 76.5662 214.139 76.5077 214.153 76.4524C214.167 76.3971 214.202 76.3492 214.25 76.3184C214.299 76.2892 214.358 76.2807 214.414 76.2947C214.47 76.3088 214.518 76.3443 214.547 76.3935Z" fill="white"/>
<path d="M233.422 105.941C233.249 105.917 233.075 105.893 232.9 105.872C230.57 105.562 228.219 105.443 225.871 105.515C225.689 105.517 225.505 105.523 225.324 105.53C219.666 105.763 214.102 107.044 208.912 109.308C206.848 110.211 204.855 111.269 202.952 112.475C200.323 114.139 197.605 116.153 194.666 116.832C194.36 116.906 194.05 116.961 193.737 116.997L181.595 106.484C181.58 106.446 181.562 106.411 181.546 106.373L181.042 105.976C181.136 105.907 181.235 105.837 181.328 105.768C181.383 105.728 181.44 105.69 181.494 105.65C181.531 105.624 181.568 105.598 181.6 105.572C181.612 105.563 181.625 105.554 181.635 105.549C181.667 105.523 181.699 105.502 181.729 105.48C182.28 105.089 182.835 104.702 183.393 104.318C183.396 104.315 183.396 104.315 183.401 104.315C187.63 101.349 192.195 98.8943 197.002 97.0036C197.146 96.9492 197.293 96.8918 197.443 96.8421C199.607 96.0372 201.834 95.4106 204.101 94.9685C205.343 94.7304 206.597 94.5553 207.856 94.4439C211.112 94.1625 214.391 94.3948 217.575 95.1325C223.921 96.6039 229.725 100.088 233.163 105.523C233.251 105.662 233.336 105.799 233.422 105.941Z" fill="#E6E6E6"/>
<path d="M233.261 106.071C226.175 102.037 217.998 100.338 209.892 101.215C208.143 101.373 206.43 101.806 204.816 102.497C203.266 103.221 201.938 104.347 200.97 105.758C200.041 107.056 199.241 108.491 198.013 109.54C197.376 110.068 196.635 110.455 195.839 110.676C195.042 110.897 194.207 110.948 193.39 110.824C191.345 110.568 189.513 109.593 187.756 108.576C185.804 107.448 183.795 106.246 181.493 106.082C181.214 106.062 181.261 105.63 181.54 105.65C185.545 105.935 188.471 109.137 192.241 110.155C194.001 110.63 195.914 110.578 197.423 109.455C198.743 108.474 199.569 106.995 200.498 105.673C201.422 104.283 202.673 103.14 204.14 102.344C205.714 101.573 207.407 101.075 209.147 100.872C213.058 100.352 217.027 100.451 220.907 101.164C225.341 101.953 229.606 103.495 233.52 105.722C233.762 105.86 233.502 106.208 233.261 106.071Z" fill="white"/>
<path d="M212.485 100.779C212.523 99.399 213.05 98.0771 213.972 97.0495C214.894 96.022 216.151 95.3556 217.519 95.1695C217.796 95.1328 217.866 95.5614 217.589 95.5981C216.315 95.7691 215.143 96.3899 214.287 97.3486C213.43 98.3072 212.944 99.5405 212.917 100.826C212.911 101.105 212.479 101.057 212.485 100.779Z" fill="white"/>
<path d="M201.354 105.038C203.277 107.105 205.907 108.37 208.721 108.583C209 108.604 208.953 109.036 208.675 109.015C205.747 108.788 203.012 107.465 201.016 105.311C200.826 105.105 201.165 104.834 201.354 105.038Z" fill="white"/>
<path d="M225.022 102.433C224.897 102.964 224.905 103.518 225.046 104.045C225.187 104.572 225.457 105.056 225.832 105.453C226.024 105.656 225.685 105.927 225.493 105.725C225.082 105.284 224.784 104.75 224.627 104.168C224.47 103.586 224.457 102.974 224.591 102.386C224.599 102.33 224.628 102.278 224.672 102.243C224.717 102.207 224.773 102.189 224.83 102.194C224.887 102.2 224.939 102.229 224.975 102.274C225.011 102.319 225.028 102.376 225.022 102.433Z" fill="white"/>
<path d="M20.155 246.521C19.585 248.659 18.0873 250.44 16.2791 251.737C15.9843 251.949 15.6816 252.146 15.375 252.331C15.2807 252.386 15.1863 252.445 15.0881 252.496C14.9819 252.559 14.8758 252.618 14.7697 252.673H6.26712C6.11381 252.362 5.96444 252.048 5.81506 251.737C2.17112 244.08 -0.387895 235.817 0.048435 227.401C0.221543 224.137 0.907358 220.92 2.08071 217.869C4.41566 211.787 8.67676 206.524 14.5377 203.875C14.6832 203.808 14.8365 203.741 14.9859 203.678C14.9387 203.847 14.8915 204.012 14.8443 204.181C14.2156 206.446 13.7712 208.759 13.5157 211.096C13.4921 211.276 13.4725 211.457 13.4567 211.642C12.8983 217.278 13.3942 222.969 14.919 228.423C14.923 228.435 14.9269 228.451 14.9308 228.462C15.265 229.669 15.6528 230.858 16.0944 232.028C16.4403 232.951 16.8137 233.863 17.2225 234.76C18.9286 238.522 21.2163 242.531 20.155 246.521Z" fill="#E6E6E6"/>
<path d="M15.0916 203.855C15.0091 203.965 14.9265 204.071 14.844 204.181C13.1175 206.469 11.6514 208.943 10.4728 211.555C10.4099 211.685 10.351 211.815 10.2999 211.949C8.68504 215.597 7.64797 219.475 7.2259 223.442C7.22133 223.47 7.21871 223.497 7.21804 223.525C7.11977 224.453 7.0608 225.388 7.03722 226.324C6.94981 228.077 7.13951 229.834 7.59933 231.528C8.01861 232.912 8.75331 234.18 9.74561 235.231C9.84388 235.337 9.94215 235.443 10.0483 235.546C10.1269 235.628 10.2134 235.711 10.2959 235.789C11.09 236.548 11.9587 237.252 12.7056 238.065C13.0479 238.43 13.357 238.825 13.6293 239.245C14.0639 239.948 14.3446 240.736 14.453 241.556C14.5614 242.375 14.4951 243.209 14.2583 244.001C13.7237 245.99 12.5012 247.669 11.2511 249.268C10.6261 250.07 9.98146 250.88 9.42327 251.737C9.21888 252.044 9.03019 252.354 8.85725 252.673H8.36195C8.52705 252.354 8.70787 252.044 8.90442 251.737C10.3392 249.477 12.3793 247.535 13.4367 245.047C14.1522 243.368 14.3684 241.466 13.4643 239.819C13.1993 239.34 12.8787 238.894 12.5091 238.49C11.7897 237.676 10.9288 236.98 10.1466 236.245C9.95004 236.061 9.75742 235.872 9.57267 235.675C8.59317 234.68 7.83733 233.488 7.35564 232.177C6.81015 230.512 6.55226 228.767 6.59305 227.016C6.59305 225.899 6.65202 224.775 6.76208 223.659C6.77387 223.517 6.7896 223.372 6.80532 223.226C7.60921 216.201 10.279 209.519 14.5374 203.874C14.616 203.764 14.6986 203.658 14.7811 203.552C14.9501 203.332 15.2607 203.639 15.0916 203.855Z" fill="white"/>
<path d="M6.96476 223.696C5.60322 223.467 4.36729 222.762 3.47771 221.706C2.58813 220.65 2.10282 219.313 2.10845 217.932C2.1092 217.876 2.13177 217.822 2.17141 217.782C2.21106 217.742 2.26467 217.719 2.32096 217.718C2.37725 217.717 2.43181 217.737 2.47317 217.775C2.51452 217.814 2.53942 217.866 2.54264 217.923C2.53502 219.208 2.98721 220.454 3.8176 221.436C4.64798 222.417 5.80186 223.07 7.07097 223.275C7.34671 223.32 7.23892 223.741 6.96476 223.696Z" fill="white"/>
<path d="M9.63722 235.31C11.9504 233.693 13.5692 231.264 14.1708 228.507C14.2302 228.233 14.6511 228.34 14.5918 228.613C13.9604 231.481 12.2707 234.006 9.85981 235.683C9.62991 235.843 9.40857 235.469 9.63722 235.31Z" fill="white"/>
<path d="M10.343 211.509C10.8514 211.708 11.401 211.777 11.9426 211.71C12.4842 211.643 13.0007 211.443 13.4458 211.127C13.6736 210.965 13.8947 211.339 13.6684 211.5C13.175 211.847 12.6043 212.067 12.0061 212.142C11.4079 212.217 10.8004 212.144 10.2368 211.93C10.182 211.915 10.1352 211.879 10.1059 211.83C10.0767 211.781 10.0672 211.723 10.0794 211.667C10.0937 211.611 10.1295 211.563 10.1788 211.534C10.2282 211.504 10.2872 211.496 10.343 211.509Z" fill="white"/>
<path d="M44.5818 219.056C44.4442 219.162 44.3027 219.268 44.1651 219.378C42.2988 220.806 40.5517 222.384 38.9409 224.095C38.8151 224.225 38.6893 224.358 38.5675 224.492L38.5636 224.496C34.7443 228.642 31.7244 233.458 29.6561 238.702L29.6444 238.738C29.6404 238.749 29.6365 238.757 29.6326 238.769C28.8128 240.868 28.1518 243.026 27.6553 245.224C27.1758 247.37 26.7827 249.669 26.0319 251.737C25.9179 252.055 25.7921 252.37 25.6584 252.673H8.18164C8.2406 252.362 8.3035 252.048 8.36639 251.737C9.25543 247.182 10.6449 242.74 12.5096 238.49C12.5725 238.348 12.6353 238.207 12.7061 238.065C13.6687 235.966 14.8006 233.948 16.0906 232.031L16.0909 232.03L16.0917 232.029L16.093 232.028L16.0945 232.028C16.8029 230.982 17.5638 229.973 18.3745 229.005C20.4768 226.503 22.9601 224.349 25.7331 222.621C25.7488 222.609 25.7685 222.601 25.7842 222.589C31.3032 219.166 37.8442 217.534 44.0983 218.945H44.1022C44.2634 218.981 44.4206 219.016 44.5818 219.056Z" fill="#E6E6E6"/>
<path d="M44.5618 219.264C44.4281 219.299 44.2945 219.339 44.1647 219.378C41.4098 220.165 38.7507 221.255 36.2361 222.629C36.1103 222.696 35.9845 222.766 35.8588 222.837C32.3837 224.777 29.2293 227.242 26.5071 230.145C26.505 230.147 26.5036 230.15 26.5032 230.153C26.4718 230.184 26.4364 230.219 26.4089 230.251C25.7799 230.927 25.1746 231.631 24.6007 232.354C23.478 233.702 22.5735 235.219 21.9198 236.847C21.4203 238.204 21.244 239.659 21.4048 241.096C21.4166 241.242 21.4363 241.383 21.4559 241.529C21.4717 241.643 21.4874 241.757 21.507 241.875C21.7665 243.451 22.2146 245.031 22.0888 246.639C22.0123 247.463 21.7622 248.261 21.355 248.981C20.9478 249.701 20.3928 250.327 19.7263 250.817C19.2733 251.168 18.7891 251.475 18.2798 251.737C17.5515 252.113 16.7928 252.426 16.0116 252.673H14.4668C14.6751 252.614 14.8795 252.555 15.0879 252.496C15.8272 252.287 16.5531 252.034 17.2617 251.737C17.6664 251.568 18.0603 251.374 18.4409 251.155C20.0212 250.247 21.338 248.856 21.6132 246.996C21.853 245.369 21.3891 243.742 21.1139 242.15C21.0668 241.875 21.0235 241.603 21 241.332C20.8123 239.953 20.9263 238.551 21.3341 237.22C21.8997 235.561 22.7452 234.011 23.8341 232.637C24.5077 231.742 25.2267 230.883 25.9883 230.062C26.0826 229.956 26.1809 229.85 26.2831 229.744C29.0624 226.82 32.2716 224.337 35.7998 222.381H35.8037C38.4271 220.921 41.2102 219.768 44.0979 218.946H44.1018C44.2316 218.906 44.3652 218.867 44.4949 218.832C44.7662 218.761 44.8291 219.189 44.5618 219.264Z" fill="white"/>
<path d="M26.128 230.211C25.1785 229.209 24.6163 227.902 24.5417 226.523C24.4671 225.145 24.885 223.784 25.7207 222.686C25.8905 222.464 26.2432 222.717 26.0731 222.939C25.293 223.961 24.9039 225.228 24.976 226.512C25.0481 227.796 25.5766 229.011 26.4662 229.939C26.6593 230.141 26.32 230.412 26.128 230.211Z" fill="white"/>
<path d="M21.2693 241.094C24.0897 241.195 26.8448 240.23 28.9853 238.391C29.1972 238.209 29.4691 238.547 29.2575 238.729C27.0265 240.639 24.1573 241.638 21.2225 241.525C20.9428 241.515 20.991 241.083 21.2693 241.094Z" fill="white"/>
<path d="M36.1627 222.515C36.4493 222.98 36.8467 223.366 37.3192 223.639C37.7918 223.911 38.3247 224.063 38.8701 224.079C39.1499 224.086 39.1013 224.517 38.8234 224.51C38.2209 224.49 37.6325 224.322 37.1098 224.022C36.587 223.721 36.1457 223.298 35.8245 222.788C35.7901 222.742 35.7745 222.685 35.7806 222.628C35.7867 222.572 35.8142 222.519 35.8575 222.482C35.9025 222.447 35.9598 222.43 36.0169 222.436C36.0741 222.442 36.1265 222.471 36.1627 222.515Z" fill="white"/>
<path d="M179.399 68.0555C178.996 68.5861 178.481 69.0219 177.891 69.332C177.301 69.6422 176.65 69.8192 175.984 69.8506C175.319 69.882 174.654 69.767 174.037 69.5137C173.421 69.2605 172.867 68.8751 172.416 68.3847L157.557 74.8472L159.004 66.5523L172.892 61.6872C173.766 60.9832 174.868 60.6243 175.989 60.6784C177.11 60.7326 178.172 61.1961 178.975 61.9811C179.777 62.7661 180.263 63.818 180.341 64.9375C180.42 66.0571 180.084 67.1665 179.399 68.0555Z" fill="#9E616A"/>
<path d="M169.483 70.6455L134.971 86.0186L134.897 85.9921L95.5615 71.975C92.6316 70.4437 90.3978 67.8503 89.3176 64.7258C88.2374 61.6013 88.3924 58.1821 89.751 55.1681C90.5041 53.5029 91.6013 52.0161 92.9704 50.8055C94.3395 49.5949 95.9495 48.688 97.6943 48.1445C99.4392 47.6009 101.279 47.4331 103.094 47.652C104.908 47.871 106.656 48.4717 108.221 49.4147L137.494 67.0483L165.88 63.3695L169.483 70.6455Z" fill="#E6E6E6"/>
<path d="M339.12 252.991C339.12 253.053 339.108 253.114 339.084 253.17C339.061 253.227 339.027 253.279 338.983 253.322C338.94 253.366 338.888 253.4 338.831 253.424C338.774 253.447 338.713 253.459 338.652 253.459H0.480467C0.356405 253.459 0.237429 253.41 0.149703 253.322C0.0619782 253.234 0.0126953 253.115 0.0126953 252.991C0.0126953 252.867 0.0619782 252.748 0.149703 252.66C0.237429 252.573 0.356405 252.523 0.480467 252.523H338.652C338.713 252.523 338.774 252.535 338.831 252.559C338.888 252.582 338.94 252.617 338.983 252.66C339.027 252.704 339.061 252.755 339.084 252.812C339.108 252.869 339.12 252.93 339.12 252.991Z" fill="#CCCCCC"/>
<path d="M123.172 116.668L88.3817 111.103C87.4692 110.811 86.6308 110.324 85.924 109.678C85.2172 109.031 84.6587 108.239 84.2869 107.356C83.9152 106.473 83.7389 105.519 83.7701 104.562C83.8014 103.604 84.0396 102.665 84.4682 101.808L86.046 98.652L85.4331 65.4962C85.3592 61.1834 86.4225 56.9272 88.5158 53.1558C90.6092 49.3845 93.6589 46.2309 97.358 44.0124L100.751 41.9838L102.465 37.6296L118.275 38.0153L118.322 43.7258L123.984 52.7544L123.983 52.7918L123.628 101.933L122.068 107.005L124.427 112.904L123.172 116.668Z" fill="#E6E6E6"/>
<path d="M111.818 32.2154C119.752 32.2154 126.183 25.7839 126.183 17.8502C126.183 9.91659 119.752 3.48511 111.818 3.48511C103.885 3.48511 97.4531 9.91659 97.4531 17.8502C97.4531 25.7839 103.885 32.2154 111.818 32.2154Z" fill="#9E616A"/>
<path d="M96.8595 20.9817C96.431 19.1767 96.6277 16.6367 96.8698 14.8192C97.5046 10.0545 100.151 5.52473 104.171 2.8416C104.933 2.26264 105.839 1.90268 106.791 1.80052C107.742 1.76081 108.773 2.26993 109.064 3.17593C109.304 2.57797 109.664 2.03545 110.121 1.58187C110.578 1.12828 111.124 0.773251 111.724 0.538694C112.929 0.0769533 114.225 -0.097666 115.51 0.0286775C117.999 0.233886 120.387 1.10927 122.419 2.56192C124.451 4.01457 126.052 5.99029 127.052 8.27943C127.436 9.19093 128.507 5.82411 128.994 6.68534C129.44 7.58054 130.22 8.26533 131.165 8.59317C132.118 8.85897 132.504 12.7836 132.879 11.8685C133.17 12.5448 133.285 13.2837 133.213 14.0165C133.142 14.7492 132.886 15.4519 132.47 16.0591C132.053 16.6663 131.49 17.1582 130.832 17.4892C130.175 17.8201 129.444 17.9792 128.708 17.9516C127.739 17.9154 126.812 17.5588 125.854 17.4053C122.428 16.8563 118.794 19.3405 118.061 22.7318C117.799 21.7511 117.38 20.8192 116.821 19.972C116.537 19.5506 116.157 19.2031 115.711 18.9585C115.266 18.7138 114.769 18.579 114.261 18.5652C113.286 18.6017 112.429 19.2389 111.797 19.9815C111.164 20.7241 110.69 21.5904 110.052 22.329C108.183 24.4961 105.655 29.5499 102.991 29.1813C100.888 28.8905 97.4445 23.4462 96.8595 20.9817Z" fill="#2F2E41"/>
<path d="M198.654 84.3336C198.755 83.6787 198.62 83.0094 198.274 82.4443C197.928 81.8792 197.393 81.4548 196.764 81.2464L158.079 68.3621C157.708 68.238 157.316 68.1929 156.926 68.2297L147.23 69.1467L141.666 69.6744L131.399 70.6447C130.779 70.704 130.197 70.9673 129.743 71.3934C129.288 71.8195 128.989 72.3843 128.89 72.9992L123.677 105.562C123.578 106.197 123.699 106.847 124.02 107.404C124.34 107.961 124.841 108.392 125.44 108.626L164.529 123.715C164.712 123.786 164.903 123.837 165.097 123.867C165.38 123.913 165.669 123.916 165.953 123.874L191.211 120.13C191.807 120.044 192.359 119.768 192.785 119.343C193.212 118.919 193.49 118.368 193.578 117.772L198.654 84.3336Z" fill="white"/>
<path d="M126.325 106.332L165.414 121.42C165.471 121.442 165.533 121.449 165.594 121.441L190.848 117.698C190.923 117.687 190.993 117.653 191.046 117.6C191.1 117.546 191.135 117.477 191.145 117.402L196.224 83.9633C196.235 83.8817 196.218 83.7986 196.175 83.7282C196.132 83.6578 196.066 83.6045 195.988 83.5775L195.728 83.4895L157.301 70.696C157.283 70.6898 157.265 70.6854 157.246 70.683C157.217 70.6775 157.186 70.6759 157.156 70.6783L133.506 72.9162L131.629 73.0923C131.552 73.1006 131.48 73.1337 131.424 73.1868C131.367 73.2399 131.33 73.3099 131.317 73.3863L126.105 105.948C126.092 106.027 126.107 106.109 126.147 106.179C126.187 106.249 126.25 106.303 126.325 106.332Z" fill="#B1E787"/>
<path d="M133.507 72.9162L157.157 70.6783C157.187 70.6759 157.217 70.6775 157.247 70.683C157.266 70.6854 157.284 70.6898 157.301 70.696L195.729 83.4895L185.592 84.5625L181.799 84.9622L171.004 86.1026C170.973 86.1042 170.941 86.1038 170.91 86.1014C170.891 86.0957 170.871 86.0899 170.848 86.0837L133.507 72.9162Z" fill="#2F2E41"/>
<path d="M125.438 108.629L164.527 123.716C164.711 123.787 164.902 123.837 165.097 123.866C165.38 123.912 165.669 123.916 165.953 123.876L191.208 120.133C191.804 120.046 192.356 119.77 192.783 119.345C193.21 118.92 193.489 118.369 193.578 117.773L198.653 84.3338C198.728 83.8408 198.671 83.3367 198.488 82.8728C198.462 82.8111 198.437 82.7494 198.407 82.6913C198.205 82.2677 197.899 81.9026 197.517 81.6309C197.287 81.4656 197.033 81.3362 196.764 81.247L196.718 81.2308L158.08 68.362C157.923 68.3116 157.761 68.2725 157.598 68.2448C157.375 68.2132 157.148 68.2088 156.924 68.2317L147.229 69.1455L141.666 69.6762L131.397 70.6458C130.977 70.685 130.572 70.819 130.211 71.0378C130.183 71.0513 130.156 71.0673 130.131 71.0855C130.113 71.0972 130.096 71.1101 130.08 71.1241C129.765 71.3391 129.497 71.616 129.293 71.938C129.088 72.2599 128.951 72.6201 128.89 72.9966L123.674 105.562C123.575 106.197 123.697 106.847 124.017 107.405C124.338 107.963 124.839 108.394 125.438 108.629ZM129.582 73.1101C129.646 72.7198 129.819 72.3556 130.082 72.0601C130.161 71.965 130.25 71.8782 130.347 71.8011C130.612 71.5867 130.926 71.4405 131.261 71.3751C131.327 71.3614 131.393 71.352 131.461 71.3468L148.751 69.7134L156.992 68.9292C157.048 68.9227 157.099 68.9237 157.15 68.9207C157.275 68.9181 157.4 68.9274 157.523 68.9484C157.636 68.9631 157.747 68.9896 157.855 69.0275L196.538 81.9125C196.569 81.9233 196.595 81.9338 196.626 81.9446C196.978 82.0755 197.287 82.3003 197.52 82.5947C197.703 82.82 197.838 83.0816 197.914 83.3624C197.99 83.6432 198.005 83.9369 197.96 84.2242L192.881 117.667C192.814 118.113 192.606 118.526 192.287 118.844C191.968 119.163 191.555 119.371 191.109 119.436L165.85 123.179C165.489 123.231 165.12 123.189 164.78 123.057L125.69 107.973C125.242 107.797 124.868 107.473 124.628 107.056C124.388 106.638 124.297 106.151 124.37 105.675L129.582 73.1101Z" fill="#3F3D56"/>
<path d="M129.996 71.3016C130.017 71.2423 130.053 71.1898 130.102 71.1497C130.118 71.1369 130.135 71.1254 130.152 71.1151C130.169 71.1088 130.186 71.0985 130.202 71.0922C130.28 71.0606 130.368 71.0591 130.447 71.088L131.261 71.375L171.008 85.3963L180.311 84.4134L185.517 83.8644L196.535 82.6979L197.52 82.5946L197.711 82.5734C197.794 82.5659 197.877 82.5874 197.945 82.6343C198.013 82.6812 198.063 82.7506 198.086 82.8303C198.091 82.8487 198.095 82.8675 198.096 82.8866C198.104 82.9623 198.088 83.0385 198.049 83.1039C198.01 83.1693 197.95 83.2202 197.88 83.249C197.849 83.2619 197.816 83.2707 197.783 83.2752L196.442 83.4157L185.592 84.5626L181.799 84.9623L171.004 86.1027C170.973 86.1043 170.941 86.1039 170.909 86.1016C170.89 86.0958 170.871 86.09 170.848 86.0838L130.347 71.8011L130.21 71.7524C130.178 71.7421 130.149 71.7259 130.124 71.7047C130.062 71.6597 130.017 71.5964 129.994 71.5239C129.971 71.4515 129.972 71.3736 129.996 71.3016Z" fill="#3F3D56"/>
<path d="M165.204 123.968C165.113 123.953 165.031 123.903 164.976 123.828C164.921 123.753 164.898 123.66 164.912 123.569L170.619 85.7006C170.632 85.6084 170.682 85.5256 170.757 85.4703C170.832 85.415 170.926 85.3917 171.018 85.4055L171.021 85.406C171.113 85.4207 171.195 85.4708 171.25 85.5456C171.304 85.6204 171.327 85.7137 171.313 85.8053L165.607 123.673C165.593 123.765 165.543 123.848 165.468 123.904C165.393 123.959 165.299 123.982 165.207 123.968L165.204 123.968Z" fill="#3F3D56"/>
<path d="M179.668 121.566L175.873 121.966L180.312 84.4124C180.312 84.4124 185.381 83.4947 185.517 83.8627C185.6 84.0824 179.704 121.325 179.668 121.566Z" fill="#3F3D56"/>
<path d="M130.211 71.752L130.108 88.8777L160.426 100.43L171.313 85.8053L130.211 71.752Z" fill="#3F3D56"/>
<path d="M197.521 82.5951C197.268 82.2766 196.927 82.0393 196.54 81.9125L157.857 69.0279C157.749 68.9914 157.637 68.9642 157.524 68.9467C157.401 68.9255 157.276 68.9161 157.15 68.9187L157.213 68.5267L157.6 68.2463L166.786 61.5957L197.463 70.9972L197.516 81.6309L197.521 82.5951Z" fill="#3F3D56"/>
<path d="M131.757 99.2443C131.8 99.2485 131.843 99.2576 131.885 99.2712L143.754 103.169C143.902 103.218 144.025 103.324 144.096 103.464C144.166 103.603 144.179 103.765 144.13 103.914C144.081 104.062 143.975 104.185 143.836 104.256C143.696 104.327 143.534 104.339 143.386 104.29L131.517 100.392C131.379 100.347 131.263 100.252 131.19 100.126C131.118 100.001 131.094 99.8529 131.124 99.7109C131.153 99.569 131.234 99.4429 131.351 99.3568C131.468 99.2707 131.612 99.2307 131.757 99.2443Z" fill="white"/>
<path d="M179.644 171.087C182.249 171.087 184.361 168.975 184.361 166.37C184.361 163.765 182.249 161.653 179.644 161.653C177.039 161.653 174.927 163.765 174.927 166.37C174.927 168.975 177.039 171.087 179.644 171.087Z" fill="#F2F2F2"/>
<path d="M59.3577 188.383C61.9629 188.383 64.0748 186.271 64.0748 183.666C64.0748 181.061 61.9629 178.949 59.3577 178.949C56.7525 178.949 54.6406 181.061 54.6406 183.666C54.6406 186.271 56.7525 188.383 59.3577 188.383Z" fill="#F2F2F2"/>
<path d="M157.63 32.326C160.235 32.326 162.347 30.2141 162.347 27.6089C162.347 25.0038 160.235 22.8918 157.63 22.8918C155.025 22.8918 152.913 25.0038 152.913 27.6089C152.913 30.2141 155.025 32.326 157.63 32.326Z" fill="#F2F2F2"/>
<path d="M165.369 106.182C164.758 106.448 164.096 106.576 163.43 106.558C162.763 106.54 162.109 106.376 161.513 106.078C160.917 105.78 160.393 105.354 159.979 104.832C159.565 104.31 159.271 103.703 159.117 103.054L142.995 101.425L148.314 94.8977L162.807 97.4452C163.914 97.2585 165.051 97.4843 166.002 98.0796C166.953 98.675 167.653 99.5987 167.969 100.676C168.285 101.753 168.195 102.908 167.716 103.923C167.236 104.938 166.402 105.742 165.369 106.182Z" fill="#9E616A"/>
<path d="M155.454 103.593L117.832 100.126L117.78 100.067L90.3225 68.6053C88.5155 65.8369 87.8351 62.4824 88.4207 59.2287C89.0063 55.975 90.8136 53.0683 93.4724 51.1036C94.9436 50.0193 96.6277 49.2589 98.4139 48.8723C100.2 48.4858 102.048 48.482 103.836 48.8611C105.624 49.2402 107.311 49.9937 108.786 51.0719C110.262 52.1501 111.493 53.5286 112.397 55.1166L129.309 84.8124L155.868 95.4836L155.454 103.593Z" fill="#E6E6E6"/>
<path d="M249.883 43.0892C248.949 36.2361 247.777 28.8783 242.944 23.9312C241.41 22.3615 239.574 21.1187 237.547 20.2775C235.52 19.4364 233.344 19.0145 231.149 19.0372C228.955 19.06 226.788 19.5268 224.779 20.4097C222.769 21.2926 220.96 22.5732 219.459 24.1743C215.94 27.9278 214.387 33.1984 214.244 38.3412C214.102 43.484 215.248 48.5697 216.518 53.5552C223.242 53.6895 229.917 52.3757 236.088 49.7031C237.632 49.0333 239.15 48.276 240.781 47.861C242.411 47.446 243.573 48.4903 245.09 49.2184L245.923 47.6243C246.604 48.8926 248.715 48.5167 249.48 47.2971C250.245 46.0776 250.078 44.5158 249.883 43.0892Z" fill="#2F2E41"/>
<path d="M223.23 81.3403L195.762 81.9278C195.34 81.1986 194.716 80.6078 193.964 80.2271C193.213 79.8465 192.367 79.6925 191.53 79.7838C190.692 79.8751 189.899 80.2079 189.248 80.7416C188.596 81.2753 188.113 81.9869 187.859 82.7898C187.604 83.5928 187.588 84.4524 187.813 85.2642C188.038 86.0759 188.494 86.8048 189.126 87.3621C189.758 87.9194 190.538 88.2811 191.371 88.4032C192.204 88.5252 193.055 88.4024 193.82 88.0497C197.463 88.2567 225.964 92.3019 227.664 89.695C229.39 87.049 238.602 77.7112 238.602 77.7112L231.521 67.6309L223.23 81.3403Z" fill="#9E616A"/>
<path d="M229.923 49.8695C237.05 49.8695 242.828 44.0916 242.828 36.9643C242.828 29.8369 237.05 24.0591 229.923 24.0591C222.795 24.0591 217.018 29.8369 217.018 36.9643C217.018 44.0916 222.795 49.8695 229.923 49.8695Z" fill="#9E616A"/>
<path d="M250.593 61.7951C249.072 58.7684 248.333 55.0292 245.091 54.048C242.901 53.3854 234.046 54.3784 232.051 55.4969C228.732 57.3574 231.74 60.8438 229.781 64.1064C227.653 67.6531 221.868 74.7708 219.739 78.3175C218.276 80.7558 223.205 87.9126 222.414 90.644C221.622 93.3754 221.584 96.4411 222.932 98.945C224.139 101.186 222.393 103.169 223.607 105.406C224.868 107.733 226.417 116.433 225.242 118.806L224.456 121.164C232.258 121.623 238.818 112.302 246.571 111.321C248.496 111.077 250.496 110.758 252.083 109.64C254.42 107.994 255.344 105.006 255.922 102.206C258.701 88.5183 256.825 74.2943 250.593 61.7951Z" fill="#3F3D56"/>
<path d="M262.289 93.7541C261.202 90.788 259.235 77.8195 259.235 77.8195L246.922 77.4585L252.942 92.3063L236.514 115.303C236.514 115.303 236.545 115.354 236.6 115.444C235.736 115.305 234.851 115.431 234.06 115.803C233.268 116.176 232.608 116.779 232.165 117.534C231.722 118.288 231.518 119.159 231.578 120.031C231.638 120.904 231.96 121.738 232.502 122.425C233.044 123.112 233.78 123.619 234.615 123.88C235.45 124.141 236.344 124.144 237.181 123.888C238.017 123.633 238.757 123.131 239.304 122.448C239.85 121.765 240.178 120.933 240.244 120.061C240.304 120.095 240.375 120.108 240.444 120.096C240.513 120.084 240.575 120.049 240.621 119.996C242.448 117.702 263.376 96.7202 262.289 93.7541Z" fill="#9E616A"/>
<path d="M263.541 85.5641C262.411 80.794 261.272 75.998 259.367 71.4814C257.461 66.9647 254.734 62.6986 250.897 59.6472C249.67 58.6716 248.299 57.8106 246.761 57.5073C245.224 57.2039 243.491 57.5434 242.411 58.6792C240.683 60.4967 241.203 63.414 241.837 65.8405C243.706 72.9949 245.575 80.1493 247.443 87.3037C252.84 86.7316 258.237 86.1596 263.634 85.5875L263.541 85.5641Z" fill="#3F3D56"/>
<path d="M245.736 38.7543C245.261 35.6324 244.764 32.4844 243.648 29.5448C242.531 26.6052 240.732 23.8519 238.15 22.1866C234.062 19.5501 228.77 20.0586 224.187 21.5752C220.643 22.748 217.183 24.5307 214.684 27.3966C212.184 30.2625 210.781 34.3518 211.71 38.0991C216.599 36.9441 221.488 35.7891 226.376 34.6341L225.841 35.0122C227.446 35.8126 228.848 36.9682 229.94 38.3912C231.032 39.8142 231.785 41.4673 232.143 43.2249C232.492 45.0039 232.442 46.8384 231.996 48.5956C231.549 50.3528 230.718 51.9889 229.562 53.3854C232.896 52.2027 236.23 51.0199 239.564 49.8373C241.622 49.1072 243.824 48.2661 245.045 46.3936C246.459 44.2226 246.131 41.3451 245.736 38.7543Z" fill="#2F2E41"/>
</g>
<defs>
<clipPath id="clip0_859_13909">
<rect width="339.12" height="253.459" fill="white"/>
</clipPath>
</defs>
</svg>
