<svg width="18" height="18" viewBox="0 0 18 18" fill="none" xmlns="http://www.w3.org/2000/svg">
<path d="M16.431 17.4422C14.4861 17.4422 12.5602 16.9807 10.6531 16.0576C8.7461 15.1346 7.04355 13.924 5.54548 12.4259C4.0474 10.9278 2.83522 9.22688 1.90896 7.32305C0.982673 5.41922 0.519531 3.49487 0.519531 1.55C0.519531 1.25 0.619531 1 0.819531 0.8C1.01953 0.6 1.26953 0.5 1.56953 0.5H4.83101C5.08999 0.5 5.31596 0.579808 5.50891 0.739425C5.70184 0.899042 5.82139 1.10513 5.86756 1.3577L6.44063 4.29997C6.48036 4.54612 6.4762 4.76984 6.42813 4.97113C6.38005 5.17241 6.2746 5.34805 6.11178 5.49805L3.82716 7.74613C4.61691 9.08716 5.55602 10.2987 6.64448 11.3808C7.73295 12.4628 8.96821 13.4064 10.3503 14.2115L12.5849 11.9384C12.7477 11.7756 12.9403 11.6599 13.1628 11.5914C13.3852 11.5228 13.6131 11.5083 13.8464 11.5481L16.6233 12.1135C16.8758 12.1699 17.0819 12.292 17.2416 12.4798C17.4012 12.6676 17.481 12.891 17.481 13.15V16.3922C17.481 16.6922 17.381 16.9422 17.181 17.1422C16.981 17.3422 16.731 17.4422 16.431 17.4422Z" fill="#428A0A"/>
</svg>
