<svg width="22" height="19" viewBox="0 0 22 19" fill="none" xmlns="http://www.w3.org/2000/svg">
<path d="M11.3137 18.3653C10.5073 17.7704 9.64065 17.3108 8.71373 16.9865C7.7868 16.6621 6.82654 16.5 5.83296 16.5C5.22271 16.5 4.62336 16.5676 4.03491 16.7028C3.44644 16.8381 2.87913 17.0371 2.33298 17.2999C1.97658 17.464 1.63748 17.4397 1.31568 17.2269C0.993899 17.014 0.833008 16.7127 0.833008 16.323V5.48462C0.833008 5.26924 0.890058 5.0702 1.00416 4.8875C1.11826 4.7048 1.27659 4.57178 1.47916 4.48845C2.15607 4.15897 2.86152 3.91186 3.59548 3.74712C4.32945 3.58237 5.07527 3.5 5.83296 3.5C6.80604 3.5 7.75347 3.63783 8.67526 3.91348C9.59706 4.18913 10.483 4.57695 11.333 5.07695V16.5615C12.1765 16.0282 13.0666 15.6346 14.0032 15.3807C14.9397 15.1269 15.883 15 16.833 15C17.4073 15 17.9499 15.0404 18.4608 15.1211C18.9717 15.2019 19.4996 15.3295 20.0445 15.5038C20.115 15.523 20.1807 15.5246 20.2416 15.5086C20.3025 15.4926 20.333 15.4397 20.333 15.35V4.11925C20.506 4.17053 20.6749 4.22758 20.8397 4.2904C21.0044 4.35322 21.165 4.43206 21.3214 4.52693C21.4919 4.61026 21.6198 4.73205 21.705 4.8923C21.7903 5.05257 21.8329 5.22437 21.8329 5.4077V16.3038C21.8329 16.6935 21.6672 16.9932 21.3358 17.2028C21.0044 17.4124 20.6509 17.4384 20.2752 17.2807C19.7355 17.0243 19.1762 16.8301 18.5974 16.698C18.0185 16.566 17.4304 16.5 16.833 16.5C15.833 16.5 14.8631 16.6573 13.9233 16.972C12.9836 17.2868 12.1137 17.7512 11.3137 18.3653ZM13.333 14V5L18.333 0V9.49998L13.333 14ZM9.83298 15.8365V5.9846C9.20607 5.67435 8.55671 5.43268 7.88491 5.2596C7.21311 5.08652 6.52912 4.99997 5.83296 4.99997C5.21629 4.99997 4.63072 5.05671 4.07623 5.17018C3.52175 5.28363 3.00156 5.44099 2.51566 5.64227C2.46437 5.66151 2.42111 5.68876 2.38586 5.72403C2.35059 5.75928 2.33296 5.80254 2.33296 5.85382V15.3846C2.33296 15.4743 2.36341 15.5272 2.42431 15.5433C2.48521 15.5593 2.55092 15.5545 2.62143 15.5288C3.11502 15.3506 3.62367 15.2179 4.14738 15.1307C4.6711 15.0436 5.23296 15 5.83296 15C6.58041 15 7.29452 15.0772 7.97528 15.2317C8.65607 15.3862 9.2753 15.5878 9.83298 15.8365Z" fill="#1C1B1F"/>
</svg>
