<svg width="22" height="19" viewBox="0 0 22 19" fill="none" xmlns="http://www.w3.org/2000/svg">
<path d="M11.0388 18.3653C10.2324 17.7704 9.36575 17.3108 8.43883 16.9865C7.5119 16.6621 6.55164 16.5 5.55806 16.5C4.94781 16.5 4.34846 16.5676 3.76001 16.7028C3.17154 16.8381 2.60423 17.0371 2.05808 17.2999C1.70168 17.464 1.36258 17.4397 1.04078 17.2269C0.718997 17.014 0.558105 16.7127 0.558105 16.323V5.48462C0.558105 5.26924 0.615155 5.0702 0.729255 4.8875C0.843355 4.7048 1.00169 4.57178 1.20426 4.48845C1.88117 4.15897 2.58661 3.91186 3.32058 3.74712C4.05455 3.58237 4.80037 3.5 5.55806 3.5C6.53114 3.5 7.47857 3.63783 8.40036 3.91348C9.32216 4.18913 10.2081 4.57695 11.0581 5.07695V16.5615C11.9016 16.0282 12.7917 15.6346 13.7283 15.3807C14.6648 15.1269 15.6081 15 16.5581 15C17.1324 15 17.6558 15.0355 18.1282 15.1067C18.6007 15.1778 19.1478 15.3102 19.7696 15.5038C19.8401 15.523 19.9058 15.5246 19.9667 15.5086C20.0276 15.4926 20.0581 15.4397 20.0581 15.35V4.11925C20.2311 4.17053 20.4 4.22758 20.5648 4.2904C20.7295 4.35322 20.8901 4.43206 21.0465 4.52693C21.217 4.61026 21.3449 4.73205 21.4301 4.8923C21.5154 5.05257 21.558 5.22437 21.558 5.4077V16.3038C21.558 16.6935 21.3923 16.9932 21.0609 17.2028C20.7295 17.4124 20.376 17.4384 20.0003 17.2807C19.4606 17.0243 18.9013 16.8301 18.3225 16.698C17.7436 16.566 17.1555 16.5 16.5581 16.5C15.5581 16.5 14.5882 16.6573 13.6484 16.972C12.7087 17.2868 11.8388 17.7512 11.0388 18.3653ZM13.0581 14V5L18.0581 0V9.49998L13.0581 14Z" fill="#030203"/>
</svg>
