<svg width="24" height="24" viewBox="0 0 24 24" fill="none" xmlns="http://www.w3.org/2000/svg">
<g id="workspace_premium">
<mask id="mask0_2791_3308" style="mask-type:alpha" maskUnits="userSpaceOnUse" x="0" y="0" width="24" height="24">
<rect id="Bounding box" width="24" height="24" fill="#D9D9D9"/>
</mask>
<g mask="url(#mask0_2791_3308)">
<path id="workspace_premium_2" d="M9.79997 13.4884L10.6269 10.7731L8.45193 9.09613H11.1577L12 6.3923L12.8423 9.09613H15.548L13.3576 10.7731L14.1846 13.4884L12 11.8L9.79997 13.4884ZM6.5 22.2307V15.073C5.86667 14.4115 5.375 13.6468 5.025 12.7788C4.675 11.9109 4.5 10.9846 4.5 9.99998C4.5 7.90768 5.22692 6.13461 6.68077 4.68078C8.13461 3.22693 9.90767 2.5 12 2.5C14.0923 2.5 15.8653 3.22693 17.3192 4.68078C18.773 6.13461 19.5 7.90768 19.5 9.99998C19.5 10.9846 19.325 11.9109 18.975 12.7788C18.625 13.6468 18.1333 14.4115 17.5 15.073V22.2307L12 20.4807L6.5 22.2307ZM12 16C13.6666 16 15.0833 15.4166 16.25 14.25C17.4166 13.0833 18 11.6666 18 9.99998C18 8.33331 17.4166 6.91664 16.25 5.74998C15.0833 4.58331 13.6666 3.99998 12 3.99998C10.3333 3.99998 8.91664 4.58331 7.74997 5.74998C6.58331 6.91664 5.99997 8.33331 5.99997 9.99998C5.99997 11.6666 6.58331 13.0833 7.74997 14.25C8.91664 15.4166 10.3333 16 12 16ZM7.99997 20.0346L12 18.9615L16 20.0346V16.3192C15.4295 16.691 14.8051 16.9807 14.1269 17.1884C13.4487 17.3961 12.7397 17.5 12 17.5C11.2602 17.5 10.5513 17.3961 9.87305 17.1884C9.19485 16.9807 8.57049 16.691 7.99997 16.3192V20.0346Z" fill="#1C1B1F"/>
</g>
</g>
</svg>
