<svg width="300" height="250" viewBox="0 0 300 250" fill="none" xmlns="http://www.w3.org/2000/svg">
<g clip-path="url(#clip0_461_6537)">
<path d="M13.9112 238.147C18.0639 245.848 26.8774 249.154 26.8774 249.154C26.8774 249.154 28.958 239.974 24.8053 232.272C20.6526 224.571 11.8391 221.265 11.8391 221.265C11.8391 221.265 9.75846 230.445 13.9112 238.147Z" fill="#2F2E41"/>
<path d="M16.7655 235.613C24.2628 240.124 27.1503 249.083 27.1503 249.083C27.1503 249.083 17.8821 250.729 10.3848 246.219C2.88746 241.708 0 232.749 0 232.749C0 232.749 9.26812 231.102 16.7655 235.613Z" fill="#97DF5F"/>
<path d="M184.857 11.9978H138.079V12.6661H184.857V11.9978Z" fill="#F2F2F2"/>
<path d="M172.16 12.499H171.491V18.6804H172.16V12.499Z" fill="#F2F2F2"/>
<path d="M151.778 12.499H151.11V18.6804H151.778V12.499Z" fill="#F2F2F2"/>
<path d="M208.58 44.0742H161.802V44.7425H208.58V44.0742Z" fill="#F2F2F2"/>
<path d="M175.167 38.0599H174.499V44.2413H175.167V38.0599Z" fill="#F2F2F2"/>
<path d="M195.549 38.0599H194.881V44.2413H195.549V38.0599Z" fill="#F2F2F2"/>
<path d="M270.728 59.1101H223.95V59.7784H270.728V59.1101Z" fill="#F2F2F2"/>
<path d="M237.315 53.0958H236.647V59.2772H237.315V53.0958Z" fill="#F2F2F2"/>
<path d="M257.697 53.0958H257.029V59.2772H257.697V53.0958Z" fill="#F2F2F2"/>
<path d="M266.05 214.146H219.272V214.814H266.05V214.146Z" fill="#F2F2F2"/>
<path d="M232.637 208.132H231.969V214.313H232.637V208.132Z" fill="#F2F2F2"/>
<path d="M253.019 208.132H252.351V214.313H253.019V208.132Z" fill="#F2F2F2"/>
<path d="M186.193 106.891H139.415V107.559H186.193V106.891Z" fill="#F2F2F2"/>
<path d="M152.78 100.876H152.112V107.058H152.78V100.876Z" fill="#F2F2F2"/>
<path d="M173.162 100.876H172.494V107.058H173.162V100.876Z" fill="#F2F2F2"/>
<path d="M200.895 187.416H154.117V188.084H200.895V187.416Z" fill="#F2F2F2"/>
<path d="M167.482 181.401H166.814V187.583H167.482V181.401Z" fill="#F2F2F2"/>
<path d="M187.864 181.401H187.196V187.583H187.864V181.401Z" fill="#F2F2F2"/>
<path d="M275.74 163.024H228.962V163.693H275.74V163.024Z" fill="#F2F2F2"/>
<path d="M242.327 157.01H241.659V163.191H242.327V157.01Z" fill="#F2F2F2"/>
<path d="M262.709 157.01H262.041V163.191H262.709V157.01Z" fill="#F2F2F2"/>
<path d="M120.975 234.62H41.8577V234.051H120.405V206.446H48.5088L45.0162 199.169L45.5294 198.923L48.867 205.876H120.975V234.62Z" fill="#2F2E41"/>
<path d="M52.3876 248.566C55.6883 248.566 58.3641 245.89 58.3641 242.589C58.3641 239.288 55.6883 236.613 52.3876 236.613C49.0869 236.613 46.4111 239.288 46.4111 242.589C46.4111 245.89 49.0869 248.566 52.3876 248.566Z" fill="#3F3D56"/>
<path d="M111.299 248.566C114.599 248.566 117.275 245.89 117.275 242.589C117.275 239.288 114.599 236.613 111.299 236.613C107.998 236.613 105.322 239.288 105.322 242.589C105.322 245.89 107.998 248.566 111.299 248.566Z" fill="#3F3D56"/>
<path d="M180.74 119.36C182.783 119.36 184.44 117.703 184.44 115.66C184.44 113.617 182.783 111.96 180.74 111.96C178.696 111.96 177.04 113.617 177.04 115.66C177.04 117.703 178.696 119.36 180.74 119.36Z" fill="#3F3D56"/>
<path d="M129.437 197.054H40.5088L21.2668 134.159H149.253L149.137 134.529L129.437 197.054ZM40.9298 196.485H129.019L148.477 134.728H22.0361L40.9298 196.485Z" fill="#2F2E41"/>
<path d="M122.495 193.781H44.3865L27.4856 138H139.9L139.798 138.329L122.495 193.781Z" fill="#F2F2F2"/>
<path d="M150.848 128.54L150.297 128.394L154.053 114.237H175.902V114.806H154.491L150.848 128.54Z" fill="#2F2E41"/>
<path d="M142.857 153.226H27.4849V153.796H142.857V153.226Z" fill="#2F2E41"/>
<path d="M136.25 174.196H33.9004V174.765H136.25V174.196Z" fill="#2F2E41"/>
<path d="M85.5428 134.443H84.9736V196.769H85.5428V134.443Z" fill="#2F2E41"/>
<path d="M111.027 134.425L106.941 196.75L107.509 196.787L111.595 134.463L111.027 134.425Z" fill="#2F2E41"/>
<path d="M59.5019 134.425L58.9338 134.462L62.996 196.788L63.5641 196.751L59.5019 134.425Z" fill="#2F2E41"/>
<path d="M299.38 248.926H0V249.595H299.38V248.926Z" fill="#2F2E41"/>
<path d="M198.944 20.6746C198.944 20.6746 203.829 34.5764 200.823 36.7152C197.817 38.854 210.968 56.3204 210.968 56.3204L226.748 52.0429L218.106 37.4281C218.106 37.4281 216.979 22.8133 216.979 20.6746C216.979 18.5358 198.944 20.6746 198.944 20.6746Z" fill="#9E616A"/>
<path opacity="0.1" d="M198.944 20.6746C198.944 20.6746 203.829 34.5764 200.823 36.7152C197.817 38.854 210.968 56.3204 210.968 56.3204L226.748 52.0429L218.106 37.4281C218.106 37.4281 216.979 22.8133 216.979 20.6746C216.979 18.5358 198.944 20.6746 198.944 20.6746Z" fill="black"/>
<path d="M190.746 119.77C190.746 119.77 189.32 137.593 190.746 146.861C192.172 156.129 194.31 181.794 194.31 181.794C194.31 181.794 194.31 230.272 202.152 230.985C209.995 231.698 215.698 232.411 216.411 229.559C217.124 226.708 212.846 225.282 214.985 223.856C217.124 222.43 217.837 217.44 214.985 211.736C212.133 206.033 214.985 148.287 214.985 148.287L228.53 184.645C228.53 184.645 229.956 214.588 231.382 218.866C232.808 223.143 229.956 230.985 234.947 231.698C239.937 232.411 245.64 228.133 248.492 226.708C251.344 225.282 244.215 225.282 245.64 224.569C247.066 223.856 251.344 221.717 249.918 221.004C248.492 220.291 247.066 186.071 247.066 186.071C247.066 186.071 243.145 112.997 238.155 110.146C233.164 107.294 229.956 112.206 229.956 112.206L190.746 119.77Z" fill="#2F2E41"/>
<path d="M203.578 228.133V233.837C203.578 233.837 197.162 249.34 203.578 249.34C209.994 249.34 214.985 250.947 214.985 248.808V229.559L203.578 228.133Z" fill="#2F2E41"/>
<path d="M245.64 228.123V233.827C245.64 233.827 252.057 249.33 245.64 249.33C239.224 249.33 234.234 250.937 234.234 248.798V229.549L245.64 228.123Z" fill="#2F2E41"/>
<path d="M208.925 31.0119C216.012 31.0119 221.758 25.2666 221.758 18.1794C221.758 11.0922 216.012 5.34692 208.925 5.34692C201.838 5.34692 196.093 11.0922 196.093 18.1794C196.093 25.2666 201.838 31.0119 208.925 31.0119Z" fill="#9E616A"/>
<path d="M205.004 42.0621C205.004 42.0621 208.569 52.7559 214.272 50.6171L219.975 48.4784L229.956 116.918C229.956 116.918 222.114 128.325 210.707 121.196C199.301 114.067 205.004 42.0621 205.004 42.0621Z" fill="#97DF5F"/>
<path d="M214.985 39.9233L218.193 33.1506C218.193 33.1506 237.085 42.0621 239.937 44.9138C242.789 47.7654 242.789 52.0429 242.789 52.0429L237.798 69.8659C237.798 69.8659 239.224 109.076 239.224 110.502C239.224 111.928 244.214 119.77 240.65 116.918C237.085 114.067 236.372 111.215 233.521 115.493C230.669 119.77 224.253 124.76 224.253 124.76L214.985 39.9233Z" fill="#3F3D56"/>
<path d="M239.937 91.2534L237.798 111.215C237.798 111.215 224.966 122.622 227.817 123.335C230.669 124.048 232.095 121.196 232.095 121.196C232.095 121.196 237.085 126.186 239.937 123.335C242.789 120.483 249.918 93.3922 249.918 93.3922L239.937 91.2534Z" fill="#9E616A"/>
<path d="M209.198 0.0433937C206.354 -0.0583052 203.309 -0.108612 200.911 1.42442C199.807 2.19378 198.839 3.14133 198.046 4.22828C195.71 7.18147 193.692 10.8973 194.559 14.5614L195.567 14.1683C195.567 15.1463 195.35 16.1122 194.931 16.9959C195.073 16.5832 195.548 17.2503 195.421 17.6678L194.311 21.31C196.136 20.641 198.406 21.9956 198.684 23.9195C198.811 19.689 199.249 14.8379 202.681 12.3608C204.412 11.1116 206.602 10.7303 208.709 10.3916C210.654 10.0792 212.692 9.78131 214.554 10.4213C216.416 11.0613 218.001 12.9657 217.579 14.8889C218.438 14.5932 219.398 15.1915 219.822 15.9944C220.247 16.7973 220.269 17.7444 220.282 18.6524C221.197 19.2993 222.239 18.0149 222.612 16.958C223.487 14.4773 224.265 11.8367 223.794 9.24866C223.322 6.66063 221.213 4.18736 218.582 4.17859C218.902 3.82786 219.072 3.36669 219.058 2.89261L216.889 2.7094C217.44 2.63146 217.946 2.36456 218.321 1.95442C217.451 2.91235 210.606 0.093717 209.198 0.0433937Z" fill="#2F2E41"/>
<path d="M208.569 37.7846C208.569 37.7846 202.765 32.0974 200.676 32.4458C198.588 32.7942 195.736 37.7846 195.736 37.7846C195.736 37.7846 178.626 43.4879 179.339 49.1913C180.052 54.8946 187.894 82.6984 187.894 82.6984C187.894 82.6984 194.31 116.205 188.607 119.77C182.904 123.335 215.698 132.603 216.411 128.325C217.124 124.048 218.549 81.2725 216.411 74.8563C214.272 68.44 208.569 37.7846 208.569 37.7846Z" fill="#3F3D56"/>
<path d="M233.521 49.1913H242.336C242.336 49.1913 248.492 76.2821 249.205 79.1338C249.918 81.9855 251.344 95.5309 250.631 95.5309C249.918 95.5309 235.659 92.6792 235.659 94.818L233.521 49.1913Z" fill="#3F3D56"/>
<path d="M233.222 116.277H199.475C196.182 101.128 195.907 86.4906 199.475 72.5061H233.222C227.776 86.2391 227.436 100.776 233.222 116.277Z" fill="#F2F2F2"/>
<path d="M185.755 97.6697L195.736 101.947C195.736 101.947 214.985 104.799 214.985 96.9568C214.985 89.1147 195.736 93.3922 195.736 93.3922L189.32 91.3406L185.755 97.6697Z" fill="#9E616A"/>
<path d="M187.894 44.9138L179.339 47.0526L172.923 84.8372C172.923 84.8372 170.784 94.818 174.349 95.5309C177.913 96.2438 187.894 101.947 187.894 101.947C187.894 101.947 189.32 91.2534 192.171 91.2534L185.042 85.5501L189.32 60.598L187.894 44.9138Z" fill="#3F3D56"/>
<path d="M66.909 117.917H20.1309V118.585H66.909V117.917Z" fill="#F2F2F2"/>
<path d="M33.4959 111.903H32.8276V118.084H33.4959V111.903Z" fill="#F2F2F2"/>
<path d="M53.878 111.903H53.2097V118.084H53.878V111.903Z" fill="#F2F2F2"/>
<path d="M83.2813 19.0145H36.5032V19.6828H83.2813V19.0145Z" fill="#F2F2F2"/>
<path d="M70.5843 19.5157H69.916V25.6971H70.5843V19.5157Z" fill="#F2F2F2"/>
<path d="M50.2024 19.5157H49.5342V25.6971H50.2024V19.5157Z" fill="#F2F2F2"/>
<path d="M130.394 84.8381H83.6155V85.5064H130.394V84.8381Z" fill="#F2F2F2"/>
<path d="M117.697 85.3392H117.028V91.5206H117.697V85.3392Z" fill="#F2F2F2"/>
<path d="M97.3147 85.3392H96.6465V91.5206H97.3147V85.3392Z" fill="#F2F2F2"/>
<path d="M50.8707 84.5039H4.09253V85.1722H50.8707V84.5039Z" fill="#F2F2F2"/>
<path d="M38.1739 85.0051H37.5056V91.1865H38.1739V85.0051Z" fill="#F2F2F2"/>
<path d="M17.7918 85.0051H17.1235V91.1865H17.7918V85.0051Z" fill="#F2F2F2"/>
<path d="M107.004 51.0909H60.2263V51.7592H107.004V51.0909Z" fill="#F2F2F2"/>
<path d="M73.5916 45.0767H72.9233V51.2581H73.5916V45.0767Z" fill="#F2F2F2"/>
<path d="M93.9734 45.0767H93.3052V51.2581H93.9734V45.0767Z" fill="#F2F2F2"/>
</g>
<defs>
<clipPath id="clip0_461_6537">
<rect width="299.38" height="249.919" fill="white"/>
</clipPath>
</defs>
</svg>
