<svg width="20" height="16" viewBox="0 0 20 16" fill="none" xmlns="http://www.w3.org/2000/svg">
<path d="M2.3077 15.5C1.80257 15.5 1.375 15.325 1.025 14.975C0.675 14.625 0.5 14.1974 0.5 13.6923V2.69238C0.5 2.18726 0.675 1.7597 1.025 1.4097C1.375 1.0597 1.80257 0.884705 2.3077 0.884705H8.38462L9.99998 2.50005H17.6923C18.1974 2.50005 18.625 2.67505 18.975 3.02505C19.325 3.37505 19.5 3.80262 19.5 4.30775V13.6923C19.5 14.1974 19.325 14.625 18.975 14.975C18.625 15.325 18.1974 15.5 17.6923 15.5H2.3077ZM14 14H17.6923C17.782 14 17.8557 13.9712 17.9134 13.9135C17.9711 13.8558 18 13.7821 18 13.6923V4.30775C18 4.218 17.9711 4.14428 17.9134 4.08658C17.8557 4.02888 17.782 4.00003 17.6923 4.00003H14V6.00003H16V8.00003H14V10H16V12H14V14ZM2.3077 14H12V12H14V10H12V8.00003H14V6.00003H12V4.00003H9.38653L7.77118 2.38468H2.3077C2.21795 2.38468 2.14423 2.41353 2.08653 2.47123C2.02883 2.52891 1.99998 2.60263 1.99998 2.69238V13.6923C1.99998 13.7821 2.02883 13.8558 2.08653 13.9135C2.14423 13.9712 2.21795 14 2.3077 14Z" fill="#53AD0D"/>
</svg>
