<svg width="40" height="40" viewBox="0 0 40 40" fill="none" xmlns="http://www.w3.org/2000/svg">
<path d="M37.6 20.4167C37.6 19.1167 37.4833 17.8667 37.2667 16.6667H20V23.7583H29.8667C29.4417 26.05 28.15 27.9917 26.2083 29.2917V33.8917H32.1333C35.6 30.7 37.6 26 37.6 20.4167Z" fill="#4285F4"/>
<path d="M20 38.3333C24.95 38.3333 29.1 36.6917 32.1334 33.8917L26.2084 29.2917C24.5667 30.3917 22.4667 31.0417 20 31.0417C15.225 31.0417 11.1834 27.8167 9.7417 23.4833H3.6167V28.2333C6.63337 34.225 12.8334 38.3333 20 38.3333Z" fill="#34A853"/>
<path d="M9.7415 23.4833C9.37484 22.3833 9.16651 21.2083 9.16651 20C9.16651 18.7917 9.37484 17.6167 9.7415 16.5167V11.7667H3.61651C2.33317 14.3214 1.66537 17.141 1.66651 20C1.66651 22.9583 2.37484 25.7583 3.61651 28.2333L9.7415 23.4833Z" fill="#FBBC05"/>
<path d="M20 8.95832C22.6917 8.95832 25.1084 9.88332 27.0084 11.7L32.2667 6.44166C29.0917 3.48332 24.9417 1.66666 20 1.66666C12.8334 1.66666 6.63337 5.77499 3.6167 11.7667L9.7417 16.5167C11.1834 12.1833 15.225 8.95832 20 8.95832Z" fill="#EA4335"/>
</svg>
