<svg width="16" height="18" viewBox="0 0 16 18" fill="none" xmlns="http://www.w3.org/2000/svg">
<path d="M1.99997 17.4998C1.59101 17.4998 1.23877 17.352 0.943275 17.0565C0.647758 16.761 0.5 16.4088 0.5 15.9998V6.99981C0.5 6.76008 0.553208 6.5354 0.659625 6.32578C0.766025 6.11618 0.912175 5.94215 1.09807 5.80368L7.09808 1.28446C7.23653 1.18318 7.38011 1.10882 7.52882 1.06138C7.67754 1.01395 7.83459 0.990234 7.99997 0.990234C8.16536 0.990234 8.32241 1.01395 8.47113 1.06138C8.61984 1.10882 8.76342 1.18318 8.90187 1.28446L14.9019 5.80368C15.0878 5.94215 15.2339 6.11618 15.3403 6.32578C15.4467 6.5354 15.5 6.76008 15.5 6.99981V15.9998C15.5 16.4088 15.3522 16.761 15.0567 17.0565C14.7612 17.352 14.4089 17.4998 14 17.4998H9.90382V10.8075H6.09613V17.4998H1.99997Z" fill="#030203"/>
</svg>
