<svg width="22" height="18" viewBox="0 0 22 18" fill="none" xmlns="http://www.w3.org/2000/svg">
<path d="M6.05765 13.9038C5.55252 13.9038 5.12496 13.7288 4.77498 13.3788C4.42498 13.0288 4.24998 12.6013 4.24998 12.0961V1.98083C4.24998 1.4757 4.42498 1.04813 4.77498 0.698132C5.12496 0.348148 5.55252 0.173157 6.05765 0.173157H11.0192L12.7499 1.90388H19.4422C19.9473 1.90388 20.3749 2.07888 20.7249 2.42888C21.0749 2.77888 21.2499 3.20645 21.2499 3.71158V12.0961C21.2499 12.6013 21.0749 13.0288 20.7249 13.3788C20.3749 13.7288 19.9473 13.9038 19.4422 13.9038H6.05765ZM6.05765 12.4039H19.4422C19.5191 12.4039 19.5897 12.3718 19.6538 12.3077C19.7179 12.2436 19.7499 12.1731 19.7499 12.0961V3.71158C19.7499 3.63465 19.7179 3.56412 19.6538 3.50001C19.5897 3.43591 19.5191 3.40386 19.4422 3.40386H12.1365L10.4057 1.67311H6.05765C5.9743 1.67311 5.90218 1.70356 5.84128 1.76446C5.78038 1.82536 5.74993 1.89748 5.74993 1.98083V12.0961C5.74993 12.1731 5.78198 12.2436 5.8461 12.3077C5.9102 12.3718 5.98072 12.4039 6.05765 12.4039ZM18.2499 17.4038H2.55768C2.05256 17.4038 1.625 17.2288 1.275 16.8788C0.925 16.5288 0.75 16.1012 0.75 15.5961V3.90388H2.24998V15.5961C2.24998 15.673 2.28202 15.7436 2.34613 15.8077C2.41024 15.8718 2.48076 15.9038 2.55768 15.9038H18.2499V17.4038ZM8.06727 10.2692H17.4134L14.3557 6.19233L11.7788 9.53848L10.1634 7.48848L8.06727 10.2692Z" fill="#53AD0D"/>
</svg>
