<svg width="14" height="8" viewBox="0 0 14 8" fill="none" xmlns="http://www.w3.org/2000/svg">
<path d="M6.20543 7.02563H3.69263C2.85554 7.02563 2.14199 6.73067 1.55199 6.14075C0.961992 5.55082 0.666992 4.83737 0.666992 4.00038C0.666992 3.16339 0.961992 2.44981 1.55199 1.85965C2.14199 1.26948 2.85554 0.974396 3.69263 0.974396H6.20543V1.97436H3.69263C3.13279 1.97436 2.65523 2.17201 2.25993 2.56731C1.86463 2.96261 1.66698 3.44018 1.66698 4.00001C1.66698 4.55985 1.86463 5.03741 2.25993 5.43271C2.65523 5.82801 3.13279 6.02566 3.69263 6.02566H6.20543V7.02563ZM4.50033 4.5V3.50003H9.50029V4.5H4.50033ZM7.79519 7.02563V6.02566H10.308C10.8678 6.02566 11.3454 5.82801 11.7407 5.43271C12.136 5.03741 12.3336 4.55985 12.3336 4.00001C12.3336 3.44018 12.136 2.96261 11.7407 2.56731C11.3454 2.17201 10.8678 1.97436 10.308 1.97436H7.79519V0.974396H10.308C11.1451 0.974396 11.8586 1.26936 12.4486 1.85928C13.0386 2.4492 13.3336 3.16266 13.3336 3.99965C13.3336 4.83663 13.0386 5.55021 12.4486 6.14038C11.8586 6.73055 11.1451 7.02563 10.308 7.02563H7.79519Z" fill="#1C1B1F"/>
</svg>
