<svg width="16" height="16" viewBox="0 0 16 16" fill="none" xmlns="http://www.w3.org/2000/svg">
<path d="M8 16C12.4183 16 16 12.4183 16 8C16 3.58172 12.4183 0 8 0C3.58172 0 0 3.58172 0 8C0 12.4183 3.58172 16 8 16Z" fill="#0A66C2"/>
<path d="M10.8297 10.8313H9.64219V8.97188C9.64219 8.52813 9.63281 7.95781 9.02344 7.95781C8.40469 7.95781 8.30938 8.44063 8.30938 8.93906V10.8313H7.12188V7.00625H8.2625V7.52813H8.27813C8.4375 7.22813 8.825 6.91094 9.40313 6.91094C10.6063 6.91094 10.8281 7.70313 10.8281 8.73281L10.8297 10.8313ZM5.78281 6.48281C5.4 6.48281 5.09375 6.17344 5.09375 5.79375C5.09375 5.41406 5.40156 5.10469 5.78281 5.10469C6.16406 5.10469 6.47188 5.41406 6.47188 5.79375C6.47188 6.17344 6.1625 6.48281 5.78281 6.48281ZM6.37813 10.8313H5.1875V7.00625H6.37813V10.8313ZM11.4234 4H4.59219C4.26562 4 4 4.25781 4 4.57813V11.4375C4 11.7563 4.26406 12.0156 4.59219 12.0156H11.4219C11.7484 12.0156 12.0156 11.7578 12.0156 11.4375V4.57813C12.0156 4.25781 11.7484 4 11.4234 4Z" fill="white"/>
</svg>
