<svg width="16" height="20" viewBox="0 0 16 20" fill="none" xmlns="http://www.w3.org/2000/svg">
<path d="M2.3077 19.4999C1.81058 19.4999 1.38502 19.3229 1.03102 18.9689C0.677008 18.6149 0.5 18.1893 0.5 17.6922V8.30765C0.5 7.81053 0.677008 7.38498 1.03102 7.03098C1.38502 6.67696 1.81058 6.49995 2.3077 6.49995H3.5V4.49995C3.5 3.25125 3.93782 2.18908 4.81345 1.31345C5.6891 0.437817 6.75127 0 7.99997 0C9.24867 0 10.3108 0.437817 11.1865 1.31345C12.0621 2.18908 12.5 3.25125 12.5 4.49995V6.49995H13.6922C14.1894 6.49995 14.6149 6.67696 14.9689 7.03098C15.3229 7.38498 15.5 7.81053 15.5 8.30765V17.6922C15.5 18.1893 15.3229 18.6149 14.9689 18.9689C14.6149 19.3229 14.1894 19.4999 13.6922 19.4999H2.3077ZM7.99997 14.7499C8.48587 14.7499 8.89901 14.5797 9.23938 14.2393C9.57976 13.899 9.74995 13.4858 9.74995 12.9999C9.74995 12.514 9.57976 12.1009 9.23938 11.7605C8.89901 11.4201 8.48587 11.2499 7.99997 11.2499C7.51407 11.2499 7.10094 11.4201 6.76058 11.7605C6.42019 12.1009 6.25 12.514 6.25 12.9999C6.25 13.4858 6.42019 13.899 6.76058 14.2393C7.10094 14.5797 7.51407 14.7499 7.99997 14.7499ZM4.99997 6.49995H11V4.49995C11 3.66662 10.7083 2.95828 10.125 2.37495C9.54164 1.79162 8.83331 1.49995 7.99997 1.49995C7.16664 1.49995 6.45831 1.79162 5.87497 2.37495C5.29164 2.95828 4.99997 3.66662 4.99997 4.49995V6.49995Z" fill="#428A0A"/>
</svg>
