<svg width="18" height="18" viewBox="0 0 18 18" fill="none" xmlns="http://www.w3.org/2000/svg">
<path d="M2.40435 18C1.89924 18 1.47168 17.825 1.12168 17.475C0.77168 17.125 0.59668 16.6974 0.59668 16.1923V2.3077C0.59668 1.80257 0.77168 1.375 1.12168 1.025C1.47168 0.675 1.89924 0.5 2.40435 0.5H9.11588V1.99997H2.40435C2.32742 1.99997 2.2569 2.03202 2.1928 2.09613C2.12869 2.16024 2.09663 2.23077 2.09663 2.3077V16.1923C2.09663 16.2692 2.12869 16.3398 2.1928 16.4039C2.2569 16.468 2.32742 16.5 2.40435 16.5H9.11588V18H2.40435ZM13.1351 13.5192L12.0967 12.4346L14.5313 9.99998H6.11588V8.5H14.5313L12.0967 6.0654L13.1351 4.98082L17.4043 9.25L13.1351 13.5192Z" fill="#F8392C"/>
</svg>
