<svg width="46" height="29" viewBox="0 0 46 29" fill="none" xmlns="http://www.w3.org/2000/svg">
<path d="M29.181 3.12598H16.781V25.4321H29.181V3.12598Z" fill="#FF5F00"/>
<path d="M17.5686 14.279C17.5666 12.1308 18.0529 10.0103 18.9907 8.07798C19.9284 6.14569 21.293 4.4523 22.9812 3.12599C20.8906 1.48106 18.3799 0.458102 15.736 0.174038C13.0921 -0.110026 10.4217 0.356256 8.03003 1.51961C5.63835 2.68296 3.62188 4.49645 2.21113 6.75277C0.80037 9.00909 0.0522461 11.6172 0.0522461 14.279C0.0522461 16.9409 0.80037 19.549 2.21113 21.8053C3.62188 24.0616 5.63835 25.8751 8.03003 27.0385C10.4217 28.2018 13.0921 28.6681 15.736 28.384C18.3799 28.1 20.8906 27.077 22.9812 25.4321C21.293 24.1058 19.9284 22.4124 18.9907 20.4801C18.0529 18.5478 17.5666 16.4273 17.5686 14.279Z" fill="#EB001B"/>
<path d="M45.9095 14.279C45.9096 16.9408 45.1615 19.5489 43.7508 21.8052C42.3402 24.0616 40.3238 25.875 37.9321 27.0384C35.5405 28.2018 32.8701 28.6681 30.2263 28.384C27.5824 28.1 25.0717 27.077 22.9812 25.4321C24.6679 24.1044 26.0315 22.4108 26.9691 20.4788C27.9067 18.5468 28.3938 16.4269 28.3938 14.279C28.3938 12.1311 27.9067 10.0113 26.9691 8.07929C26.0315 6.14731 24.6679 4.45364 22.9812 3.12599C25.0717 1.48105 27.5824 0.458095 30.2263 0.174034C32.8701 -0.110027 35.5405 0.356276 37.9321 1.51964C40.3238 2.68301 42.3402 4.49649 43.7508 6.75281C45.1615 9.00913 45.9096 11.6172 45.9095 14.279Z" fill="#F79E1B"/>
<path d="M44.5572 23.0697V22.613H44.7412V22.5199H44.2727V22.613H44.4567V23.0697H44.5572ZM45.4668 23.0697V22.519H45.3232L45.158 22.8978L44.9928 22.519H44.8491V23.0697H44.9505V22.6543L45.1054 23.0124H45.2105L45.3654 22.6534V23.0697H45.4668Z" fill="#F79E1B"/>
</svg>
