<svg width="243" height="237" viewBox="0 0 243 237" fill="none" xmlns="http://www.w3.org/2000/svg">
<g clip-path="url(#clip0_461_11725)">
<path d="M154.038 53.2661H88.6568C87.1669 53.2679 85.7385 53.8606 84.685 54.9141C83.6314 55.9677 83.0388 57.396 83.0369 58.886V204.196L82.2876 204.424L66.2486 209.336C65.4885 209.568 64.6675 209.489 63.9658 209.116C63.2641 208.743 62.7391 208.106 62.506 207.347L14.7973 51.509C14.5651 50.7489 14.6442 49.9276 15.0173 49.2258C15.3903 48.524 16.0268 47.999 16.7867 47.7662L41.5028 40.1982L113.156 18.2659L137.871 10.6979C138.248 10.5821 138.643 10.5416 139.035 10.5788C139.426 10.616 139.807 10.7301 140.155 10.9145C140.502 11.0989 140.81 11.3501 141.061 11.6537C141.311 11.9572 141.499 12.3072 141.614 12.6835L153.809 52.5168L154.038 53.2661Z" fill="#F2F2F2"/>
<path d="M168.305 52.5168L153.607 4.50853C153.362 3.70863 152.962 2.96474 152.43 2.31939C151.898 1.67404 151.244 1.13987 150.506 0.747402C149.767 0.354936 148.958 0.111862 148.125 0.0320793C147.293 -0.047703 146.453 0.0373701 145.653 0.282428L110.904 10.9189L39.2548 32.8549L4.50554 43.4951C2.89127 43.9908 1.53963 45.1067 0.747285 46.5979C-0.0450572 48.0892 -0.213362 49.8339 0.279321 51.449L50.5131 215.522C50.9133 216.825 51.7209 217.967 52.8173 218.778C53.9137 219.589 55.2412 220.027 56.6051 220.029C57.2363 220.029 57.8639 219.934 58.467 219.748L82.2876 212.457L83.0369 212.225V211.442L82.2876 211.67L58.246 219.032C56.8211 219.466 55.2821 219.318 53.9666 218.619C52.6511 217.92 51.6665 216.728 51.2287 215.304L0.998812 51.228C0.781921 50.5225 0.706328 49.7811 0.776361 49.0464C0.846393 48.3116 1.06067 47.5979 1.40693 46.946C1.7532 46.2942 2.22465 45.7171 2.79427 45.2477C3.36389 44.7783 4.02051 44.4259 4.72652 44.2107L39.4757 33.5705L111.125 11.6382L145.874 0.998026C146.41 0.834601 146.966 0.751274 147.526 0.750753C148.728 0.753451 149.897 1.14083 150.862 1.85614C151.828 2.57146 152.539 3.57712 152.891 4.72584L167.522 52.5168L167.754 53.2661H168.533L168.305 52.5168Z" fill="#3F3D56"/>
<path d="M45.963 47.8887C45.2409 47.8882 44.5379 47.6563 43.9573 47.227C43.3766 46.7977 42.9489 46.1936 42.7367 45.5034L37.911 29.741C37.7813 29.3176 37.7363 28.8728 37.7786 28.432C37.8208 27.9912 37.9495 27.563 38.1572 27.172C38.365 26.7809 38.6477 26.4346 38.9893 26.1529C39.3309 25.8711 39.7247 25.6594 40.1481 25.5298L106.065 5.34947C106.92 5.08854 107.843 5.17753 108.633 5.59692C109.422 6.01631 110.013 6.73182 110.276 7.58643L115.102 23.349C115.362 24.2041 115.273 25.1277 114.854 25.9172C114.435 26.7068 113.719 27.2977 112.865 27.5604L46.9481 47.7407C46.6289 47.8387 46.2969 47.8886 45.963 47.8887Z" fill="#97DF5F"/>
<path d="M71.2416 16.8425C75.38 16.8425 78.7347 13.4877 78.7347 9.34942C78.7347 5.2111 75.38 1.85632 71.2416 1.85632C67.1033 1.85632 63.7485 5.2111 63.7485 9.34942C63.7485 13.4877 67.1033 16.8425 71.2416 16.8425Z" fill="#97DF5F"/>
<path d="M71.2419 14.0942C73.8624 14.0942 75.9868 11.9699 75.9868 9.34935C75.9868 6.72884 73.8624 4.60449 71.2419 4.60449C68.6214 4.60449 66.4971 6.72884 66.4971 9.34935C66.4971 11.9699 68.6214 14.0942 71.2419 14.0942Z" fill="white"/>
<path d="M225.781 218.114H99.1475C98.3032 218.113 97.4937 217.777 96.8967 217.18C96.2997 216.583 95.9639 215.774 95.9629 214.93V63.1945C95.9638 62.3501 96.2997 61.5407 96.8967 60.9437C97.4937 60.3466 98.3031 60.0108 99.1475 60.0099H225.781C226.625 60.0109 227.434 60.3467 228.032 60.9437C228.629 61.5407 228.964 62.3502 228.965 63.1945V214.93C228.964 215.774 228.628 216.583 228.031 217.18C227.434 217.777 226.625 218.113 225.781 218.114Z" fill="#E6E6E6"/>
<path d="M167.522 52.5168H88.6567C86.9683 52.5192 85.3496 53.191 84.1557 54.385C82.9618 55.5789 82.29 57.1975 82.2876 58.886V211.67L83.0369 211.442V58.886C83.0387 57.3961 83.6314 55.9677 84.6849 54.9142C85.7384 53.8606 87.1668 53.268 88.6567 53.2662H167.754L167.522 52.5168ZM236.271 52.5168H88.6567C86.9683 52.5192 85.3496 53.191 84.1557 54.385C82.9618 55.5789 82.29 57.1975 82.2876 58.886V230.478C82.29 232.166 82.9618 233.785 84.1557 234.979C85.3496 236.173 86.9683 236.845 88.6567 236.847H236.271C237.959 236.845 239.578 236.173 240.772 234.979C241.966 233.785 242.637 232.166 242.64 230.478V58.886C242.637 57.1975 241.966 55.5789 240.772 54.385C239.578 53.191 237.959 52.5192 236.271 52.5168ZM241.891 230.478C241.889 231.968 241.296 233.396 240.243 234.45C239.189 235.503 237.761 236.096 236.271 236.098H88.6567C87.1668 236.096 85.7384 235.503 84.6849 234.45C83.6314 233.396 83.0387 231.968 83.0369 230.478V58.886C83.0387 57.3961 83.6314 55.9677 84.6849 54.9142C85.7384 53.8606 87.1668 53.268 88.6567 53.2662H236.271C237.761 53.268 239.189 53.8606 240.243 54.9142C241.296 55.9677 241.889 57.3961 241.891 58.886V230.478Z" fill="#3F3D56"/>
<path d="M196.932 69.0015H127.996C127.102 69.0005 126.245 68.645 125.613 68.0128C124.981 67.3807 124.625 66.5236 124.624 65.6297V49.1448C124.625 48.2509 124.981 47.3938 125.613 46.7617C126.245 46.1295 127.102 45.774 127.996 45.7729H196.932C197.826 45.774 198.683 46.1295 199.316 46.7617C199.948 47.3938 200.303 48.2509 200.304 49.1448V65.6297C200.303 66.5236 199.948 67.3807 199.316 68.0128C198.683 68.645 197.826 69.0005 196.932 69.0015Z" fill="#97DF5F"/>
<path d="M162.464 46.897C166.602 46.897 169.957 43.5422 169.957 39.4039C169.957 35.2655 166.602 31.9108 162.464 31.9108C158.325 31.9108 154.971 35.2655 154.971 39.4039C154.971 43.5422 158.325 46.897 162.464 46.897Z" fill="#97DF5F"/>
<path d="M162.464 43.9678C164.985 43.9678 167.028 41.9245 167.028 39.4038C167.028 36.8832 164.985 34.8398 162.464 34.8398C159.943 34.8398 157.9 36.8832 157.9 39.4038C157.9 41.9245 159.943 43.9678 162.464 43.9678Z" fill="white"/>
</g>
<defs>
<clipPath id="clip0_461_11725">
<rect width="242.64" height="236.847" fill="white"/>
</clipPath>
</defs>
</svg>
