<svg width="301" height="280" viewBox="0 0 301 280" fill="none" xmlns="http://www.w3.org/2000/svg">
<g clip-path="url(#clip0_859_12647)">
<path d="M202.221 198.304H94.6029C85.557 198.304 78.1978 190.945 78.1978 181.899V74.2808C78.1978 65.2349 85.557 57.8756 94.6029 57.8756H202.221C211.267 57.8756 218.626 65.2349 218.626 74.2808V181.899C218.626 190.945 211.267 198.304 202.221 198.304ZM94.6029 60.5004C86.9923 60.5004 80.8226 66.6701 80.8226 74.2808V181.899C80.8226 189.51 86.9923 195.679 94.6029 195.679H169.987C195.4 195.679 216.001 175.078 216.001 149.665V74.2808C216.001 66.6701 209.832 60.5004 202.221 60.5004L94.6029 60.5004Z" fill="#F2F2F2"/>
<path d="M106.205 71.6914C101.112 71.6914 96.9681 75.835 96.9681 80.9284V95.3864C96.9681 100.48 101.112 104.623 106.205 104.623H120.663C125.757 104.623 129.9 100.48 129.9 95.3864V80.9284C129.9 75.835 125.757 71.6914 120.663 71.6914H106.205Z" fill="#F2F2F2"/>
<path d="M106.205 112.392C101.112 112.392 96.9681 116.536 96.9681 121.629V136.087C96.9681 141.181 101.112 145.325 106.205 145.325H120.663C125.757 145.325 129.9 141.181 129.9 136.087V121.629C129.9 116.536 125.757 112.392 120.663 112.392H106.205Z" fill="#F2F2F2"/>
<path d="M106.205 153.094C101.112 153.094 96.9681 157.237 96.9681 162.331V176.789C96.9681 181.882 101.112 186.026 106.205 186.026H120.663C125.757 186.026 129.9 181.882 129.9 176.789V162.331C129.9 157.237 125.757 153.094 120.663 153.094H106.205Z" fill="#F2F2F2"/>
<path d="M115.793 36.4169C109.375 36.4169 104.154 41.6379 104.154 48.0558V66.2733C104.154 72.6912 109.375 77.9123 115.793 77.9123H134.01C140.428 77.9123 145.649 72.6912 145.649 66.2733V48.0558C145.649 41.6379 140.428 36.4169 134.01 36.4169H115.793Z" fill="#97DF5F"/>
<path d="M175.769 87.3274C169.351 87.3274 164.13 92.5484 164.13 98.9663V117.184C164.13 123.602 169.351 128.823 175.769 128.823H193.987C200.405 128.823 205.626 123.602 205.626 117.184V98.9663C205.626 92.5484 200.405 87.3274 193.987 87.3274H175.769Z" fill="#97DF5F"/>
<path d="M149.695 270.694L145.994 270.662L144.355 256.055L149.818 256.101L149.695 270.694Z" fill="#9E616A"/>
<path d="M137.84 276.579C137.832 277.49 138.566 278.239 139.481 278.248L146.839 278.309L148.127 275.698L148.6 278.323L151.377 278.348L150.676 268.987L149.71 268.923L145.77 268.652L144.498 268.566L144.476 271.215L138.565 275.224C138.115 275.53 137.845 276.036 137.84 276.579Z" fill="#2F2E41"/>
<path d="M168.524 270.694L164.823 270.662L163.185 256.055L168.647 256.101L168.524 270.694Z" fill="#9E616A"/>
<path d="M156.67 276.579C156.662 277.49 157.396 278.239 158.31 278.248L165.669 278.309L166.957 275.698L167.43 278.323L170.206 278.348L169.505 268.987L168.539 268.923L164.599 268.652L163.328 268.566L163.306 271.215L157.395 275.224C156.945 275.53 156.674 276.036 156.67 276.579Z" fill="#2F2E41"/>
<path d="M135.172 152.59L150.173 153.064L164.385 156.222C164.385 156.222 162.964 157.959 167.702 162.696C167.702 162.696 174.018 173.75 169.596 184.488L167.702 227.44C167.702 227.44 173.226 257.718 169.005 267.355L163.426 267.704L153.985 227.79L149.384 184.804L147.173 227.124C147.173 227.124 155.631 256.172 150.29 267.704L144.247 267.355L133.908 227.124C133.908 227.124 129.487 180.698 130.119 171.855C130.75 163.012 135.172 152.59 135.172 152.59Z" fill="#2F2E41"/>
<path d="M185.551 84.7196C183.5 85.2506 182.268 87.3435 182.799 89.3943C183.042 90.334 183.615 91.0985 184.36 91.6035L184.36 91.6087L184.069 98.6553L189.462 101.151L189.892 90.3073L189.854 90.3084C190.322 89.4754 190.484 88.4691 190.225 87.4713C189.694 85.4206 187.601 84.1886 185.551 84.7196Z" fill="#9E616A"/>
<path d="M155.412 109.869C154.279 108.746 153.622 107.223 153.597 105.568C153.564 103.347 154.677 101.331 156.574 100.176C158.759 98.8456 161.491 98.9803 163.534 100.519L180.467 113.268L183.485 94.9016L189.963 96.9868L188.417 120.903C188.309 122.576 187.363 124.049 185.888 124.845C184.412 125.641 182.661 125.621 181.204 124.792L156.733 110.869C156.242 110.589 155.799 110.252 155.412 109.869Z" fill="#3F3D56"/>
<path d="M129.592 74.4455C130.674 76.2664 130.076 78.6202 128.255 79.7026C127.421 80.1986 126.475 80.3379 125.591 80.1721L125.587 80.176L120.832 85.3849L115.246 83.3605L122.575 75.3569L122.601 75.3842C122.855 74.4634 123.449 73.635 124.335 73.1084C126.156 72.0259 128.509 72.6246 129.592 74.4455Z" fill="#9E616A"/>
<path d="M131.646 113.305L104.465 105.963C102.847 105.525 101.59 104.307 101.102 102.703C100.614 101.099 100.98 99.387 102.081 98.1228L117.822 80.0508L123.89 83.1307L113.102 98.298L134.103 101.166C136.637 101.512 138.672 103.34 139.287 105.823C139.821 107.979 139.192 110.194 137.605 111.748C136.422 112.906 134.883 113.524 133.288 113.524C132.744 113.524 132.192 113.452 131.646 113.305Z" fill="#3F3D56"/>
<path d="M170.396 158.909L132.388 160.652C131.344 159.067 131.626 156.684 133.088 153.699C138.608 142.429 134.416 121.108 131.596 110.006C130.805 106.892 132.929 103.795 136.127 103.475L139.71 103.117L143.023 93.0044H154.625L159.438 98.5032L167.606 103.465C166.12 118.78 159.784 140.406 168.81 151.251C170.784 153.623 171.343 156.188 170.396 158.909Z" fill="#3F3D56"/>
<path d="M147.348 93.2382C153.589 93.2382 158.649 88.1788 158.649 81.9376C158.649 75.6965 153.589 70.6371 147.348 70.6371C141.107 70.6371 136.048 75.6965 136.048 81.9376C136.048 88.1788 141.107 93.2382 147.348 93.2382Z" fill="#9E616A"/>
<path d="M160.136 74.7039C161.708 68.9716 144.572 64.0561 141.242 68.6723C140.779 68.016 139.068 67.6174 138.283 67.8187C137.497 68.02 136.837 68.5233 136.193 69.0105C135.307 69.691 134.389 70.3956 133.845 71.374C133.298 72.3484 133.213 73.6772 133.95 74.5227C134.534 75.1951 135.56 78.7683 136.438 78.9454C137.05 79.0703 137.565 79.1709 138.008 79.2434C138.403 78.6676 139.409 77.9443 139.336 77.2478C139.932 77.6424 139.714 78.3366 139.594 79.0461C139.194 81.4087 130.181 99.698 135.343 94.3086C135.855 94.6105 136.487 94.8924 137.216 95.1501C138.452 93.2858 139.466 91.0874 140.135 88.7883L140.139 88.8308C140.37 90.8288 141.83 92.4682 143.761 93.0278C151.511 95.2728 157.779 91.9786 159.935 86.0381C159.146 84.4356 158.802 84.6096 158.873 84.562C159.858 83.8979 161.212 84.3322 161.636 85.4424C161.761 85.7698 161.874 86.0493 161.972 86.2595C163.096 82.2412 164.432 82.8212 160.136 74.7039Z" fill="#2F2E41"/>
<path d="M154.79 70.5449L153.998 66.4982C153.932 66.158 153.869 65.7889 154.022 65.4781C154.219 65.0787 154.726 64.9132 155.167 64.9768C155.607 65.0405 155.937 65.4431 156.376 65.5206C157.9 65.7902 159.916 64.2841 160.462 68.0942C160.69 69.6828 163.225 69.8506 164.071 71.214C164.918 72.5774 165.022 74.5453 163.867 75.6592C162.944 76.5488 161.462 76.6515 160.264 76.197C159.065 75.7426 158.103 74.8247 157.263 73.8568C156.423 72.8888 155.662 71.8414 154.693 71.0026" fill="#2F2E41"/>
<path d="M160.739 76.7C157.647 76.2681 155.54 75.1435 154.475 73.3578C153.081 71.0202 154.015 68.4463 154.055 68.3379L154.709 68.5808C154.7 68.6045 153.853 70.9606 155.078 73.0067C156.03 74.5983 157.967 75.6087 160.836 76.0095L160.739 76.7Z" fill="#97DF5F"/>
<path d="M175.25 32.9745C166.16 32.9745 158.763 25.5778 158.763 16.4872C158.763 7.39667 166.16 -7.62939e-05 175.25 -7.62939e-05C184.341 -7.62939e-05 191.738 7.39667 191.738 16.4872C191.738 25.5778 184.341 32.9745 175.25 32.9745ZM175.25 6.59485C169.795 6.59485 165.358 11.0322 165.358 16.4872C165.358 21.9422 169.795 26.3796 175.25 26.3796C180.705 26.3796 185.143 21.9422 185.143 16.4872C185.143 11.0322 180.705 6.59485 175.25 6.59485Z" fill="#97DF5F"/>
<path d="M200.617 44.1793C199.809 44.1793 198.999 43.8846 198.363 43.2873L182.889 28.7852C181.559 27.5406 181.491 25.4539 182.737 24.1256C183.98 22.7925 186.067 22.7265 187.397 23.9743L202.871 38.4763C204.201 39.7209 204.269 41.8076 203.023 43.1359C202.374 43.8299 201.496 44.1793 200.617 44.1793Z" fill="#97DF5F"/>
<path d="M270.555 270.324C271.676 270.394 272.295 269.001 271.447 268.189L271.363 267.854C271.374 267.827 271.385 267.8 271.396 267.773C272.53 265.07 276.373 265.088 277.497 267.796C278.495 270.199 279.765 272.606 280.078 275.147C280.218 276.269 280.155 277.411 279.906 278.512C282.244 273.405 283.474 267.828 283.474 262.22C283.474 260.811 283.397 259.402 283.239 257.997C283.11 256.847 282.931 255.704 282.7 254.572C281.448 248.452 278.739 242.623 274.831 237.755C272.952 236.728 271.385 235.122 270.439 233.198C270.099 232.504 269.832 231.757 269.706 230.997C269.92 231.025 270.512 227.769 270.351 227.569C270.649 227.117 271.182 226.892 271.508 226.451C273.126 224.256 275.356 224.639 276.52 227.621C279.007 228.876 279.031 230.958 277.505 232.96C276.534 234.233 276.401 235.956 275.549 237.32C275.637 237.432 275.728 237.541 275.816 237.653C277.422 239.714 278.812 241.929 279.984 244.257C279.653 241.67 280.142 238.554 280.975 236.545C281.924 234.257 283.702 232.329 285.268 230.351C287.149 227.974 291.006 229.011 291.337 232.024C291.341 232.053 291.344 232.082 291.347 232.111C291.114 232.243 290.886 232.382 290.664 232.529C289.394 233.369 289.833 235.337 291.337 235.569L291.371 235.574C291.287 236.412 291.143 237.243 290.933 238.06C292.942 245.828 288.605 248.658 282.412 248.785C282.276 248.855 282.142 248.925 282.006 248.992C282.633 250.759 283.134 252.571 283.506 254.407C283.839 256.03 284.07 257.671 284.2 259.318C284.361 261.396 284.347 263.486 284.172 265.561L284.182 265.487C284.627 263.202 285.868 261.067 287.67 259.588C290.354 257.383 294.146 256.571 297.041 254.799C298.435 253.946 300.221 255.048 299.978 256.664L299.966 256.742C299.535 256.917 299.114 257.12 298.707 257.348C298.475 257.479 298.247 257.619 298.024 257.766C296.755 258.606 297.194 260.574 298.698 260.806L298.732 260.811C298.757 260.815 298.778 260.818 298.802 260.822C298.062 262.578 297.032 264.208 295.742 265.613C294.486 272.395 289.091 273.039 283.32 271.064H283.317C282.686 273.812 281.764 276.497 280.579 279.055H270.8C270.765 278.947 270.733 278.834 270.702 278.726C271.606 278.782 272.517 278.729 273.408 278.565C272.682 277.674 271.956 276.777 271.231 275.887C271.213 275.869 271.199 275.852 271.185 275.834C270.817 275.378 270.446 274.926 270.078 274.471L270.078 274.47C270.054 273.071 270.222 271.677 270.555 270.324Z" fill="#F2F2F2"/>
<path d="M0 279.084C0 279.442 0.287638 279.73 0.645824 279.73H299.278C299.636 279.73 299.924 279.442 299.924 279.084C299.924 278.726 299.636 278.439 299.278 278.439H0.645824C0.287638 278.439 0 278.726 0 279.084Z" fill="#CCCCCC"/>
</g>
<defs>
<clipPath id="clip0_859_12647">
<rect width="300" height="279.73" fill="white"/>
</clipPath>
</defs>
</svg>
