<svg width="20" height="17" viewBox="0 0 20 17" fill="none" xmlns="http://www.w3.org/2000/svg">
<path d="M16 16.6442L14.9558 15.6L16.7712 13.75H12.25V12.25H16.7712L14.9558 10.4L16 9.35577L19.6442 13L16 16.6442ZM2.05768 13.75C1.56056 13.75 1.135 13.5729 0.781 13.2189C0.427 12.8649 0.25 12.4394 0.25 11.9423V2.05768C0.25 1.56056 0.427 1.135 0.781 0.781C1.135 0.427 1.56056 0.25 2.05768 0.25H14.9423C15.4394 0.25 15.865 0.427 16.219 0.781C16.573 1.135 16.75 1.56056 16.75 2.05768V7.31152C16.625 7.29101 16.5 7.27562 16.375 7.26537C16.25 7.25512 16.125 7.25 16 7.25C15.875 7.25 15.75 7.25256 15.625 7.25768C15.5 7.26281 15.375 7.27563 15.25 7.29615V2.823L8.39997 7.69225L1.74995 2.8384V11.9423C1.74995 12.032 1.7788 12.1058 1.8365 12.1635C1.8942 12.2212 1.96792 12.25 2.05768 12.25H10.2961C10.2756 12.375 10.2628 12.5 10.2577 12.625C10.2526 12.75 10.25 12.875 10.25 13C10.25 13.125 10.2551 13.25 10.2654 13.375C10.2756 13.5 10.291 13.625 10.3115 13.75H2.05768ZM2.79607 1.74995L8.39997 5.8577L14.1731 1.74995H2.79607Z" fill="#1C1B1F"/>
</svg>
