<svg width="212" height="250" viewBox="0 0 212 250" fill="none" xmlns="http://www.w3.org/2000/svg">
<g clip-path="url(#clip0_1843_3813)">
<path d="M150.496 209.728L152.589 249.92C152.589 249.92 64.0441 165.645 53.013 140.987C41.9819 116.329 62.7464 55.3335 62.7464 55.3335L108.818 80.6402L150.496 209.728Z" fill="#9E616A"/>
<path d="M14.7283 38.4624L1.10163 39.7602C1.10163 39.7602 -6.03619 55.3336 16.0261 56.6314L14.7283 38.4624Z" fill="#9E616A"/>
<path d="M14.7283 62.4712L1.10163 63.769C1.10163 63.769 -6.03619 79.3424 16.0261 80.6401L14.7283 62.4712Z" fill="#9E616A"/>
<path d="M14.7283 88.4268L1.10163 89.7245C1.10163 89.7245 -6.03619 105.298 16.0261 106.596L14.7283 88.4268Z" fill="#9E616A"/>
<path d="M18.6219 114.383L4.99519 115.681C4.99519 115.681 -2.14264 131.254 19.9197 132.552L18.6219 114.383Z" fill="#9E616A"/>
<path d="M8.09473 44.7187H9.12869V16.3938C9.12869 14.2409 9.55272 12.1091 10.3766 10.1201C11.2004 8.13116 12.408 6.32393 13.9303 4.80163C15.4526 3.27932 17.2598 2.07177 19.2488 1.24791C21.2378 0.424042 23.3696 1.64943e-06 25.5224 0H85.5328C87.6856 -4.39836e-06 89.8174 0.424029 91.8064 1.24789C93.7954 2.07175 95.6026 3.2793 97.1249 4.80159C98.6472 6.32389 99.8548 8.13111 100.679 10.1201C101.503 12.1091 101.927 14.2408 101.927 16.3937V171.787C101.927 173.94 101.503 176.072 100.679 178.06C99.8548 180.049 98.6472 181.857 97.1249 183.379C95.6026 184.901 93.7954 186.109 91.8064 186.933C89.8175 187.757 87.6857 188.181 85.5328 188.181H25.5225C21.1746 188.181 17.0048 186.453 13.9304 183.379C10.8559 180.305 9.12871 176.135 9.1287 171.787V64.881H8.09473V44.7187Z" fill="#3F3D56"/>
<path d="M24.8608 4.26515H32.6942C32.3339 5.14833 32.1964 6.10654 32.2938 7.05538C32.3911 8.00422 32.7203 8.91457 33.2523 9.70622C33.7843 10.4979 34.5029 11.1465 35.3447 11.5951C36.1864 12.0436 37.1256 12.2783 38.0794 12.2783H72.4586C73.4124 12.2783 74.3516 12.0436 75.1933 11.5951C76.0351 11.1465 76.7537 10.4979 77.2857 9.70623C77.8177 8.91457 78.1469 8.00422 78.2442 7.05538C78.3416 6.10654 78.2041 5.14832 77.8438 4.26514H85.1602C88.4071 4.26513 91.5211 5.55498 93.817 7.85092C96.113 10.1469 97.4029 13.2608 97.4029 16.5078V171.673C97.4029 173.281 97.0862 174.873 96.4709 176.358C95.8557 177.843 94.9539 179.193 93.8171 180.33C92.6802 181.467 91.3306 182.368 89.8453 182.984C88.3599 183.599 86.7679 183.916 85.1602 183.916H24.8608C23.2531 183.916 21.6611 183.599 20.1758 182.984C18.6904 182.368 17.3408 181.467 16.204 180.33C15.0671 179.193 14.1653 177.843 13.5501 176.358C12.9348 174.873 12.6182 173.281 12.6182 171.673V16.5078C12.6182 14.9001 12.9348 13.3081 13.5501 11.8227C14.1653 10.3374 15.0671 8.98777 16.204 7.85093C17.3408 6.7141 18.6904 5.81231 20.1758 5.19706C21.6611 4.58181 23.2531 4.26515 24.8608 4.26515Z" fill="white"/>
<path d="M67.9289 47.7349H42.0908V53.9698H67.9289V47.7349Z" fill="#97DF5F"/>
<path d="M69.1596 74.5259H40.8613V80.7608H69.1596V74.5259Z" fill="#E5E5E5"/>
<path d="M86.5896 87.9194H23.4307V94.1544H86.5896V87.9194Z" fill="#E5E5E5"/>
<path d="M86.5896 101.313H23.4307V107.548H86.5896V101.313Z" fill="#E5E5E5"/>
<path d="M211.621 230.661L138.991 147.8L136.395 94.5912L109.142 49.1689L101.355 29.7021C101.355 29.7021 83.1862 31.6488 98.1107 68.6356L104.275 88.4268C98.7184 100.395 95.8396 113.432 95.8396 126.627V171.979C95.8396 182.658 146.728 240.825 152.652 249.71L211.621 230.661Z" fill="#9E616A"/>
<path opacity="0.2" d="M103.492 53.0181L108.91 50.3554L108.725 49.9794L103.719 52.4399L96.1625 32.6274L95.7715 32.7769L103.492 53.0181Z" fill="black"/>
<path opacity="0.2" d="M1.17403 39.5631L1.0293 39.9561L9.05546 42.9126L9.20019 42.5197L1.17403 39.5631Z" fill="black"/>
<path opacity="0.2" d="M1.17403 63.8454L1.0293 64.2383L9.05546 67.1948L9.20019 66.8019L1.17403 63.8454Z" fill="black"/>
<path opacity="0.2" d="M1.17403 89.8029L1.0293 90.1958L9.05546 93.1524L9.20019 92.7595L1.17403 89.8029Z" fill="black"/>
<path opacity="0.2" d="M5.37936 115.768L5.19824 116.145L9.10584 118.02L9.28697 117.643L5.37936 115.768Z" fill="black"/>
<path d="M55.0422 161.355C65.038 161.355 73.1411 153.252 73.1411 143.257C73.1411 133.261 65.038 125.158 55.0422 125.158C45.0465 125.158 36.9434 133.261 36.9434 143.257C36.9434 153.252 45.0465 161.355 55.0422 161.355Z" fill="#97DF5F"/>
<path d="M53.3171 150.897L47.9004 143.932L51.0504 141.481L53.6152 144.779L62.2803 135.632L65.1778 138.378L53.3171 150.897Z" fill="white"/>
</g>
<defs>
<clipPath id="clip0_1843_3813">
<rect width="211.621" height="249.92" fill="white"/>
</clipPath>
</defs>
</svg>
