<svg width="20" height="19" viewBox="0 0 20 19" fill="none" xmlns="http://www.w3.org/2000/svg">
<path d="M6.82685 10.4423H7.71147V8.44228H8.82685C9.07813 8.44228 9.28839 8.35766 9.45763 8.18842C9.62686 8.01921 9.71147 7.80896 9.71147 7.55768V6.44227C9.71147 6.19099 9.62686 5.98074 9.45763 5.81152C9.28839 5.64229 9.07813 5.55768 8.82685 5.55768H6.82685V10.4423ZM7.71147 7.55768V6.44227H8.82685V7.55768H7.71147ZM10.7307 10.4423H12.6922C12.9435 10.4423 13.1538 10.3577 13.323 10.1884C13.4922 10.0192 13.5768 9.80896 13.5768 9.55767V6.44227C13.5768 6.19099 13.4922 5.98074 13.323 5.81152C13.1538 5.64229 12.9435 5.55768 12.6922 5.55768H10.7307V10.4423ZM11.6153 9.55767V6.44227H12.6922V9.55767H11.6153ZM14.6922 10.4423H15.5768V8.44228H16.7692V7.55768H15.5768V6.44227H16.7692V5.55768H14.6922V10.4423ZM6.05765 15.5C5.55252 15.5 5.12496 15.325 4.77498 14.975C4.42498 14.625 4.24998 14.1974 4.24998 13.6922V2.3077C4.24998 1.80257 4.42498 1.375 4.77498 1.025C5.12496 0.675 5.55252 0.5 6.05765 0.5H17.4422C17.9473 0.5 18.3749 0.675 18.7249 1.025C19.0749 1.375 19.2499 1.80257 19.2499 2.3077V13.6922C19.2499 14.1974 19.0749 14.625 18.7249 14.975C18.3749 15.325 17.9473 15.5 17.4422 15.5H6.05765ZM6.05765 14H17.4422C17.5191 14 17.5897 13.9679 17.6538 13.9038C17.7179 13.8397 17.7499 13.7692 17.7499 13.6922V2.3077C17.7499 2.23077 17.7179 2.16024 17.6538 2.09613C17.5897 2.03202 17.5191 1.99997 17.4422 1.99997H6.05765C5.98072 1.99997 5.9102 2.03202 5.8461 2.09613C5.78198 2.16024 5.74993 2.23077 5.74993 2.3077V13.6922C5.74993 13.7692 5.78198 13.8397 5.8461 13.9038C5.9102 13.9679 5.98072 14 6.05765 14ZM2.55768 18.9999C2.05256 18.9999 1.625 18.8249 1.275 18.4749C0.925 18.1249 0.75 17.6973 0.75 17.1922V4.3077H2.24998V17.1922C2.24998 17.2692 2.28202 17.3397 2.34613 17.4038C2.41024 17.4679 2.48076 17.5 2.55768 17.5H15.4422V18.9999H2.55768Z" fill="#53AD0D"/>
</svg>
