<svg width="18" height="18" viewBox="0 0 18 18" fill="none" xmlns="http://www.w3.org/2000/svg">
<path d="M16.0387 8.73072C15.981 6.81277 15.2826 5.18425 13.9435 3.84515C12.6044 2.50605 10.9759 1.80765 9.05796 1.74995V0.25C10.2246 0.275633 11.3169 0.514733 12.3349 0.9673C13.3528 1.41987 14.2419 2.02627 15.0022 2.78653C15.7624 3.54678 16.3688 4.43587 16.8214 5.45382C17.2739 6.47176 17.513 7.56406 17.5387 8.73072H16.0387ZM12.0387 8.73072C11.981 7.92944 11.6701 7.24515 11.106 6.67785C10.5419 6.11053 9.85924 5.80123 9.05796 5.74995V4.25C10.2746 4.30128 11.3111 4.75672 12.1675 5.61632C13.0239 6.47594 13.481 7.51407 13.5387 8.73072H12.0387ZM16.431 17.4422C14.4861 17.4422 12.5602 16.9807 10.6531 16.0576C8.7461 15.1346 7.04355 13.924 5.54548 12.4259C4.0474 10.9278 2.83522 9.22688 1.90896 7.32305C0.982673 5.41922 0.519531 3.49487 0.519531 1.55C0.519531 1.25 0.619531 1 0.819531 0.8C1.01953 0.6 1.26953 0.5 1.56953 0.5H4.83101C5.08999 0.5 5.31596 0.579808 5.50891 0.739425C5.70184 0.899042 5.82139 1.10513 5.86756 1.3577L6.44063 4.29997C6.48036 4.54612 6.4762 4.76984 6.42813 4.97113C6.38005 5.17241 6.2746 5.34805 6.11178 5.49805L3.81178 7.74613C4.60153 9.08716 5.54321 10.2987 6.63681 11.3808C7.73039 12.4628 8.96821 13.4064 10.3503 14.2115L12.5849 11.9384C12.7477 11.7756 12.9403 11.6599 13.1628 11.5914C13.3852 11.5228 13.6131 11.5083 13.8464 11.5481L16.6233 12.1135C16.8758 12.1699 17.0819 12.292 17.2416 12.4798C17.4012 12.6676 17.481 12.891 17.481 13.15V16.3922C17.481 16.6922 17.381 16.9422 17.181 17.1422C16.981 17.3422 16.731 17.4422 16.431 17.4422ZM3.09258 6.32692L4.87721 4.61922C4.90926 4.59357 4.93009 4.55832 4.93971 4.51345C4.94932 4.46857 4.94771 4.4269 4.93488 4.38845L4.50028 2.15382C4.48745 2.10254 4.46501 2.06408 4.43296 2.03845C4.40091 2.0128 4.35924 1.99997 4.30796 1.99997H2.16951C2.13104 1.99997 2.09898 2.0128 2.07333 2.03845C2.0477 2.06408 2.03488 2.09613 2.03488 2.1346C2.08615 2.81793 2.19801 3.51217 2.37046 4.2173C2.54289 4.92243 2.7836 5.62564 3.09258 6.32692ZM11.7541 14.9115C12.4169 15.2205 13.1082 15.4567 13.8281 15.6202C14.548 15.7836 15.2208 15.8807 15.8464 15.9115C15.8849 15.9115 15.9169 15.8987 15.9426 15.873C15.9682 15.8474 15.981 15.8153 15.981 15.7769V13.673C15.981 13.6218 15.9682 13.5801 15.9426 13.548C15.9169 13.516 15.8785 13.4935 15.8272 13.4807L13.7272 13.0538C13.6887 13.041 13.6551 13.0394 13.6262 13.049C13.5974 13.0586 13.5669 13.0794 13.5349 13.1115L11.7541 14.9115Z" fill="#1C1B1F"/>
</svg>
