<svg width="19" height="19" viewBox="0 0 19 19" fill="none" xmlns="http://www.w3.org/2000/svg">
<path d="M2.3 17.5C1.8 17.5 1.375 17.325 1.025 16.975C0.675 16.625 0.5 16.2 0.5 15.7V2.3C0.5 1.8 0.675 1.375 1.025 1.025C1.375 0.675 1.8 0.5 2.3 0.5H15.7C16.2 0.5 16.625 0.675 16.975 1.025C17.325 1.375 17.5 1.8 17.5 2.3V7.975C17.0667 7.775 16.6167 7.629 16.15 7.537C15.6833 7.44567 15.2167 7.4 14.75 7.4C14.2333 7.4 13.746 7.454 13.288 7.562C12.8293 7.67067 12.3917 7.825 11.975 8.025C12.0583 7.84167 12.125 7.646 12.175 7.438C12.225 7.22933 12.25 7.01667 12.25 6.8C12.25 5.88333 11.9333 5.11267 11.3 4.488C10.6667 3.86267 9.9 3.55 9 3.55C8.1 3.55 7.33333 3.86267 6.7 4.488C6.06667 5.11267 5.75 5.88333 5.75 6.8C5.75 7.7 6.06667 8.46667 6.7 9.1C7.33333 9.73333 8.1 10.05 9 10.05C9.08333 10.05 9.17067 10.0417 9.262 10.025C9.354 10.0083 9.44167 9.99167 9.525 9.975C9.25833 10.2917 9.02933 10.6417 8.838 11.025C8.646 11.4083 8.49167 11.8 8.375 12.2C7.125 12.2833 5.95833 12.575 4.875 13.075C3.79167 13.575 2.83333 14.2333 2 15.05V16H8.425C8.50833 16.2833 8.60433 16.546 8.713 16.788C8.821 17.0293 8.95833 17.2667 9.125 17.5H2.3ZM14 18.475L13.8 17.3C13.5 17.2167 13.246 17.1127 13.038 16.988C12.8293 16.8627 12.625 16.7167 12.425 16.55L11.3 16.95L10.525 15.675L11.45 14.875C11.3667 14.575 11.325 14.296 11.325 14.038C11.325 13.7793 11.3667 13.5 11.45 13.2L10.525 12.4L11.3 11.125L12.425 11.525C12.625 11.3583 12.8293 11.2123 13.038 11.087C13.246 10.9623 13.5 10.8583 13.8 10.775L14 9.6H15.5L15.7 10.775C16 10.8583 16.2543 10.9623 16.463 11.087C16.671 11.2123 16.875 11.375 17.075 11.575L18.2 11.125L18.975 12.45L18.05 13.225C18.1333 13.5083 18.175 13.7873 18.175 14.062C18.175 14.3373 18.1333 14.6083 18.05 14.875L18.975 15.675L18.2 16.95L17.075 16.55C16.875 16.7167 16.671 16.8627 16.463 16.988C16.2543 17.1127 16 17.2167 15.7 17.3L15.5 18.475H14ZM14.75 16.125C15.3167 16.125 15.8043 15.9207 16.213 15.512C16.621 15.104 16.825 14.6167 16.825 14.05C16.825 13.4667 16.621 12.9707 16.213 12.562C15.8043 12.154 15.3167 11.95 14.75 11.95C14.1833 11.95 13.696 12.154 13.288 12.562C12.8793 12.9707 12.675 13.4667 12.675 14.05C12.675 14.6167 12.8793 15.104 13.288 15.512C13.696 15.9207 14.1833 16.125 14.75 16.125Z" fill="#428A0A"/>
</svg>
