<svg width="19" height="20" viewBox="0 0 19 20" fill="none" xmlns="http://www.w3.org/2000/svg">
<path d="M13.6538 17.5C13.7718 17.5 13.875 17.4557 13.9634 17.3673C14.0519 17.2788 14.0961 17.1756 14.0961 17.0576V14.4423C14.0961 14.3243 14.0519 14.2211 13.9634 14.1327C13.875 14.0442 13.7718 14 13.6538 14C13.5358 14 13.4326 14.0442 13.3442 14.1327C13.2557 14.2211 13.2115 14.3243 13.2115 14.4423V17.0576C13.2115 17.1756 13.2557 17.2788 13.3442 17.3673C13.4326 17.4557 13.5358 17.5 13.6538 17.5ZM13.6538 13.0865C13.7743 13.0929 13.8782 13.0509 13.9653 12.9606C14.0525 12.8702 14.0961 12.7647 14.0961 12.6442C14.0961 12.5237 14.0516 12.4199 13.9626 12.3327C13.8736 12.2455 13.7697 12.2019 13.651 12.2019C13.5324 12.2019 13.4294 12.2457 13.3422 12.3334C13.2551 12.421 13.2115 12.5233 13.2115 12.6401C13.2115 12.757 13.2557 12.8606 13.3442 12.951C13.4326 13.0413 13.5358 13.0865 13.6538 13.0865ZM13.6538 19.3461C12.4051 19.3461 11.3429 18.9083 10.4673 18.0326C9.59164 17.157 9.15382 16.0948 9.15382 14.8461C9.15382 13.5974 9.59164 12.5352 10.4673 11.6596C11.3429 10.784 12.4051 10.3462 13.6538 10.3462C14.9025 10.3462 15.9647 10.784 16.8403 11.6596C17.7159 12.5352 18.1538 13.5974 18.1538 14.8461C18.1538 16.0948 17.7159 17.157 16.8403 18.0326C15.9647 18.9083 14.9025 19.3461 13.6538 19.3461ZM10.4 6.49995H14L9.5 1.99997V5.59995C9.5 5.85495 9.58625 6.0687 9.75875 6.2412C9.93125 6.4137 10.145 6.49995 10.4 6.49995ZM2.3077 19.5C1.81058 19.5 1.38502 19.3229 1.03102 18.9689C0.677008 18.6149 0.5 18.1894 0.5 17.6922V2.3077C0.5 1.81058 0.677008 1.38503 1.03102 1.03102C1.38502 0.677008 1.81058 0.5 2.3077 0.5H9.50193C9.74579 0.5 9.97823 0.5468 10.1993 0.6404C10.4202 0.733983 10.6128 0.862825 10.7769 1.02692L14.973 5.22303C15.1371 5.38714 15.266 5.5797 15.3595 5.8007C15.4531 6.02172 15.5 6.25416 15.5 6.49803V8.41538C15.1923 8.32178 14.8862 8.25478 14.5817 8.2144C14.2772 8.17402 13.9679 8.15383 13.6538 8.15383C12.6974 8.15383 11.8015 8.34101 10.9663 8.71538C10.131 9.08974 9.40956 9.60128 8.80188 10.25H4.99997C4.78747 10.25 4.60936 10.3219 4.46563 10.4657C4.32188 10.6095 4.25 10.7877 4.25 11.0003C4.25 11.2129 4.32188 11.391 4.46563 11.5346C4.60936 11.6782 4.78747 11.75 4.99997 11.75H7.73268C7.53139 12.1307 7.36792 12.5311 7.24227 12.9509C7.11664 13.3708 7.03843 13.8038 7.00765 14.25H4.99997C4.78747 14.25 4.60936 14.3219 4.46563 14.4657C4.32188 14.6095 4.25 14.7877 4.25 15.0003C4.25 15.2129 4.32188 15.391 4.46563 15.5346C4.60936 15.6782 4.78747 15.75 4.99997 15.75H7.0269C7.13073 16.4481 7.33842 17.1191 7.64997 17.763C7.96151 18.4069 8.36663 18.9858 8.86535 19.5H2.3077Z" fill="#428A0A"/>
</svg>
