<svg width="22" height="19" viewBox="0 0 22 19" fill="none" xmlns="http://www.w3.org/2000/svg">
<path d="M10.9807 18.3653C10.1743 17.7704 9.30764 17.3108 8.38073 16.9865C7.45379 16.6621 6.49353 16.5 5.49995 16.5C4.8897 16.5 4.29035 16.5676 3.7019 16.7028C3.11343 16.8381 2.54613 17.0371 1.99998 17.2999C1.64358 17.464 1.30447 17.4397 0.982675 17.2269C0.660892 17.014 0.5 16.7127 0.5 16.323V5.48462C0.5 5.26924 0.55705 5.0702 0.67115 4.8875C0.78525 4.7048 0.943583 4.57178 1.14615 4.48845C1.82307 4.15897 2.52851 3.91186 3.26248 3.74712C3.99644 3.58237 4.74227 3.5 5.49995 3.5C6.47303 3.5 7.42047 3.63783 8.34225 3.91348C9.26405 4.18913 10.1499 4.57695 10.9999 5.07695V16.5615C11.8435 16.0282 12.7336 15.6346 13.6701 15.3807C14.6067 15.1269 15.5499 15 16.4999 15C17.0743 15 17.5977 15.0355 18.0701 15.1067C18.5426 15.1778 19.0897 15.3102 19.7115 15.5038C19.782 15.523 19.8477 15.5246 19.9086 15.5086C19.9695 15.4926 20 15.4397 20 15.35V4.11925C20.173 4.17053 20.3419 4.22758 20.5067 4.2904C20.6714 4.35322 20.832 4.43206 20.9884 4.52693C21.1589 4.61026 21.2868 4.73205 21.372 4.8923C21.4573 5.05257 21.4999 5.22437 21.4999 5.4077V16.3038C21.4999 16.6935 21.3342 16.9932 21.0028 17.2028C20.6714 17.4124 20.3179 17.4384 19.9422 17.2807C19.4025 17.0243 18.8432 16.8301 18.2643 16.698C17.6855 16.566 17.0974 16.5 16.4999 16.5C15.4999 16.5 14.5301 16.6573 13.5903 16.972C12.6506 17.2868 11.7807 17.7512 10.9807 18.3653ZM12.9999 14V5L18 0V9.49998L12.9999 14Z" fill="#428A0A"/>
</svg>
