<svg width="24" height="24" viewBox="0 0 24 24" fill="none" xmlns="http://www.w3.org/2000/svg">
<g id="event">
<mask id="mask0_2791_3277" style="mask-type:alpha" maskUnits="userSpaceOnUse" x="0" y="0" width="24" height="24">
<rect id="Bounding box" width="24" height="24" fill="#D9D9D9"/>
</mask>
<g mask="url(#mask0_2791_3277)">
<path id="event_2" d="M14.6923 18.0001C14.05 18.0001 13.5048 17.7761 13.0567 17.328C12.6087 16.8799 12.3846 16.3347 12.3846 15.6924C12.3846 15.0501 12.6087 14.5049 13.0567 14.0569C13.5048 13.6088 14.05 13.3848 14.6923 13.3848C15.3346 13.3848 15.8798 13.6088 16.3279 14.0569C16.7759 14.5049 17 15.0501 17 15.6924C17 16.3347 16.7759 16.8799 16.3279 17.328C15.8798 17.7761 15.3346 18.0001 14.6923 18.0001ZM5.3077 21.5001C4.80257 21.5001 4.375 21.3251 4.025 20.9751C3.675 20.6251 3.5 20.1975 3.5 19.6924V6.30784C3.5 5.80271 3.675 5.37514 4.025 5.02514C4.375 4.67514 4.80257 4.50014 5.3077 4.50014H6.69233V2.38477H8.23075V4.50014H15.8077V2.38477H17.3076V4.50014H18.6923C19.1974 4.50014 19.625 4.67514 19.975 5.02514C20.325 5.37514 20.5 5.80271 20.5 6.30784V19.6924C20.5 20.1975 20.325 20.6251 19.975 20.9751C19.625 21.3251 19.1974 21.5001 18.6923 21.5001H5.3077ZM5.3077 20.0001H18.6923C18.7692 20.0001 18.8397 19.9681 18.9038 19.904C18.9679 19.8398 19 19.7693 19 19.6924V10.3078H4.99997V19.6924C4.99997 19.7693 5.03202 19.8398 5.09612 19.904C5.16024 19.9681 5.23077 20.0001 5.3077 20.0001ZM4.99997 8.80787H19V6.30784C19 6.23091 18.9679 6.16038 18.9038 6.09627C18.8397 6.03217 18.7692 6.00012 18.6923 6.00012H5.3077C5.23077 6.00012 5.16024 6.03217 5.09612 6.09627C5.03202 6.16038 4.99997 6.23091 4.99997 6.30784V8.80787Z" fill="#1C1B1F"/>
</g>
</g>
</svg>
