<svg width="159" height="11" viewBox="0 0 159 11" fill="none" xmlns="http://www.w3.org/2000/svg">
<path d="M34.6053 2.23989C49.7086 1.91771 64.8202 1.7106 79.9317 1.61855C95.0432 1.5265 110.015 1.55718 125.053 1.70293C133.595 1.78731 142.146 1.90237 150.688 2.05579L151.847 0.483263C132.345 0.797768 112.852 1.18898 93.3578 1.6569C73.8641 2.12483 54.3704 2.66946 34.8766 3.29847C23.9335 3.65132 12.9986 4.01953 2.05551 4.41841C1.41421 4.44142 0.45227 4.59484 0.0905136 5.17782C-0.246577 5.72245 0.378274 6.00628 0.896243 5.99093C21.2121 5.50767 41.5445 5.46165 61.8686 5.86053C82.1927 6.25941 102.5 7.11088 122.783 8.39958C134.179 9.12064 145.566 9.98745 156.936 10.9923C157.553 11.046 158.573 10.7622 158.901 10.2329C159.263 9.6576 158.589 9.45816 158.096 9.4198C137.862 7.6325 117.579 6.28243 97.2796 5.37727C76.9801 4.47211 56.6478 4.01953 36.3237 4.01185C24.9037 4.01185 13.4837 4.14226 2.06373 4.41841L0.904465 5.99093C20.39 5.27754 39.8837 4.64854 59.3774 4.08856C78.8711 3.53626 98.3648 3.053 117.859 2.65411C128.802 2.43166 139.753 2.22455 150.696 2.04812C151.337 2.04045 152.308 1.86402 152.661 1.2887C153.015 0.713389 152.365 0.483263 151.855 0.475592C136.736 0.214784 121.632 0.0536956 106.521 0.0153414C91.4092 -0.0230129 76.4375 0.0460248 61.3999 0.237796C52.8576 0.345188 44.307 0.490934 35.7646 0.675035C35.1233 0.690376 34.1531 0.859135 33.7996 1.43445C33.4625 1.97908 34.0874 2.2629 34.6053 2.24756V2.23989Z" fill="#E4A607"/>
</svg>
