<svg width="24" height="24" viewBox="0 0 24 24" fill="none" xmlns="http://www.w3.org/2000/svg">
<g id="subscriptions">
<mask id="mask0_2783_2826" style="mask-type:alpha" maskUnits="userSpaceOnUse" x="0" y="0" width="24" height="24">
<rect id="Bounding box" width="24" height="24" fill="#D9D9D9"/>
</mask>
<g mask="url(#mask0_2783_2826)">
<path id="subscriptions_2" d="M4.3077 21.5001C3.80257 21.5001 3.375 21.3251 3.025 20.9751C2.675 20.6251 2.5 20.1975 2.5 19.6924V10.3079C2.5 9.80273 2.675 9.37516 3.025 9.02516C3.375 8.67516 3.80257 8.50016 4.3077 8.50016H19.6923C20.1974 8.50016 20.625 8.67516 20.975 9.02516C21.325 9.37516 21.5 9.80273 21.5 10.3079V19.6924C21.5 20.1975 21.325 20.6251 20.975 20.9751C20.625 21.3251 20.1974 21.5001 19.6923 21.5001H4.3077ZM10.25 18.5386L15.5576 15.0001L10.25 11.4617V18.5386ZM4.25 7.11553V5.61556H19.75V7.11553H4.25ZM7.25 4.23091V2.73096H16.75V4.23091H7.25Z" fill="#428A0A"/>
</g>
</g>
</svg>
