<svg width="16" height="20" viewBox="0 0 16 20" fill="none" xmlns="http://www.w3.org/2000/svg">
<path d="M6.94998 15.4327L12.2538 10.1288L11.1692 9.04425L6.9346 13.2789L4.81535 11.1596L3.74615 12.2288L6.94998 15.4327ZM2.3077 19.5C1.80257 19.5 1.375 19.325 1.025 18.975C0.675 18.625 0.5 18.1974 0.5 17.6923V2.30772C0.5 1.80259 0.675 1.37502 1.025 1.02502C1.375 0.675025 1.80257 0.500025 2.3077 0.500025H10.25L15.5 5.74997V17.6923C15.5 18.1974 15.325 18.625 14.975 18.975C14.625 19.325 14.1974 19.5 13.6922 19.5H2.3077ZM9.5 6.49998V2H2.3077C2.23077 2 2.16024 2.03205 2.09612 2.09615C2.03202 2.16027 1.99997 2.23079 1.99997 2.30772V17.6923C1.99997 17.7692 2.03202 17.8397 2.09612 17.9039C2.16024 17.968 2.23077 18 2.3077 18H13.6922C13.7692 18 13.8397 17.968 13.9038 17.9039C13.9679 17.8397 14 17.7692 14 17.6923V6.49998H9.5Z" fill="#53AD0D"/>
</svg>
