<svg width="16" height="20" viewBox="0 0 16 20" fill="none" xmlns="http://www.w3.org/2000/svg">
<path d="M7.99997 11.9996C8.54997 11.9996 9.02081 11.8038 9.41247 11.4121C9.80414 11.0204 9.99998 10.5496 9.99998 9.99959C9.99998 9.44959 9.80414 8.97875 9.41247 8.58709C9.02081 8.19542 8.54997 7.99959 7.99997 7.99959C7.44997 7.99959 6.97914 8.19542 6.58747 8.58709C6.19581 8.97875 5.99997 9.44959 5.99997 9.99959C5.99997 10.5496 6.19581 11.0204 6.58747 11.4121C6.97914 11.8038 7.44997 11.9996 7.99997 11.9996ZM7.99997 19.4803C5.83716 18.8906 4.04646 17.6175 2.62787 15.6611C1.20929 13.7047 0.5 11.5175 0.5 9.09959V3.34576L7.99997 0.538086L15.5 3.34576V9.09959C15.5 10.1316 15.3615 11.1297 15.0845 12.0938C14.8076 13.0579 14.4192 13.9688 13.9192 14.8265L10.9692 11.8765C11.1397 11.5919 11.2708 11.2916 11.3625 10.9755C11.4541 10.6595 11.5 10.3342 11.5 9.99959C11.5 9.03422 11.158 8.20955 10.474 7.52556C9.79002 6.8416 8.96534 6.49961 7.99997 6.49961C7.03461 6.49961 6.20993 6.8416 5.52595 7.52556C4.84198 8.20955 4.5 9.03422 4.5 9.99959C4.5 10.965 4.84198 11.7896 5.52595 12.4736C6.20993 13.1576 7.03461 13.4996 7.99997 13.4996C8.33716 13.4996 8.66697 13.4521 8.9894 13.3572C9.31183 13.2624 9.61022 13.1201 9.88457 12.9303L13.0423 16.088C12.3577 16.9072 11.5993 17.6066 10.7673 18.1861C9.93523 18.7656 9.01279 19.197 7.99997 19.4803Z" fill="#428A0A"/>
</svg>
