<svg width="16" height="16" viewBox="0 0 16 16" fill="none" xmlns="http://www.w3.org/2000/svg">
<g clip-path="url(#clip0_2379_2649)">
<path d="M8 16C12.4183 16 16 12.4183 16 8C16 3.58172 12.4183 0 8 0C3.58172 0 0 3.58172 0 8C0 12.4183 3.58172 16 8 16Z" fill="#1B9DF0"/>
<path d="M6.53589 12.22C10.0839 12.22 12.0239 9.27999 12.0239 6.73199C12.0239 6.64799 12.0239 6.56399 12.0199 6.48399C12.3959 6.21199 12.7239 5.87199 12.9839 5.48399C12.6399 5.63599 12.2679 5.73999 11.8759 5.78799C12.2759 5.54799 12.5799 5.17199 12.7239 4.71999C12.3519 4.93999 11.9399 5.09999 11.4999 5.18799C11.1479 4.81199 10.6479 4.57999 10.0919 4.57999C9.02789 4.57999 8.16389 5.44399 8.16389 6.50799C8.16389 6.65999 8.17989 6.80799 8.21589 6.94799C6.61189 6.86799 5.19189 6.09999 4.23989 4.93199C4.07589 5.21599 3.97989 5.54799 3.97989 5.89999C3.97989 6.56799 4.31989 7.15999 4.83989 7.50399C4.52389 7.49599 4.22789 7.40799 3.96789 7.26399C3.96789 7.27199 3.96789 7.27999 3.96789 7.28799C3.96789 8.22399 4.63189 8.99999 5.51589 9.17999C5.35589 9.22399 5.18389 9.24799 5.00789 9.24799C4.88389 9.24799 4.76389 9.23599 4.64389 9.21199C4.88789 9.97999 5.59989 10.536 6.44389 10.552C5.78389 11.068 4.95189 11.376 4.04789 11.376C3.89189 11.376 3.73989 11.368 3.58789 11.348C4.43189 11.9 5.44789 12.22 6.53589 12.22Z" fill="white"/>
</g>
<defs>
<clipPath id="clip0_2379_2649">
<rect width="16" height="16" fill="white"/>
</clipPath>
</defs>
</svg>
